<svg width="3132" height="583" xmlns="http://www.w3.org/2000/svg" xmlns:xlink="http://www.w3.org/1999/xlink" xml:space="preserve" overflow="hidden"><defs><clipPath id="clip0"><rect x="658" y="1514" width="3132" height="583"/></clipPath></defs><g clip-path="url(#clip0)" transform="translate(-658 -1514)"><rect x="920.5" y="1715.5" width="648" height="221" fill="#FFFFFF"/><path d="M1001.5 1715.5 1001.5 1936.5M1487.5 1715.5 1487.5 1936.5" stroke="#0F6FC6" stroke-width="4.58333" stroke-linejoin="round" stroke-miterlimit="10" fill="none" fill-rule="evenodd"/><rect x="920.5" y="1715.5" width="648" height="221" stroke="#0F6FC6" stroke-width="4.58333" stroke-linejoin="round" stroke-miterlimit="10" fill="none"/><text font-family="Meiryo,Meiryo_MSFontService,sans-serif" font-weight="400" font-size="55" transform="matrix(1 0 0 1 1051.35 1839)">顧客データ取得</text><rect x="1876.5" y="1587.5" width="648" height="221" fill="#FFFFFF"/><path d="M1957.5 1587.5 1957.5 1808.5M2443.5 1587.5 2443.5 1808.5" stroke="#0F6FC6" stroke-width="4.58333" stroke-linejoin="round" stroke-miterlimit="10" fill="none" fill-rule="evenodd"/><rect x="1876.5" y="1587.5" width="648" height="221" stroke="#0F6FC6" stroke-width="4.58333" stroke-linejoin="round" stroke-miterlimit="10" fill="none"/><text font-family="Meiryo,Meiryo_MSFontService,sans-serif" font-weight="400" font-size="55" transform="matrix(1 0 0 1 2007.5 1678)">統計データ算出</text><text font-family="Meiryo,Meiryo_MSFontService,sans-serif" font-weight="400" font-size="55" transform="matrix(1 0 0 1 2091.44 1744)">（</text><text font-family="Meiryo,Meiryo_MSFontService,sans-serif" font-weight="400" font-size="55" transform="matrix(1 0 0 1 2146.44 1744)">A</text><text font-family="Meiryo,Meiryo_MSFontService,sans-serif" font-weight="400" font-size="55" transform="matrix(1 0 0 1 2183.68 1744)">-</text><text font-family="Meiryo,Meiryo_MSFontService,sans-serif" font-weight="400" font-size="55" transform="matrix(1 0 0 1 2207.75 1744)">M</text><text font-family="Meiryo,Meiryo_MSFontService,sans-serif" font-weight="400" font-size="55" transform="matrix(1 0 0 1 2253.58 1744)">）</text><rect x="1876.5" y="1873.5" width="648" height="221" fill="#FFFFFF"/><path d="M1957.5 1873.5 1957.5 2094.5M2443.5 1873.5 2443.5 2094.5" stroke="#0F6FC6" stroke-width="4.58333" stroke-linejoin="round" stroke-miterlimit="10" fill="none" fill-rule="evenodd"/><rect x="1876.5" y="1873.5" width="648" height="221" stroke="#0F6FC6" stroke-width="4.58333" stroke-linejoin="round" stroke-miterlimit="10" fill="none"/><text font-family="Meiryo,Meiryo_MSFontService,sans-serif" font-weight="400" font-size="55" transform="matrix(1 0 0 1 2007.5 1965)">統計データ算出</text><text font-family="Meiryo,Meiryo_MSFontService,sans-serif" font-weight="400" font-size="55" transform="matrix(1 0 0 1 2094.88 2031)">（</text><text font-family="Meiryo,Meiryo_MSFontService,sans-serif" font-weight="400" font-size="55" transform="matrix(1 0 0 1 2149.88 2031)">N</text><text font-family="Meiryo,Meiryo_MSFontService,sans-serif" font-weight="400" font-size="55" transform="matrix(1 0 0 1 2190.56 2031)">-</text><text font-family="Meiryo,Meiryo_MSFontService,sans-serif" font-weight="400" font-size="55" transform="matrix(1 0 0 1 2214.62 2031)">Z</text><text font-family="Meiryo,Meiryo_MSFontService,sans-serif" font-weight="400" font-size="55" transform="matrix(1 0 0 1 2250.14 2031)">）</text><path d="M658 1825C658 1810.64 669.641 1799 684 1799 698.359 1799 710 1810.64 710 1825 710 1839.36 698.359 1851 684 1851 669.641 1851 658 1839.36 658 1825Z" fill-rule="evenodd"/><path d="M3733 1825C3733 1812.85 3743.07 1803 3755.5 1803 3767.93 1803 3778 1812.85 3778 1825 3778 1837.15 3767.93 1847 3755.5 1847 3743.07 1847 3733 1837.15 3733 1825Z" fill-rule="evenodd"/><path d="M3723.5 1825.5C3723.5 1807.27 3738.05 1792.5 3756 1792.5 3773.95 1792.5 3788.5 1807.27 3788.5 1825.5 3788.5 1843.73 3773.95 1858.5 3756 1858.5 3738.05 1858.5 3723.5 1843.73 3723.5 1825.5Z" stroke="#000000" stroke-width="3.4375" stroke-linejoin="round" stroke-miterlimit="10" fill="none" fill-rule="evenodd"/><path d="M710 1823.85 897.142 1823.85 897.142 1826.15 710 1826.15ZM892.559 1811.25 920.059 1825 892.559 1838.75Z" fill="#0F6FC6"/><path d="M0.438854-1.05846 287.14 117.812 286.262 119.929-0.438854 1.05846ZM287.733 104.414 307.87 127.648 277.201 129.817Z" fill="#0F6FC6" transform="matrix(1 0 0 -1 1568 1824.65)"/><path d="M1568.52 1823.98 1856.02 1972.16 1854.97 1974.2 1567.47 1826.02ZM1857.72 1958.86 1875.87 1983.68 1845.13 1983.3Z" fill="#0F6FC6"/><rect x="2873.5" y="1715.5" width="648" height="221" fill="#FFFFFF"/><path d="M2954.5 1715.5 2954.5 1936.5M3440.5 1715.5 3440.5 1936.5" stroke="#0F6FC6" stroke-width="4.58333" stroke-linejoin="round" stroke-miterlimit="10" fill="none" fill-rule="evenodd"/><rect x="2873.5" y="1715.5" width="648" height="221" stroke="#0F6FC6" stroke-width="4.58333" stroke-linejoin="round" stroke-miterlimit="10" fill="none"/><text font-family="Meiryo,Meiryo_MSFontService,sans-serif" font-weight="400" font-size="55" transform="matrix(1 0 0 1 3004.58 1839)">結果データ集計</text><path d="M2524.39 1695.92 2851.67 1815.7 2850.88 1817.85 2523.61 1698.08ZM2851.69 1802.28 2872.79 1824.65 2842.24 1828.11Z" fill="#0F6FC6"/><path d="M0.474485-1.04298 328.409 148.145 327.46 150.231-0.474485 1.04298ZM329.456 134.775 348.793 158.678 318.068 159.806Z" fill="#0F6FC6" transform="matrix(1 0 0 -1 2524 1983.68)"/><path d="M3521 1823.85 3699.44 1823.85 3699.44 1826.15 3521 1826.15ZM3694.86 1811.25 3722.36 1825 3694.86 1838.75Z" fill="#0F6FC6"/><path d="M1939.93 1576.5 1963.87 1595.5 1950.58 1595.5C1942.38 1624.19 1917.41 1639.85 1893.86 1631.08 1907.92 1625.84 1919.11 1612.63 1924.01 1595.5L1910.72 1595.5Z" fill="#FFFFFF" fill-rule="evenodd"/><path d="M1880.57 1633.5C1855.13 1633.5 1834.5 1607.98 1834.5 1576.5L1861.07 1576.5C1861.07 1607.98 1881.7 1633.5 1907.14 1633.5Z" fill="#CDCDCD" fill-rule="evenodd"/><path d="M1893.86 1631.08C1907.92 1625.84 1919.11 1612.63 1924.01 1595.5L1910.72 1595.5 1939.93 1576.5 1963.87 1595.5 1950.58 1595.5C1944.07 1618.27 1926.67 1633.5 1907.14 1633.5L1880.57 1633.5C1855.13 1633.5 1834.5 1607.98 1834.5 1576.5L1861.07 1576.5C1861.07 1607.98 1881.7 1633.5 1907.14 1633.5" stroke="#0F6FC6" stroke-width="4.58333" stroke-linejoin="round" stroke-miterlimit="10" fill="none" fill-rule="evenodd"/><path d="M1841.07 1573.5 1817.13 1554.5 1830.42 1554.5C1838.62 1525.81 1863.59 1510.15 1887.14 1518.92 1873.08 1524.16 1861.89 1537.37 1856.99 1554.5L1870.28 1554.5Z" fill="#FFFFFF" fill-rule="evenodd"/><path d="M1900.43 1516.5C1925.87 1516.5 1946.5 1542.02 1946.5 1573.5L1919.93 1573.5C1919.93 1542.02 1899.3 1516.5 1873.86 1516.5Z" fill="#CDCDCD" fill-rule="evenodd"/><path d="M1887.14 1518.92C1873.08 1524.16 1861.89 1537.37 1856.99 1554.5L1870.28 1554.5 1841.07 1573.5 1817.13 1554.5 1830.42 1554.5C1836.93 1531.73 1854.33 1516.5 1873.86 1516.5L1900.43 1516.5C1925.87 1516.5 1946.5 1542.02 1946.5 1573.5L1919.93 1573.5C1919.93 1542.02 1899.3 1516.5 1873.86 1516.5" stroke="#0F6FC6" stroke-width="4.58333" stroke-linejoin="round" stroke-miterlimit="10" fill="none" fill-rule="evenodd"/><path d="M1929.93 1897.5 1953.87 1916.5 1940.58 1916.5C1932.38 1945.19 1907.41 1960.85 1883.86 1952.08 1897.92 1946.84 1909.11 1933.63 1914.01 1916.5L1900.72 1916.5Z" fill="#FFFFFF" fill-rule="evenodd"/><path d="M1870.57 1954.5C1845.13 1954.5 1824.5 1928.98 1824.5 1897.5L1851.07 1897.5C1851.07 1928.98 1871.7 1954.5 1897.14 1954.5Z" fill="#CDCDCD" fill-rule="evenodd"/><path d="M1883.86 1952.08C1897.92 1946.84 1909.11 1933.63 1914.01 1916.5L1900.72 1916.5 1929.93 1897.5 1953.87 1916.5 1940.58 1916.5C1934.07 1939.27 1916.67 1954.5 1897.14 1954.5L1870.57 1954.5C1845.13 1954.5 1824.5 1928.98 1824.5 1897.5L1851.07 1897.5C1851.07 1928.98 1871.7 1954.5 1897.14 1954.5" stroke="#0F6FC6" stroke-width="4.58333" stroke-linejoin="round" stroke-miterlimit="10" fill="none" fill-rule="evenodd"/><path d="M1831.07 1894.5 1807.13 1875.5 1820.42 1875.5C1828.62 1846.81 1853.59 1831.15 1877.14 1839.92 1863.08 1845.16 1851.89 1858.37 1846.99 1875.5L1860.28 1875.5Z" fill="#FFFFFF" fill-rule="evenodd"/><path d="M1890.43 1837.5C1915.87 1837.5 1936.5 1863.02 1936.5 1894.5L1909.93 1894.5C1909.93 1863.02 1889.3 1837.5 1863.86 1837.5Z" fill="#CDCDCD" fill-rule="evenodd"/><path d="M1877.14 1839.92C1863.08 1845.16 1851.89 1858.37 1846.99 1875.5L1860.28 1875.5 1831.07 1894.5 1807.13 1875.5 1820.42 1875.5C1826.93 1852.73 1844.33 1837.5 1863.86 1837.5L1890.43 1837.5C1915.87 1837.5 1936.5 1863.02 1936.5 1894.5L1909.93 1894.5C1909.93 1863.02 1889.3 1837.5 1863.86 1837.5" stroke="#0F6FC6" stroke-width="4.58333" stroke-linejoin="round" stroke-miterlimit="10" fill="none" fill-rule="evenodd"/><path d="M1629 1903.75C1629 1911.9 1668.62 1918.5 1717.5 1918.5 1766.38 1918.5 1806 1911.9 1806 1903.75L1806 1992.25C1806 2000.4 1766.38 2007 1717.5 2007 1668.62 2007 1629 2000.4 1629 1992.25Z" fill="#91C6F7" fill-rule="evenodd"/><path d="M1629 1903.75C1629 1895.6 1668.62 1889 1717.5 1889 1766.38 1889 1806 1895.6 1806 1903.75 1806 1911.9 1766.38 1918.5 1717.5 1918.5 1668.62 1918.5 1629 1911.9 1629 1903.75Z" fill="#BDDDFA" fill-rule="evenodd"/><path d="M1806 1903.75C1806 1911.9 1766.38 1918.5 1717.5 1918.5 1668.62 1918.5 1629 1911.9 1629 1903.75 1629 1895.6 1668.62 1889 1717.5 1889 1766.38 1889 1806 1895.6 1806 1903.75L1806 1992.25C1806 2000.4 1766.38 2007 1717.5 2007 1668.62 2007 1629 2000.4 1629 1992.25L1629 1903.75" stroke="#0F6FC6" stroke-width="2.29167" stroke-linejoin="round" stroke-miterlimit="10" fill="none" fill-rule="evenodd"/><text font-family="Meiryo,Meiryo_MSFontService,sans-serif" font-weight="400" font-size="46" transform="matrix(1 0 0 1 1663.08 1967)">N</text><text font-family="Meiryo,Meiryo_MSFontService,sans-serif" font-weight="400" font-size="46" transform="matrix(1 0 0 1 1696.88 1967)">～</text><text font-family="Meiryo,Meiryo_MSFontService,sans-serif" font-weight="400" font-size="46" transform="matrix(1 0 0 1 1742.71 1967)">Z</text><path d="M1633 1670.75C1633 1678.9 1672.62 1685.5 1721.5 1685.5 1770.38 1685.5 1810 1678.9 1810 1670.75L1810 1759.25C1810 1767.4 1770.38 1774 1721.5 1774 1672.62 1774 1633 1767.4 1633 1759.25Z" fill="#91C6F7" fill-rule="evenodd"/><path d="M1633 1670.75C1633 1662.6 1672.62 1656 1721.5 1656 1770.38 1656 1810 1662.6 1810 1670.75 1810 1678.9 1770.38 1685.5 1721.5 1685.5 1672.62 1685.5 1633 1678.9 1633 1670.75Z" fill="#BDDDFA" fill-rule="evenodd"/><path d="M1810 1670.75C1810 1678.9 1770.38 1685.5 1721.5 1685.5 1672.62 1685.5 1633 1678.9 1633 1670.75 1633 1662.6 1672.62 1656 1721.5 1656 1770.38 1656 1810 1662.6 1810 1670.75L1810 1759.25C1810 1767.4 1770.38 1774 1721.5 1774 1672.62 1774 1633 1767.4 1633 1759.25L1633 1670.75" stroke="#0F6FC6" stroke-width="2.29167" stroke-linejoin="round" stroke-miterlimit="10" fill="none" fill-rule="evenodd"/><text font-family="Meiryo,Meiryo_MSFontService,sans-serif" font-weight="400" font-size="46" transform="matrix(1 0 0 1 1664.63 1734)">A</text><text font-family="Meiryo,Meiryo_MSFontService,sans-serif" font-weight="400" font-size="46" transform="matrix(1 0 0 1 1695.57 1734)">～</text><text font-family="Meiryo,Meiryo_MSFontService,sans-serif" font-weight="400" font-size="46" transform="matrix(1 0 0 1 1741.4 1734)">M</text></g></svg>