<svg width="3025" height="306" xmlns="http://www.w3.org/2000/svg" xmlns:xlink="http://www.w3.org/1999/xlink" xml:space="preserve" overflow="hidden"><g transform="translate(-634 -1429)"><path d="M1173 1431.5 1173 1652.5M1650 1431.5 1650 1652.5" stroke="#0F6FC6" stroke-width="4.58333" stroke-linejoin="round" stroke-miterlimit="10" fill="none" fill-rule="evenodd"/><rect x="1093.5" y="1431.5" width="636" height="221" stroke="#0F6FC6" stroke-width="4.58333" stroke-linejoin="round" stroke-miterlimit="10" fill="none"/><text font-family="Meiryo,Meiryo_MSFontService,sans-serif" font-weight="400" font-size="55" transform="matrix(1 0 0 1 1328.23 1523)">処理１</text><text font-family="Meiryo,Meiryo_MSFontService,sans-serif" font-weight="400" font-size="55" transform="matrix(1 0 0 1 1273.23 1589)">（タスク）</text><path d="M826 1543C826 1528.64 837.641 1517 852 1517 866.359 1517 878 1528.64 878 1543 878 1557.36 866.359 1569 852 1569 837.641 1569 826 1557.36 826 1543Z" fill-rule="evenodd"/><path d="M0.00434576-1.14583 191.567-0.419289 191.558 1.87236-0.00434576 1.14583ZM187.031-13.0407 214.479 0.813451 186.927 14.4591Z" fill="#0F6FC6" transform="matrix(1 0 0 -1 878 1542.81)"/><path d="M1978 1431.5 1978 1652.5M2455 1431.5 2455 1652.5" stroke="#0F6FC6" stroke-width="4.58333" stroke-linejoin="round" stroke-miterlimit="10" fill="none" fill-rule="evenodd"/><rect x="1898.5" y="1431.5" width="636" height="221" stroke="#0F6FC6" stroke-width="4.58333" stroke-linejoin="round" stroke-miterlimit="10" fill="none"/><text font-family="Meiryo,Meiryo_MSFontService,sans-serif" font-weight="400" font-size="55" transform="matrix(1 0 0 1 2133.82 1523)">処理２</text><text font-family="Meiryo,Meiryo_MSFontService,sans-serif" font-weight="400" font-size="55" transform="matrix(1 0 0 1 2078.82 1589)">（タスク）</text><path d="M1729 1540.85 1875.66 1540.85 1875.66 1543.15 1729 1543.15ZM1871.08 1528.25 1898.58 1542 1871.08 1555.75Z" fill="#0F6FC6"/><path d="M2784 1431.5 2784 1652.5M3261 1431.5 3261 1652.5" stroke="#0F6FC6" stroke-width="4.58333" stroke-linejoin="round" stroke-miterlimit="10" fill="none" fill-rule="evenodd"/><rect x="2704.5" y="1431.5" width="636" height="221" stroke="#0F6FC6" stroke-width="4.58333" stroke-linejoin="round" stroke-miterlimit="10" fill="none"/><text font-family="Meiryo,Meiryo_MSFontService,sans-serif" font-weight="400" font-size="55" transform="matrix(1 0 0 1 2939.41 1523)">処理３</text><text font-family="Meiryo,Meiryo_MSFontService,sans-serif" font-weight="400" font-size="55" transform="matrix(1 0 0 1 2884.41 1589)">（タスク）</text><path d="M2534 1540.85 2680.66 1540.85 2680.66 1543.15 2534 1543.15ZM2676.08 1528.25 2703.58 1542 2676.08 1555.75Z" fill="#0F6FC6"/><path d="M3557 1541.5C3557 1529.07 3567.07 1519 3579.5 1519 3591.93 1519 3602 1529.07 3602 1541.5 3602 1553.93 3591.93 1564 3579.5 1564 3567.07 1564 3557 1553.93 3557 1541.5Z" fill-rule="evenodd"/><path d="M3544.5 1542.5C3544.5 1524.27 3559.05 1509.5 3577 1509.5 3594.95 1509.5 3609.5 1524.27 3609.5 1542.5 3609.5 1560.73 3594.95 1575.5 3577 1575.5 3559.05 1575.5 3544.5 1560.73 3544.5 1542.5Z" stroke="#000000" stroke-width="3.4375" stroke-linejoin="round" stroke-miterlimit="10" fill="none" fill-rule="evenodd"/><path d="M3340 1540.85 3521.05 1540.85 3521.05 1543.15 3340 1543.15ZM3516.46 1528.25 3543.96 1542 3516.46 1555.75Z" fill="#0F6FC6"/><text font-family="Meiryo,Meiryo_MSFontService,sans-serif" font-weight="400" font-size="46" transform="matrix(1 0 0 1 668.932 1636)">エントリポイント</text><text font-family="Meiryo,Meiryo_MSFontService,sans-serif" font-weight="400" font-size="46" transform="matrix(1 0 0 1 737.682 1691)">（開始点）</text><text font-family="Meiryo,Meiryo_MSFontService,sans-serif" font-weight="400" font-size="46" transform="matrix(1 0 0 1 3532.84 1627)">終了</text></g></svg>