<svg width="2462" height="323" xmlns="http://www.w3.org/2000/svg" xmlns:xlink="http://www.w3.org/1999/xlink" xml:space="preserve" overflow="hidden"><g transform="translate(-1676 -1754)"><rect x="2463.5" y="1780.5" width="887" height="270" fill="#FFFFFF"/><path d="M2574.38 1780.5 2574.38 2050.5M3239.62 1780.5 3239.62 2050.5" stroke="#0F6FC6" stroke-width="4.58333" stroke-linejoin="round" stroke-miterlimit="10" fill="none" fill-rule="evenodd"/><rect x="2463.5" y="1780.5" width="887" height="270" stroke="#0F6FC6" stroke-width="4.58333" stroke-linejoin="round" stroke-miterlimit="10" fill="none"/><text font-family="Meiryo,Meiryo_MSFontService,sans-serif" font-weight="400" font-size="64" transform="matrix(1 0 0 1 2649.64 1909)">時間がかかる処理</text><text font-family="Meiryo,Meiryo_MSFontService,sans-serif" font-weight="400" font-size="37" transform="matrix(1 0 0 1 2612.97 1963)">（データが大量、計算が重いなど）</text><path d="M1678.5 1787.42C1678.5 1804.49 1794.68 1818.33 1938 1818.33 2081.32 1818.33 2197.5 1804.49 2197.5 1787.42L2197.5 2043.58C2197.5 2060.66 2081.32 2074.5 1938 2074.5 1794.68 2074.5 1678.5 2060.66 1678.5 2043.58Z" fill="#59AAF2" fill-rule="evenodd"/><path d="M1678.5 1787.42C1678.5 1770.34 1794.68 1756.5 1938 1756.5 2081.32 1756.5 2197.5 1770.34 2197.5 1787.42 2197.5 1804.49 2081.32 1818.33 1938 1818.33 1794.68 1818.33 1678.5 1804.49 1678.5 1787.42Z" fill="#9BCCF7" fill-rule="evenodd"/><path d="M2197.5 1787.42C2197.5 1804.49 2081.32 1818.33 1938 1818.33 1794.68 1818.33 1678.5 1804.49 1678.5 1787.42 1678.5 1770.34 1794.68 1756.5 1938 1756.5 2081.32 1756.5 2197.5 1770.34 2197.5 1787.42L2197.5 2043.58C2197.5 2060.66 2081.32 2074.5 1938 2074.5 1794.68 2074.5 1678.5 2060.66 1678.5 2043.58L1678.5 1787.42" stroke="#0F6FC6" stroke-width="4.58333" stroke-linejoin="round" stroke-miterlimit="10" fill="none" fill-rule="evenodd"/><text fill="#FFFFFF" font-family="Meiryo,Meiryo_MSFontService,sans-serif" font-weight="400" font-size="64" transform="matrix(1 0 0 1 1777.07 1946)">入力データ</text><path d="M2197 1913.85 2439.34 1913.85 2439.34 1916.15 2197 1916.15ZM2434.75 1901.25 2462.25 1915 2434.75 1928.75Z" fill="#0F6FC6"/><path d="M3615.5 1787.42C3615.5 1804.49 3731.91 1818.33 3875.5 1818.33 4019.09 1818.33 4135.5 1804.49 4135.5 1787.42L4135.5 2043.58C4135.5 2060.66 4019.09 2074.5 3875.5 2074.5 3731.91 2074.5 3615.5 2060.66 3615.5 2043.58Z" fill="#59AAF2" fill-rule="evenodd"/><path d="M3615.5 1787.42C3615.5 1770.34 3731.91 1756.5 3875.5 1756.5 4019.09 1756.5 4135.5 1770.34 4135.5 1787.42 4135.5 1804.49 4019.09 1818.33 3875.5 1818.33 3731.91 1818.33 3615.5 1804.49 3615.5 1787.42Z" fill="#9BCCF7" fill-rule="evenodd"/><path d="M4135.5 1787.42C4135.5 1804.49 4019.09 1818.33 3875.5 1818.33 3731.91 1818.33 3615.5 1804.49 3615.5 1787.42 3615.5 1770.34 3731.91 1756.5 3875.5 1756.5 4019.09 1756.5 4135.5 1770.34 4135.5 1787.42L4135.5 2043.58C4135.5 2060.66 4019.09 2074.5 3875.5 2074.5 3731.91 2074.5 3615.5 2060.66 3615.5 2043.58L3615.5 1787.42" stroke="#0F6FC6" stroke-width="4.58333" stroke-linejoin="round" stroke-miterlimit="10" fill="none" fill-rule="evenodd"/><text fill="#FFFFFF" font-family="Meiryo,Meiryo_MSFontService,sans-serif" font-weight="400" font-size="64" transform="matrix(1 0 0 1 3714.7 1946)">結果データ</text><path d="M3350 1913.85 3592.34 1913.85 3592.34 1916.15 3350 1916.15ZM3587.75 1901.25 3615.25 1915 3587.75 1928.75Z" fill="#0F6FC6"/></g></svg>