<svg width="3132" height="869" xmlns="http://www.w3.org/2000/svg" xmlns:xlink="http://www.w3.org/1999/xlink" xml:space="preserve" overflow="hidden"><defs><clipPath id="clip0"><rect x="658" y="1477" width="3132" height="869"/></clipPath></defs><g clip-path="url(#clip0)" transform="translate(-658 -1477)"><rect x="920.5" y="1836.5" width="648" height="221" fill="#FFFFFF"/><path d="M1001.5 1836.5 1001.5 2057.5M1487.5 1836.5 1487.5 2057.5" stroke="#0F6FC6" stroke-width="4.58333" stroke-linejoin="round" stroke-miterlimit="10" fill="none" fill-rule="evenodd"/><rect x="920.5" y="1836.5" width="648" height="221" stroke="#0F6FC6" stroke-width="4.58333" stroke-linejoin="round" stroke-miterlimit="10" fill="none"/><text font-family="Meiryo,Meiryo_MSFontService,sans-serif" font-weight="400" font-size="55" transform="matrix(1 0 0 1 1051.35 1960)">顧客データ取得</text><rect x="1876.5" y="1549.5" width="648" height="222" fill="#FFFFFF"/><path d="M1957.5 1549.5 1957.5 1771.5M2443.5 1549.5 2443.5 1771.5" stroke="#0F6FC6" stroke-width="4.58333" stroke-linejoin="round" stroke-miterlimit="10" fill="none" fill-rule="evenodd"/><rect x="1876.5" y="1549.5" width="648" height="222" stroke="#0F6FC6" stroke-width="4.58333" stroke-linejoin="round" stroke-miterlimit="10" fill="none"/><text font-family="Meiryo,Meiryo_MSFontService,sans-serif" font-weight="400" font-size="55" transform="matrix(1 0 0 1 2007.5 1641)">統計データ算出</text><text font-family="Meiryo,Meiryo_MSFontService,sans-serif" font-weight="400" font-size="55" transform="matrix(1 0 0 1 2062.5 1707)">（住所別）</text><rect x="1876.5" y="1836.5" width="648" height="221" fill="#FFFFFF"/><path d="M1957.5 1836.5 1957.5 2057.5M2443.5 1836.5 2443.5 2057.5" stroke="#0F6FC6" stroke-width="4.58333" stroke-linejoin="round" stroke-miterlimit="10" fill="none" fill-rule="evenodd"/><rect x="1876.5" y="1836.5" width="648" height="221" stroke="#0F6FC6" stroke-width="4.58333" stroke-linejoin="round" stroke-miterlimit="10" fill="none"/><text font-family="Meiryo,Meiryo_MSFontService,sans-serif" font-weight="400" font-size="55" transform="matrix(1 0 0 1 2007.5 1927)">統計データ算出</text><text font-family="Meiryo,Meiryo_MSFontService,sans-serif" font-weight="400" font-size="55" transform="matrix(1 0 0 1 2062.5 1993)">（年齢別）</text><rect x="1876.5" y="2122.5" width="648" height="221" fill="#FFFFFF"/><path d="M1957.5 2122.5 1957.5 2343.5M2443.5 2122.5 2443.5 2343.5" stroke="#0F6FC6" stroke-width="4.58333" stroke-linejoin="round" stroke-miterlimit="10" fill="none" fill-rule="evenodd"/><rect x="1876.5" y="2122.5" width="648" height="221" stroke="#0F6FC6" stroke-width="4.58333" stroke-linejoin="round" stroke-miterlimit="10" fill="none"/><text font-family="Meiryo,Meiryo_MSFontService,sans-serif" font-weight="400" font-size="55" transform="matrix(1 0 0 1 2007.5 2214)">統計データ算出</text><text font-family="Meiryo,Meiryo_MSFontService,sans-serif" font-weight="400" font-size="55" transform="matrix(1 0 0 1 2062.5 2280)">（職業別）</text><path d="M658 1946C658 1931.64 669.641 1920 684 1920 698.359 1920 710 1931.64 710 1946 710 1960.36 698.359 1972 684 1972 669.641 1972 658 1960.36 658 1946Z" fill-rule="evenodd"/><path d="M3733 1946.5C3733 1934.07 3743.07 1924 3755.5 1924 3767.93 1924 3778 1934.07 3778 1946.5 3778 1958.93 3767.93 1969 3755.5 1969 3743.07 1969 3733 1958.93 3733 1946.5Z" fill-rule="evenodd"/><path d="M3723.5 1947C3723.5 1929.05 3738.05 1914.5 3756 1914.5 3773.95 1914.5 3788.5 1929.05 3788.5 1947 3788.5 1964.95 3773.95 1979.5 3756 1979.5 3738.05 1979.5 3723.5 1964.95 3723.5 1947Z" stroke="#000000" stroke-width="3.4375" stroke-linejoin="round" stroke-miterlimit="10" fill="none" fill-rule="evenodd"/><path d="M710 1944.85 897.174 1944.85 897.174 1947.15 710 1947.15ZM892.591 1932.25 920.091 1946 892.591 1959.75Z" fill="#0F6FC6"/><path d="M0.780336-0.839053 291.869 269.879 290.309 271.558-0.780336 0.839053ZM297.097 257.528 307.87 286.325 278.369 277.666Z" fill="#0F6FC6" transform="matrix(1 0 0 -1 1568 1946.33)"/><path d="M1568 1944.85 1852.95 1944.85 1852.95 1947.15 1568 1947.15ZM1848.37 1932.25 1875.87 1946 1848.37 1959.75Z" fill="#0F6FC6"/><path d="M1568.78 1945.16 1859.87 2215.88 1858.31 2217.56 1567.22 1946.84ZM1865.1 2203.53 1875.87 2232.33 1846.37 2223.67Z" fill="#0F6FC6"/><rect x="2873.5" y="1836.5" width="648" height="221" fill="#FFFFFF"/><path d="M2954.5 1836.5 2954.5 2057.5M3440.5 1836.5 3440.5 2057.5" stroke="#0F6FC6" stroke-width="4.58333" stroke-linejoin="round" stroke-miterlimit="10" fill="none" fill-rule="evenodd"/><rect x="2873.5" y="1836.5" width="648" height="221" stroke="#0F6FC6" stroke-width="4.58333" stroke-linejoin="round" stroke-miterlimit="10" fill="none"/><text font-family="Meiryo,Meiryo_MSFontService,sans-serif" font-weight="400" font-size="55" transform="matrix(1 0 0 1 3004.58 1960)">結果データ集計</text><path d="M2524.73 1659.11 2855.81 1930.9 2854.35 1932.67 2523.27 1660.89ZM2860.26 1918.25 2872.79 1946.33 2842.81 1939.5Z" fill="#0F6FC6"/><path d="M1.18558e-06-1.14583 325.877-1.1455 325.877 1.14617-1.18558e-06 1.14583ZM321.293-13.7497 348.793 0.000360892 321.293 13.7503Z" fill="#0F6FC6" transform="matrix(1 0 0 -1 2524 1946)"/><path d="M0.727028-0.885643 331.808 270.9 330.354 272.671-0.727028 0.885643ZM336.262 258.249 348.793 286.326 318.814 279.505Z" fill="#0F6FC6" transform="matrix(1 0 0 -1 2524 2232.33)"/><path d="M3521 1944.85 3699.44 1944.85 3699.44 1947.15 3521 1947.15ZM3694.86 1932.25 3722.36 1946 3694.86 1959.75Z" fill="#0F6FC6"/><path d="M1929.93 2136.5 1953.87 2155.5 1940.58 2155.5C1932.38 2184.19 1907.41 2199.85 1883.86 2191.08 1897.92 2185.84 1909.11 2172.63 1914.01 2155.5L1900.72 2155.5Z" fill="#FFFFFF" fill-rule="evenodd"/><path d="M1870.57 2193.5C1845.13 2193.5 1824.5 2167.98 1824.5 2136.5L1851.07 2136.5C1851.07 2167.98 1871.7 2193.5 1897.14 2193.5Z" fill="#CDCDCD" fill-rule="evenodd"/><path d="M1883.86 2191.08C1897.92 2185.84 1909.11 2172.63 1914.01 2155.5L1900.72 2155.5 1929.93 2136.5 1953.87 2155.5 1940.58 2155.5C1934.07 2178.27 1916.67 2193.5 1897.14 2193.5L1870.57 2193.5C1845.13 2193.5 1824.5 2167.98 1824.5 2136.5L1851.07 2136.5C1851.07 2167.98 1871.7 2193.5 1897.14 2193.5" stroke="#0F6FC6" stroke-width="4.58333" stroke-linejoin="round" stroke-miterlimit="10" fill="none" fill-rule="evenodd"/><path d="M1831.07 2133.5 1807.13 2114.5 1820.42 2114.5C1828.62 2085.81 1853.59 2070.15 1877.14 2078.92 1863.08 2084.16 1851.89 2097.37 1846.99 2114.5L1860.28 2114.5Z" fill="#FFFFFF" fill-rule="evenodd"/><path d="M1890.43 2076.5C1915.87 2076.5 1936.5 2102.02 1936.5 2133.5L1909.93 2133.5C1909.93 2102.02 1889.3 2076.5 1863.86 2076.5Z" fill="#CDCDCD" fill-rule="evenodd"/><path d="M1877.14 2078.92C1863.08 2084.16 1851.89 2097.37 1846.99 2114.5L1860.28 2114.5 1831.07 2133.5 1807.13 2114.5 1820.42 2114.5C1826.93 2091.73 1844.33 2076.5 1863.86 2076.5L1890.43 2076.5C1915.87 2076.5 1936.5 2102.02 1936.5 2133.5L1909.93 2133.5C1909.93 2102.02 1889.3 2076.5 1863.86 2076.5" stroke="#0F6FC6" stroke-width="4.58333" stroke-linejoin="round" stroke-miterlimit="10" fill="none" fill-rule="evenodd"/><path d="M1939.93 1539.5 1963.87 1558.5 1950.58 1558.5C1942.38 1587.19 1917.41 1602.85 1893.86 1594.08 1907.92 1588.84 1919.11 1575.63 1924.01 1558.5L1910.72 1558.5Z" fill="#FFFFFF" fill-rule="evenodd"/><path d="M1880.57 1596.5C1855.13 1596.5 1834.5 1570.98 1834.5 1539.5L1861.07 1539.5C1861.07 1570.98 1881.7 1596.5 1907.14 1596.5Z" fill="#CDCDCD" fill-rule="evenodd"/><path d="M1893.86 1594.08C1907.92 1588.84 1919.11 1575.63 1924.01 1558.5L1910.72 1558.5 1939.93 1539.5 1963.87 1558.5 1950.58 1558.5C1944.07 1581.27 1926.67 1596.5 1907.14 1596.5L1880.57 1596.5C1855.13 1596.5 1834.5 1570.98 1834.5 1539.5L1861.07 1539.5C1861.07 1570.98 1881.7 1596.5 1907.14 1596.5" stroke="#0F6FC6" stroke-width="4.58333" stroke-linejoin="round" stroke-miterlimit="10" fill="none" fill-rule="evenodd"/><path d="M1841.07 1536.5 1817.13 1517.5 1830.42 1517.5C1838.62 1488.81 1863.59 1473.15 1887.14 1481.92 1873.09 1487.16 1861.89 1500.37 1856.99 1517.5L1870.28 1517.5Z" fill="#FFFFFF" fill-rule="evenodd"/><path d="M1900.43 1479.5C1925.87 1479.5 1946.5 1505.02 1946.5 1536.5L1919.93 1536.5C1919.93 1505.02 1899.3 1479.5 1873.86 1479.5Z" fill="#CDCDCD" fill-rule="evenodd"/><path d="M1887.14 1481.92C1873.09 1487.16 1861.89 1500.37 1856.99 1517.5L1870.28 1517.5 1841.07 1536.5 1817.13 1517.5 1830.42 1517.5C1836.93 1494.73 1854.33 1479.5 1873.86 1479.5L1900.43 1479.5C1925.87 1479.5 1946.5 1505.02 1946.5 1536.5L1919.93 1536.5C1919.93 1505.02 1899.3 1479.5 1873.86 1479.5" stroke="#0F6FC6" stroke-width="4.58333" stroke-linejoin="round" stroke-miterlimit="10" fill="none" fill-rule="evenodd"/><path d="M1929.93 1860.5 1953.87 1879.5 1940.58 1879.5C1932.38 1908.19 1907.41 1923.85 1883.86 1915.08 1897.92 1909.84 1909.11 1896.63 1914.01 1879.5L1900.72 1879.5Z" fill="#FFFFFF" fill-rule="evenodd"/><path d="M1870.57 1917.5C1845.13 1917.5 1824.5 1891.98 1824.5 1860.5L1851.07 1860.5C1851.07 1891.98 1871.7 1917.5 1897.14 1917.5Z" fill="#CDCDCD" fill-rule="evenodd"/><path d="M1883.86 1915.08C1897.92 1909.84 1909.11 1896.63 1914.01 1879.5L1900.72 1879.5 1929.93 1860.5 1953.87 1879.5 1940.58 1879.5C1934.07 1902.27 1916.67 1917.5 1897.14 1917.5L1870.57 1917.5C1845.13 1917.5 1824.5 1891.98 1824.5 1860.5L1851.07 1860.5C1851.07 1891.98 1871.7 1917.5 1897.14 1917.5" stroke="#0F6FC6" stroke-width="4.58333" stroke-linejoin="round" stroke-miterlimit="10" fill="none" fill-rule="evenodd"/><path d="M1831.07 1857.5 1807.13 1838.5 1820.42 1838.5C1828.62 1809.81 1853.59 1794.15 1877.14 1802.92 1863.08 1808.16 1851.89 1821.37 1846.99 1838.5L1860.28 1838.5Z" fill="#FFFFFF" fill-rule="evenodd"/><path d="M1890.43 1800.5C1915.87 1800.5 1936.5 1826.02 1936.5 1857.5L1909.93 1857.5C1909.93 1826.02 1889.3 1800.5 1863.86 1800.5Z" fill="#CDCDCD" fill-rule="evenodd"/><path d="M1877.14 1802.92C1863.08 1808.16 1851.89 1821.37 1846.99 1838.5L1860.28 1838.5 1831.07 1857.5 1807.13 1838.5 1820.42 1838.5C1826.93 1815.73 1844.33 1800.5 1863.86 1800.5L1890.43 1800.5C1915.87 1800.5 1936.5 1826.02 1936.5 1857.5L1909.93 1857.5C1909.93 1826.02 1889.3 1800.5 1863.86 1800.5" stroke="#0F6FC6" stroke-width="4.58333" stroke-linejoin="round" stroke-miterlimit="10" fill="none" fill-rule="evenodd"/></g></svg>