<svg width="3026" height="906" xmlns="http://www.w3.org/2000/svg" xmlns:xlink="http://www.w3.org/1999/xlink" xml:space="preserve" overflow="hidden"><g transform="translate(-604 -1173)"><path d="M1143 1543.5 1143 1764.5M1620 1543.5 1620 1764.5" stroke="#0F6FC6" stroke-width="4.58333" stroke-linejoin="round" stroke-miterlimit="10" fill="none" fill-rule="evenodd"/><rect x="1063.5" y="1543.5" width="636" height="221" stroke="#0F6FC6" stroke-width="4.58333" stroke-linejoin="round" stroke-miterlimit="10" fill="none"/><text font-family="Meiryo,Meiryo_MSFontService,sans-serif" font-weight="400" font-size="55" transform="matrix(1 0 0 1 1298.82 1634)">処理１</text><text font-family="Meiryo,Meiryo_MSFontService,sans-serif" font-weight="400" font-size="55" transform="matrix(1 0 0 1 1243.82 1700)">（タスク）</text><path d="M797 1654C797 1639.64 808.641 1628 823 1628 837.359 1628 849 1639.64 849 1654 849 1668.36 837.359 1680 823 1680 808.641 1680 797 1668.36 797 1654Z" fill-rule="evenodd"/><path d="M0.00434576-1.14583 191.567-0.419289 191.558 1.87236-0.00434576 1.14583ZM187.031-13.0407 214.479 0.813451 186.927 14.4591Z" fill="#0F6FC6" transform="matrix(1 0 0 -1 849 1653.81)"/><path d="M1915 1235.5 1915 1456.5M2392 1235.5 2392 1456.5" stroke="#0F6FC6" stroke-width="4.58333" stroke-linejoin="round" stroke-miterlimit="10" fill="none" fill-rule="evenodd"/><rect x="1835.5" y="1235.5" width="636" height="221" stroke="#0F6FC6" stroke-width="4.58333" stroke-linejoin="round" stroke-miterlimit="10" fill="none"/><text font-family="Meiryo,Meiryo_MSFontService,sans-serif" font-weight="400" font-size="55" transform="matrix(1 0 0 1 2051.4 1326)">処理</text><text font-family="Meiryo,Meiryo_MSFontService,sans-serif" font-weight="400" font-size="55" transform="matrix(1 0 0 1 2161.4 1326)">2</text><text font-family="Meiryo,Meiryo_MSFontService,sans-serif" font-weight="400" font-size="55" transform="matrix(1 0 0 1 2195.78 1326)">-</text><text font-family="Meiryo,Meiryo_MSFontService,sans-serif" font-weight="400" font-size="55" transform="matrix(1 0 0 1 2219.84 1326)">1</text><text font-family="Meiryo,Meiryo_MSFontService,sans-serif" font-weight="400" font-size="55" transform="matrix(1 0 0 1 2015.31 1392)">（タスク）</text><path d="M1.04888-0.461288 127.303 286.616 125.205 287.538-1.04888 0.461288ZM136.995 277.346 135.48 308.055 111.822 288.417Z" fill="#0F6FC6" transform="matrix(1 0 0 -1 1699 1653.05)"/><path d="M2754.12 1543.5 2754.12 1764.5M3231.87 1543.5 3231.87 1764.5" stroke="#0F6FC6" stroke-width="4.58333" stroke-linejoin="round" stroke-miterlimit="10" fill="none" fill-rule="evenodd"/><rect x="2674.5" y="1543.5" width="637" height="221" stroke="#0F6FC6" stroke-width="4.58333" stroke-linejoin="round" stroke-miterlimit="10" fill="none"/><text font-family="Meiryo,Meiryo_MSFontService,sans-serif" font-weight="400" font-size="55" transform="matrix(1 0 0 1 2910 1634)">処理３</text><text font-family="Meiryo,Meiryo_MSFontService,sans-serif" font-weight="400" font-size="55" transform="matrix(1 0 0 1 2855 1700)">（タスク）</text><path d="M2471.96 1344.37 2662.99 1633.31 2661.08 1634.57 2470.04 1345.63ZM2670.98 1622.53 2674.68 1653.05 2648.04 1637.7Z" fill="#0F6FC6"/><path d="M3528 1653.5C3528 1641.07 3537.85 1631 3550 1631 3562.15 1631 3572 1641.07 3572 1653.5 3572 1665.93 3562.15 1676 3550 1676 3537.85 1676 3528 1665.93 3528 1653.5Z" fill-rule="evenodd"/><path d="M3514.5 1653.5C3514.5 1635.27 3529.27 1620.5 3547.5 1620.5 3565.73 1620.5 3580.5 1635.27 3580.5 1653.5 3580.5 1671.73 3565.73 1686.5 3547.5 1686.5 3529.27 1686.5 3514.5 1671.73 3514.5 1653.5Z" stroke="#000000" stroke-width="3.4375" stroke-linejoin="round" stroke-miterlimit="10" fill="none" fill-rule="evenodd"/><path d="M3311 1651.85 3492.05 1651.85 3492.05 1654.15 3311 1654.15ZM3487.46 1639.25 3514.96 1653 3487.46 1666.75Z" fill="#0F6FC6"/><text font-family="Meiryo,Meiryo_MSFontService,sans-serif" font-weight="400" font-size="46" transform="matrix(1 0 0 1 639.519 1748)">エントリポイント</text><text font-family="Meiryo,Meiryo_MSFontService,sans-serif" font-weight="400" font-size="46" transform="matrix(1 0 0 1 708.269 1803)">（開始点）</text><text font-family="Meiryo,Meiryo_MSFontService,sans-serif" font-weight="400" font-size="46" transform="matrix(1 0 0 1 3503.43 1738)">終了</text><path d="M1915 1543.5 1915 1764.5M2392 1543.5 2392 1764.5" stroke="#0F6FC6" stroke-width="4.58333" stroke-linejoin="round" stroke-miterlimit="10" fill="none" fill-rule="evenodd"/><rect x="1835.5" y="1543.5" width="636" height="221" stroke="#0F6FC6" stroke-width="4.58333" stroke-linejoin="round" stroke-miterlimit="10" fill="none"/><text font-family="Meiryo,Meiryo_MSFontService,sans-serif" font-weight="400" font-size="55" transform="matrix(1 0 0 1 2051.4 1634)">処理</text><text font-family="Meiryo,Meiryo_MSFontService,sans-serif" font-weight="400" font-size="55" transform="matrix(1 0 0 1 2161.4 1634)">2</text><text font-family="Meiryo,Meiryo_MSFontService,sans-serif" font-weight="400" font-size="55" transform="matrix(1 0 0 1 2195.78 1634)">-</text><text font-family="Meiryo,Meiryo_MSFontService,sans-serif" font-weight="400" font-size="55" transform="matrix(1 0 0 1 2219.84 1634)">2</text><text font-family="Meiryo,Meiryo_MSFontService,sans-serif" font-weight="400" font-size="55" transform="matrix(1 0 0 1 2015.31 1700)">（タスク）</text><path d="M1915 1855.5 1915 2076.5M2392 1855.5 2392 2076.5" stroke="#0F6FC6" stroke-width="4.58333" stroke-linejoin="round" stroke-miterlimit="10" fill="none" fill-rule="evenodd"/><rect x="1835.5" y="1855.5" width="636" height="221" stroke="#0F6FC6" stroke-width="4.58333" stroke-linejoin="round" stroke-miterlimit="10" fill="none"/><text font-family="Meiryo,Meiryo_MSFontService,sans-serif" font-weight="400" font-size="55" transform="matrix(1 0 0 1 2051.4 1947)">処理</text><text font-family="Meiryo,Meiryo_MSFontService,sans-serif" font-weight="400" font-size="55" transform="matrix(1 0 0 1 2161.4 1947)">2</text><text font-family="Meiryo,Meiryo_MSFontService,sans-serif" font-weight="400" font-size="55" transform="matrix(1 0 0 1 2195.78 1947)">-</text><text font-family="Meiryo,Meiryo_MSFontService,sans-serif" font-weight="400" font-size="55" transform="matrix(1 0 0 1 2219.84 1947)">3</text><text font-family="Meiryo,Meiryo_MSFontService,sans-serif" font-weight="400" font-size="55" transform="matrix(1 0 0 1 2015.31 2013)">（タスク）</text><path d="M1893.39 1235.5 1916.85 1254.17 1903.79 1254.17C1895.58 1282.2 1870.63 1297.6 1846.97 1289.24 1861.29 1284.18 1872.71 1271.13 1877.69 1254.17L1864.63 1254.17Z" fill="#FFFFFF" fill-rule="evenodd"/><path d="M1833.92 1291.5C1808.28 1291.5 1787.5 1266.43 1787.5 1235.5L1813.61 1235.5C1813.61 1266.43 1834.39 1291.5 1860.03 1291.5Z" fill="#CDCDCD" fill-rule="evenodd"/><path d="M1846.97 1289.24C1861.29 1284.18 1872.71 1271.13 1877.69 1254.17L1864.63 1254.17 1893.39 1235.5 1916.85 1254.17 1903.79 1254.17C1897.24 1276.54 1879.7 1291.5 1860.03 1291.5L1833.92 1291.5C1808.28 1291.5 1787.5 1266.43 1787.5 1235.5L1813.61 1235.5C1813.61 1266.43 1834.39 1291.5 1860.03 1291.5" stroke="#0F6FC6" stroke-width="4.58333" stroke-linejoin="round" stroke-miterlimit="10" fill="none" fill-rule="evenodd"/><path d="M1793.61 1231.5 1770.15 1212.83 1783.21 1212.83C1791.42 1184.8 1816.37 1169.4 1840.03 1177.76 1825.71 1182.82 1814.29 1195.87 1809.31 1212.83L1822.37 1212.83Z" fill="#FFFFFF" fill-rule="evenodd"/><path d="M1853.08 1175.5C1878.72 1175.5 1899.5 1200.57 1899.5 1231.5L1873.39 1231.5C1873.39 1200.57 1852.61 1175.5 1826.97 1175.5Z" fill="#CDCDCD" fill-rule="evenodd"/><path d="M1840.03 1177.76C1825.71 1182.82 1814.29 1195.87 1809.31 1212.83L1822.37 1212.83 1793.61 1231.5 1770.15 1212.83 1783.21 1212.83C1789.77 1190.46 1807.3 1175.5 1826.97 1175.5L1853.08 1175.5C1878.72 1175.5 1899.5 1200.57 1899.5 1231.5L1873.39 1231.5C1873.39 1200.57 1852.61 1175.5 1826.97 1175.5" stroke="#0F6FC6" stroke-width="4.58333" stroke-linejoin="round" stroke-miterlimit="10" fill="none" fill-rule="evenodd"/><path d="M1699 1651.85 1811.56 1651.85 1811.56 1654.15 1699 1654.15ZM1806.98 1639.25 1834.48 1653 1806.98 1666.75Z" fill="#0F6FC6"/><path d="M1700.05 1652.54 1826.42 1944.03 1824.31 1944.94 1697.95 1653.46ZM1836.16 1934.81 1834.48 1965.51 1810.93 1945.75Z" fill="#0F6FC6"/><path d="M2471 1651.85 2651.76 1651.85 2651.76 1654.15 2471 1654.15ZM2647.18 1639.25 2674.68 1653 2647.18 1666.75Z" fill="#0F6FC6"/><path d="M0.95995-0.625643 192.123 292.684 190.204 293.936-0.95995 0.625643ZM200.18 281.962 203.676 312.509 177.141 296.978Z" fill="#0F6FC6" transform="matrix(1 0 0 -1 2471 1965.51)"/><path d="M1888.93 1541.5 1912.87 1560.5 1899.58 1560.5C1891.38 1589.19 1866.41 1604.85 1842.86 1596.08 1856.91 1590.84 1868.11 1577.63 1873.01 1560.5L1859.72 1560.5Z" fill="#FFFFFF" fill-rule="evenodd"/><path d="M1829.57 1598.5C1804.13 1598.5 1783.5 1572.98 1783.5 1541.5L1810.07 1541.5C1810.07 1572.98 1830.7 1598.5 1856.14 1598.5Z" fill="#CDCDCD" fill-rule="evenodd"/><path d="M1842.86 1596.08C1856.91 1590.84 1868.11 1577.63 1873.01 1560.5L1859.72 1560.5 1888.93 1541.5 1912.87 1560.5 1899.58 1560.5C1893.07 1583.27 1875.67 1598.5 1856.14 1598.5L1829.57 1598.5C1804.13 1598.5 1783.5 1572.98 1783.5 1541.5L1810.07 1541.5C1810.07 1572.98 1830.7 1598.5 1856.14 1598.5" stroke="#0F6FC6" stroke-width="4.58333" stroke-linejoin="round" stroke-miterlimit="10" fill="none" fill-rule="evenodd"/><path d="M1790.07 1538.5 1766.13 1519.5 1779.42 1519.5C1787.62 1490.81 1812.59 1475.15 1836.14 1483.92 1822.08 1489.16 1810.89 1502.37 1805.99 1519.5L1819.28 1519.5Z" fill="#FFFFFF" fill-rule="evenodd"/><path d="M1849.43 1481.5C1874.87 1481.5 1895.5 1507.02 1895.5 1538.5L1868.93 1538.5C1868.93 1507.02 1848.3 1481.5 1822.86 1481.5Z" fill="#CDCDCD" fill-rule="evenodd"/><path d="M1836.14 1483.92C1822.08 1489.16 1810.89 1502.37 1805.99 1519.5L1819.28 1519.5 1790.07 1538.5 1766.13 1519.5 1779.42 1519.5C1785.93 1496.73 1803.33 1481.5 1822.86 1481.5L1849.43 1481.5C1874.87 1481.5 1895.5 1507.02 1895.5 1538.5L1868.93 1538.5C1868.93 1507.02 1848.3 1481.5 1822.86 1481.5" stroke="#0F6FC6" stroke-width="4.58333" stroke-linejoin="round" stroke-miterlimit="10" fill="none" fill-rule="evenodd"/><path d="M1887.39 1857.5 1910.85 1876.17 1897.79 1876.17C1889.58 1904.2 1864.63 1919.6 1840.97 1911.24 1855.29 1906.18 1866.71 1893.13 1871.69 1876.17L1858.63 1876.17Z" fill="#FFFFFF" fill-rule="evenodd"/><path d="M1827.92 1913.5C1802.28 1913.5 1781.5 1888.43 1781.5 1857.5L1807.61 1857.5C1807.61 1888.43 1828.39 1913.5 1854.03 1913.5Z" fill="#CDCDCD" fill-rule="evenodd"/><path d="M1840.97 1911.24C1855.29 1906.18 1866.71 1893.13 1871.69 1876.17L1858.63 1876.17 1887.39 1857.5 1910.85 1876.17 1897.79 1876.17C1891.24 1898.54 1873.7 1913.5 1854.03 1913.5L1827.92 1913.5C1802.28 1913.5 1781.5 1888.43 1781.5 1857.5L1807.61 1857.5C1807.61 1888.43 1828.39 1913.5 1854.03 1913.5" stroke="#0F6FC6" stroke-width="4.58333" stroke-linejoin="round" stroke-miterlimit="10" fill="none" fill-rule="evenodd"/><path d="M1787.61 1853.5 1764.15 1834.83 1777.21 1834.83C1785.42 1806.8 1810.37 1791.4 1834.03 1799.76 1819.71 1804.82 1808.29 1817.87 1803.31 1834.83L1816.37 1834.83Z" fill="#FFFFFF" fill-rule="evenodd"/><path d="M1847.08 1797.5C1872.72 1797.5 1893.5 1822.57 1893.5 1853.5L1867.39 1853.5C1867.39 1822.57 1846.61 1797.5 1820.97 1797.5Z" fill="#CDCDCD" fill-rule="evenodd"/><path d="M1834.03 1799.76C1819.71 1804.82 1808.29 1817.87 1803.31 1834.83L1816.37 1834.83 1787.61 1853.5 1764.15 1834.83 1777.21 1834.83C1783.76 1812.46 1801.3 1797.5 1820.97 1797.5L1847.08 1797.5C1872.72 1797.5 1893.5 1822.57 1893.5 1853.5L1867.39 1853.5C1867.39 1822.57 1846.61 1797.5 1820.97 1797.5" stroke="#0F6FC6" stroke-width="4.58333" stroke-linejoin="round" stroke-miterlimit="10" fill="none" fill-rule="evenodd"/></g></svg>