<svg width="1756" height="1026" xmlns="http://www.w3.org/2000/svg" xmlns:xlink="http://www.w3.org/1999/xlink" xml:space="preserve" overflow="hidden"><g transform="translate(-1827 -1217)"><path d="M1.14583-4.26226e-07 1.14619 947.278-1.14548 947.278-1.14583 4.26226e-07ZM13.7504 942.695 0.000360892 970.195-13.7496 942.695Z" fill="#0F6FC6" transform="matrix(1 0 0 -1 2094 2215.2)"/><path d="M2094 2213.85 3467.69 2213.85 3467.69 2216.15 2094 2216.15ZM3463.11 2201.25 3490.61 2215 3463.11 2228.75Z" fill="#0F6FC6"/><path d="M2097 1946 3490.66 1946" stroke="#0F6FC6" stroke-width="2.29167" stroke-linejoin="round" stroke-miterlimit="10" stroke-dasharray="9.16667 6.875" fill="none" fill-rule="evenodd"/><path d="M2097.5 2026.79 2132.85 2006.15 2162.3 2014.99 2194.7 1988.46 2224.16 2026.79 2241.83 1950.12 2321.36 1953.07 2397.94 1755.52 2403.84 2044.48 2433.29 2012.04 2459.8 2029.74 2480.42 1950.12 2601.19 1953.07 2615.91 1894.1 2624.75 1911.79 2657.15 1767.32 2683.66 1817.44 2686.61 1699.5 2769.08 2026.79 2833.88 1882.31 2860.39 2009.1 2895.74 1953.07 3045.96 1950.12 3066.58 2017.94 3084.25 1976.66 3096.04 2026.79 3152 1823.34 3258.04 2100.5 3284.55 2047.43 3331.68 2076.91 3369.97 1950.12 3449.5 1953.07" stroke="#10CF9B" stroke-width="4.58333" stroke-linejoin="round" stroke-miterlimit="10" fill="none" fill-rule="evenodd"/><text font-family="Meiryo,Meiryo_MSFontService,sans-serif" font-weight="400" font-size="83" transform="matrix(1 0 0 1 1877.02 1968)">25%</text><text font-family="Yu Gothic UI,Yu Gothic UI_MSFontService,sans-serif" font-weight="400" font-size="55" transform="matrix(1 0 0 1 2154.92 1308)">ひとつのスレッドがフルスピンしている時、</text><text font-family="Yu Gothic UI,Yu Gothic UI_MSFontService,sans-serif" font-weight="400" font-size="55" transform="matrix(1 0 0 1 3007.42 1308)">CPU </text><text font-family="Yu Gothic UI,Yu Gothic UI_MSFontService,sans-serif" font-weight="400" font-size="55" transform="matrix(1 0 0 1 3124.87 1308)">の消費量のグラフを</text><text font-family="Yu Gothic UI,Yu Gothic UI_MSFontService,sans-serif" font-weight="400" font-size="55" transform="matrix(1 0 0 1 2154.92 1374)">描くと、以下のようにグラフに、はっきり横線が見える場合がある。</text></g></svg>