<svg width="2871" height="1155" xmlns="http://www.w3.org/2000/svg" xmlns:xlink="http://www.w3.org/1999/xlink" xml:space="preserve" overflow="hidden"><defs><linearGradient x1="230.87" y1="391.068" x2="230.87" y2="308.978" gradientUnits="userSpaceOnUse" spreadMethod="reflect" id="fill0"><stop offset="0" stop-color="#0A4A85"/><stop offset="0.48" stop-color="#1074CE"/><stop offset="1" stop-color="#59AAF2"/></linearGradient><linearGradient x1="230.87" y1="318.334" x2="230.87" y2="242.583" gradientUnits="userSpaceOnUse" spreadMethod="reflect" id="fill1"><stop offset="0" stop-color="#0A4A85"/><stop offset="0.48" stop-color="#1074CE"/><stop offset="1" stop-color="#59AAF2"/></linearGradient></defs><g transform="translate(-290 -405)"><rect x="1327.5" y="542.5" width="1831" height="1015" stroke="#000000" stroke-width="4.58333" stroke-linejoin="round" stroke-miterlimit="10" fill="none"/><rect x="1581.5" y="927.5" width="639" height="165" fill="#FFFFFF"/><path d="M1661.38 927.5 1661.38 1092.5M2140.63 927.5 2140.63 1092.5" stroke="#000000" stroke-width="4.58333" stroke-linejoin="round" stroke-miterlimit="10" fill="none" fill-rule="evenodd"/><rect x="1581.5" y="927.5" width="639" height="165" stroke="#000000" stroke-width="4.58333" stroke-linejoin="round" stroke-miterlimit="10" fill="none"/><text font-family="Meiryo UI,Meiryo UI_MSFontService,sans-serif" font-weight="400" font-size="46" transform="matrix(1 0 0 1 1674.42 1028)">イベントを待機・受信する</text><rect x="1581.5" y="1215.5" width="639" height="165" fill="#FFFFFF"/><path d="M1661.38 1215.5 1661.38 1380.5M2140.63 1215.5 2140.63 1380.5" stroke="#000000" stroke-width="4.58333" stroke-linejoin="round" stroke-miterlimit="10" fill="none" fill-rule="evenodd"/><rect x="1581.5" y="1215.5" width="639" height="165" stroke="#000000" stroke-width="4.58333" stroke-linejoin="round" stroke-miterlimit="10" fill="none"/><text font-family="Meiryo UI,Meiryo UI_MSFontService,sans-serif" font-weight="400" font-size="46" transform="matrix(1 0 0 1 1731.71 1288)">イベントを処理する</text><text font-family="Meiryo UI,Meiryo UI_MSFontService,sans-serif" font-weight="400" font-size="46" transform="matrix(1 0 0 1 1672.13 1343)">（イベントハンドラ呼出）</text><g><g><g><path d="M114.888 59.9691C119.938 59.9691 124.041 64.0722 124.041 69.1223L124.041 87.4286C124.041 92.4786 119.938 96.5818 114.888 96.5818L114.888 109.522 152.132 109.522 152.132 87.4286C152.132 67.2285 142.979 46.3971 114.888 46.3971Z" fill="#0F6FC6" transform="matrix(1.00028 0 0 1 427.083 487.075)"/><path d="M105.419 69.1223 105.419 87.4286C105.419 89.9536 107.629 91.8474 110.154 91.8474L114.888 91.8474 114.888 91.8474 114.888 91.8474C117.413 91.8474 119.623 89.638 119.623 87.4286L119.623 69.1223C119.623 66.5972 117.413 64.7035 114.888 64.7035L110.154 64.7035C107.629 64.3879 105.419 66.5972 105.419 69.1223Z" fill="#0F6FC6" transform="matrix(1.00028 0 0 1 427.083 487.075)"/><path d="M72.9098 115.519 72.9098 142.032C72.9098 162.548 86.7974 178.645 110.154 178.645L114.888 178.645C138.245 178.645 152.132 162.548 152.132 142.032L152.132 115.519Z" fill="#0F6FC6" transform="matrix(1.00028 0 0 1 427.083 487.075)"/><path d="M110.154 109.207 110.154 96.2662C105.104 96.2662 101.001 92.163 101.001 87.113L101.001 68.8066C101.001 63.7566 105.104 59.6535 110.154 59.6535L110.154 46.0815C82.3786 46.0815 72.9098 66.5972 72.9098 87.113L72.9098 109.207Z" fill="#0F6FC6" transform="matrix(1.00028 0 0 1 427.083 487.075)"/></g></g></g><g><g><g><path d="M235.901 73.3626 84.5247 73.3626C80.3592 73.3626 76.8811 76.8407 76.8811 81.3298L76.8811 166.016C76.8811 170.546 80.3592 173.983 84.5247 173.983L235.86 173.983C240.026 173.983 243.504 170.505 243.504 166.016L243.504 81.3702C243.504 76.8407 240.066 73.3626 235.901 73.3626ZM229.996 160.152 90.4293 160.152 90.4293 87.2748 229.996 87.2748Z" fill="#0F6FC6" transform="matrix(1.00135 0 0 1 378.23 633.487)"/><path d="M115.099 94.1905 101.187 94.1905 101.187 108.103 115.099 108.103Z" fill="#0F6FC6" transform="matrix(1.00135 0 0 1 378.23 633.487)"/><path d="M135.927 94.1905 122.015 94.1905 122.015 108.103 135.927 108.103Z" fill="#0F6FC6" transform="matrix(1.00135 0 0 1 378.23 633.487)"/><path d="M156.755 94.1905 142.843 94.1905 142.843 108.103 156.755 108.103Z" fill="#0F6FC6" transform="matrix(1.00135 0 0 1 378.23 633.487)"/><path d="M177.583 94.1905 163.671 94.1905 163.671 108.103 177.583 108.103Z" fill="#0F6FC6" transform="matrix(1.00135 0 0 1 378.23 633.487)"/><path d="M198.411 94.1905 184.499 94.1905 184.499 108.103 198.411 108.103Z" fill="#0F6FC6" transform="matrix(1.00135 0 0 1 378.23 633.487)"/><path d="M219.239 94.1905 205.326 94.1905 205.326 108.103 219.239 108.103Z" fill="#0F6FC6" transform="matrix(1.00135 0 0 1 378.23 633.487)"/><path d="M115.099 115.018 101.187 115.018 101.187 128.931 115.099 128.931Z" fill="#0F6FC6" transform="matrix(1.00135 0 0 1 378.23 633.487)"/><path d="M135.927 115.018 122.015 115.018 122.015 128.931 135.927 128.931Z" fill="#0F6FC6" transform="matrix(1.00135 0 0 1 378.23 633.487)"/><path d="M156.755 115.018 142.843 115.018 142.843 128.931 156.755 128.931Z" fill="#0F6FC6" transform="matrix(1.00135 0 0 1 378.23 633.487)"/><path d="M177.583 115.018 163.671 115.018 163.671 128.931 177.583 128.931Z" fill="#0F6FC6" transform="matrix(1.00135 0 0 1 378.23 633.487)"/><path d="M198.411 115.018 184.499 115.018 184.499 128.931 198.411 128.931Z" fill="#0F6FC6" transform="matrix(1.00135 0 0 1 378.23 633.487)"/><path d="M219.239 115.018 205.326 115.018 205.326 128.931 219.239 128.931Z" fill="#0F6FC6" transform="matrix(1.00135 0 0 1 378.23 633.487)"/><path d="M122.015 135.846 101.187 135.846 101.187 153.236 122.015 153.236Z" fill="#0F6FC6" transform="matrix(1.00135 0 0 1 378.23 633.487)"/><path d="M219.239 135.846 198.411 135.846 198.411 153.236 219.239 153.236Z" fill="#0F6FC6" transform="matrix(1.00135 0 0 1 378.23 633.487)"/><path d="M191.455 135.846 128.971 135.846 128.971 153.236 191.455 153.236Z" fill="#0F6FC6" transform="matrix(1.00135 0 0 1 378.23 633.487)"/></g></g></g><path d="M1662 616C1662 629.255 1657.63 640 1652.24 640L1505.76 640C1500.37 640 1496 629.255 1496 616" stroke="#000000" stroke-width="2.29167" stroke-linejoin="round" stroke-miterlimit="10" fill="none" fill-rule="evenodd"/><path d="M1496 731C1496 717.745 1499.97 707 1504.86 707L1653.14 707C1658.03 707 1662 717.745 1662 731" stroke="#000000" stroke-width="2.29167" stroke-linejoin="round" stroke-miterlimit="10" fill="none" fill-rule="evenodd"/><path d="M1523.5 701C1508.31 701 1496 688.464 1496 673 1496 657.536 1508.31 645 1523.5 645 1538.69 645 1551 657.536 1551 673 1551 688.464 1538.69 701 1523.5 701Z" fill="#0F6FC6" fill-rule="evenodd"/><path d="M1579 701C1563.54 701 1551 688.464 1551 673 1551 657.536 1563.54 645 1579 645 1594.46 645 1607 657.536 1607 673 1607 688.464 1594.46 701 1579 701Z" fill="#0F6FC6" fill-rule="evenodd"/><path d="M1634.5 701C1619.31 701 1607 688.464 1607 673 1607 657.536 1619.31 645 1634.5 645 1649.69 645 1662 657.536 1662 673 1662 688.464 1649.69 701 1634.5 701Z" fill="#0F6FC6" fill-rule="evenodd"/><path d="M0-2.29167 13.75-2.29167 13.75 2.29167 0 2.29167ZM18.3333-2.29167 32.0833-2.29167 32.0833 2.29167 18.3333 2.29167ZM36.6667-2.29167 50.4167-2.29167 50.4167 2.29167 36.6667 2.29167ZM55-2.29167 68.75-2.29167 68.75 2.29167 55 2.29167ZM73.3333-2.29167 87.0833-2.29167 87.0833 2.29167 73.3333 2.29167ZM91.6667-2.29167 105.417-2.29167 105.417 2.29167 91.6667 2.29167ZM110-2.29167 123.75-2.29167 123.75 2.29167 110 2.29167ZM128.333-2.29167 142.083-2.29167 142.083 2.29167 128.333 2.29167ZM146.667-2.29167 160.417-2.29167 160.417 2.29167 146.667 2.29167ZM165-2.29167 178.75-2.29167 178.75 2.29167 165 2.29167ZM183.333-2.29167 197.083-2.29167 197.083 2.29167 183.333 2.29167ZM201.667-2.29167 215.417-2.29167 215.417 2.29167 201.667 2.29167ZM220-2.29167 233.75-2.29167 233.75 2.29167 220 2.29167ZM238.333-2.29167 252.083-2.29167 252.083 2.29167 238.333 2.29167ZM255.97 2.98855 255.97 16.7386 251.386 16.7386 251.386 2.98855ZM255.97 21.3219 255.97 35.0719 251.386 35.0719 251.386 21.3219ZM255.97 39.6552 255.97 53.4052 251.386 53.4052 251.386 39.6552ZM255.97 57.9885 255.97 71.7385 251.386 71.7385 251.386 57.9885ZM255.97 76.3219 255.97 90.0719 251.386 90.0719 251.386 76.3219ZM255.97 94.6552 255.97 108.405 251.386 108.405 251.386 94.6552ZM255.97 112.989 255.97 126.739 251.386 126.739 251.386 112.989ZM255.97 131.322 255.97 145.072 251.386 145.072 251.386 131.322ZM255.97 149.655 255.97 163.405 251.386 163.405 251.386 149.655ZM255.97 167.989 255.97 181.739 251.386 181.739 251.386 167.989ZM255.97 186.322 255.97 200.072 251.386 200.072 251.386 186.322ZM255.97 204.655 255.97 218.405 251.386 218.405 251.386 204.655ZM253.678 219.888 267.428 210.722 253.678 238.222 239.928 210.722Z" fill="#0F6FC6" transform="matrix(-1.83697e-16 -1 -1 1.83697e-16 1900.72 927.178)"/><path d="M589.007 599.265 602.416 602.307 601.402 606.777 587.993 603.735ZM606.886 603.321 620.295 606.363 619.281 610.833 605.872 607.791ZM624.765 607.377 638.174 610.419 637.16 614.889 623.751 611.847ZM642.644 611.433 656.053 614.475 655.04 618.944 641.63 615.902ZM660.523 615.489 673.933 618.53 672.919 623 659.509 619.958ZM678.402 619.544 691.812 622.586 690.798 627.056 677.388 624.014ZM696.281 623.6 709.691 626.642 708.677 631.112 695.267 628.07ZM714.16 627.656 727.57 630.698 726.556 635.168 713.146 632.126ZM732.04 631.712 745.449 634.754 744.435 639.224 731.026 636.182ZM749.919 635.768 763.328 638.81 762.314 643.279 748.905 640.238ZM767.798 639.824 781.207 642.866 780.193 647.335 766.784 644.293ZM785.677 643.88 799.086 646.921 798.072 651.391 784.663 648.349ZM803.556 647.935 816.965 650.977 815.951 655.447 802.542 652.405ZM821.435 651.991 834.844 655.033 833.83 659.503 820.421 656.461ZM839.314 656.047 852.723 659.089 851.709 663.559 838.3 660.517ZM857.193 660.103 870.602 663.145 869.588 667.615 856.179 664.573ZM875.072 664.159 888.481 667.201 887.467 671.67 874.058 668.629ZM890.419 669.99 884.521 654.553 908.298 674.046 878.437 681.371Z" fill="#0F6FC6"/><path d="M0.644122-2.19928 13.8398 1.66545 12.5516 6.06402-0.644122 2.19928ZM18.2384 2.9537 31.4341 6.81843 30.1458 11.217 16.9501 7.35226ZM35.8326 8.10668 49.0283 11.9714 47.7401 16.37 34.5444 12.5052ZM53.4269 13.2597 66.6226 17.1244 65.3344 21.523 52.1387 17.6582ZM71.0211 18.4126 84.2169 22.2774 82.9286 26.6759 69.7329 22.8112ZM88.6154 23.5656 101.811 27.4304 100.523 31.8289 87.3272 27.9642ZM106.21 28.7186 119.405 32.5833 118.117 36.9819 104.921 33.1172ZM123.804 33.8716 137 37.7363 135.711 42.1349 122.516 38.2701ZM141.398 39.0246 154.594 42.8893 153.306 47.2878 140.11 43.4231ZM158.992 44.1775 172.188 48.0423 170.9 52.4408 157.704 48.5761ZM176.587 49.3305 189.782 53.1952 188.494 57.5938 175.298 53.7291ZM194.181 54.4835 207.377 58.3482 206.088 62.7468 192.893 58.8821ZM211.775 59.6365 224.971 63.5012 223.683 67.8998 210.487 64.035ZM229.369 64.7895 242.565 68.6542 241.277 73.0527 228.081 69.188ZM246.964 69.9424 260.159 73.8072 258.871 78.2057 245.675 74.341ZM264.558 75.0954 268.013 76.1072 266.724 80.5058 263.27 79.494ZM267.368 78.3063 262.435 62.5341 284.962 83.4593 254.706 88.9255Z" fill="#0F6FC6" transform="matrix(1 0 0 -1 623.5 756.959)"/><path d="M1143.5 671.208 1157.25 671.208 1157.25 675.792 1143.5 675.792ZM1161.83 671.208 1175.58 671.208 1175.58 675.792 1161.83 675.792ZM1180.17 671.208 1193.92 671.208 1193.92 675.792 1180.17 675.792ZM1198.5 671.208 1212.25 671.208 1212.25 675.792 1198.5 675.792ZM1216.83 671.208 1230.58 671.208 1230.58 675.792 1216.83 675.792ZM1235.17 671.208 1248.92 671.208 1248.92 675.792 1235.17 675.792ZM1253.5 671.208 1267.25 671.208 1267.25 675.792 1253.5 675.792ZM1271.83 671.208 1285.58 671.208 1285.58 675.792 1271.83 675.792ZM1290.17 671.208 1303.92 671.208 1303.92 675.792 1290.17 675.792ZM1308.5 671.208 1322.25 671.208 1322.25 675.792 1308.5 675.792ZM1326.83 671.208 1340.58 671.208 1340.58 675.792 1326.83 675.792ZM1345.17 671.208 1358.92 671.208 1358.92 675.792 1345.17 675.792ZM1363.5 671.208 1377.25 671.208 1377.25 675.792 1363.5 675.792ZM1381.83 671.208 1395.58 671.208 1395.58 675.792 1381.83 675.792ZM1400.17 671.208 1413.92 671.208 1413.92 675.792 1400.17 675.792ZM1418.5 671.208 1432.25 671.208 1432.25 675.792 1418.5 675.792ZM1436.83 671.208 1450.58 671.208 1450.58 675.792 1436.83 675.792ZM1455.17 671.209 1468.92 671.209 1468.92 675.792 1455.17 675.792ZM1473.5 671.209 1478.18 671.209 1478.18 675.792 1473.5 675.792ZM1478.18 673.5 1469.02 659.75 1496.52 673.5 1469.02 687.25Z" fill="#0F6FC6"/><g><g><g><path d="M285.8 391.068C292.351 391.068 297.657 385.693 297.657 379.059 297.74 378.591 297.74 378.115 297.657 377.65 292.91 339.795 271.746 308.978 230.87 308.978 190.003 308.978 168.259 335.072 164.093 377.734 163.378 384.374 168.124 390.338 174.675 391.056 174.716 391.062 174.758 391.065 174.799 391.068L285.8 391.068Z" fill="url(#fill0)" fill-rule="evenodd" transform="matrix(1 0 0 1.00142 126.122 355.309)"/><path d="M231.187 318.304C223.959 318.301 216.877 316.215 210.8 312.298L231.187 365.113 251.242 312.63C245.238 316.393 238.28 318.361 231.187 318.304Z" fill="#FFFFFF" fill-rule="evenodd" fill-opacity="0.8" transform="matrix(1 0 0 1.00142 126.122 355.309)"/><path d="M268.746 280.459C268.746 301.378 251.79 318.334 230.87 318.334 209.95 318.334 192.994 301.378 192.994 280.459 192.994 259.541 209.95 242.583 230.87 242.583 251.79 242.583 268.746 259.541 268.746 280.459Z" fill="url(#fill1)" fill-rule="evenodd" transform="matrix(1 0 0 1.00142 126.122 355.309)"/></g></g></g><rect x="1429.5" y="858.5" width="887" height="585" stroke="#022B52" stroke-width="4.58333" stroke-linejoin="round" stroke-miterlimit="10" stroke-dasharray="4.58333 4.58333" fill="none"/><g><g><g><path d="M93.8842 81.6939 93.8842 207.424 280.424 207.424 280.424 81.6939ZM271.116 197.265 100.783 197.265 100.783 108.012 271.116 108.012Z" fill="#0F6FC6" transform="matrix(1.00747 0 0 1 1313.45 324.251)"/><path d="M173.783 181.012 173.783 124.265 117.036 124.265 117.036 181.012Z" fill="#0F6FC6" transform="matrix(1.00747 0 0 1 1313.45 324.251)"/><path d="M254.909 181.012 254.909 172.932 194.053 172.932 194.053 181.012Z" fill="#0F6FC6" transform="matrix(1.00747 0 0 1 1313.45 324.251)"/><path d="M254.909 164.805 254.909 156.678 194.053 156.678 194.053 164.805Z" fill="#0F6FC6" transform="matrix(1.00747 0 0 1 1313.45 324.251)"/><path d="M254.909 148.599 254.909 140.472 194.053 140.472 194.053 148.599Z" fill="#0F6FC6" transform="matrix(1.00747 0 0 1 1313.45 324.251)"/><path d="M254.909 132.345 254.909 124.265 194.053 124.265 194.053 132.345Z" fill="#0F6FC6" transform="matrix(1.00747 0 0 1 1313.45 324.251)"/></g></g></g><text font-family="Meiryo UI,Meiryo UI_MSFontService,sans-serif" font-weight="400" font-size="46" transform="matrix(1 0 0 1 1594.05 1183)">メッセージループ</text><text font-family="Meiryo UI,Meiryo UI_MSFontService,sans-serif" font-weight="400" font-size="46" transform="matrix(1 0 0 1 1611.91 512)">対話型アプリケーション</text><rect x="2421.5" y="831.5" width="638" height="165" fill="#FFFFFF"/><path d="M2501.25 831.5 2501.25 996.5M2979.75 831.5 2979.75 996.5" stroke="#000000" stroke-width="4.58333" stroke-linejoin="round" stroke-miterlimit="10" fill="none" fill-rule="evenodd"/><rect x="2421.5" y="831.5" width="638" height="165" stroke="#000000" stroke-width="4.58333" stroke-linejoin="round" stroke-miterlimit="10" fill="none"/><text font-family="Meiryo UI,Meiryo UI_MSFontService,sans-serif" font-weight="400" font-size="46" transform="matrix(1 0 0 1 2630.1 904)">ボタンクリック</text><text font-family="Meiryo UI,Meiryo UI_MSFontService,sans-serif" font-weight="400" font-size="46" transform="matrix(1 0 0 1 2557.34 959)">（イベントハンドラ）</text><rect x="2422.5" y="1032.5" width="639" height="164" fill="#FFFFFF"/><path d="M2502.38 1032.5 2502.38 1196.5M2981.62 1032.5 2981.62 1196.5" stroke="#000000" stroke-width="4.58333" stroke-linejoin="round" stroke-miterlimit="10" fill="none" fill-rule="evenodd"/><rect x="2422.5" y="1032.5" width="639" height="164" stroke="#000000" stroke-width="4.58333" stroke-linejoin="round" stroke-miterlimit="10" fill="none"/><text font-family="Meiryo UI,Meiryo UI_MSFontService,sans-serif" font-weight="400" font-size="46" transform="matrix(1 0 0 1 2603.55 1105)">テキストチェンジ</text><text font-family="Meiryo UI,Meiryo UI_MSFontService,sans-serif" font-weight="400" font-size="46" transform="matrix(1 0 0 1 2559.16 1160)">（イベントハンドラ）</text><path d="M2489.5 1249.5C2489.5 1243.42 2494.65 1238.5 2501 1238.5 2507.35 1238.5 2512.5 1243.42 2512.5 1249.5 2512.5 1255.58 2507.35 1260.5 2501 1260.5 2494.65 1260.5 2489.5 1255.58 2489.5 1249.5Z" stroke="#000000" stroke-width="4.58333" stroke-linejoin="round" stroke-miterlimit="10" fill-rule="evenodd"/><path d="M2489.5 1304.5C2489.5 1298.42 2494.65 1293.5 2501 1293.5 2507.35 1293.5 2512.5 1298.42 2512.5 1304.5 2512.5 1310.58 2507.35 1315.5 2501 1315.5 2494.65 1315.5 2489.5 1310.58 2489.5 1304.5Z" stroke="#000000" stroke-width="4.58333" stroke-linejoin="round" stroke-miterlimit="10" fill-rule="evenodd"/><path d="M2489.5 1358C2489.5 1351.65 2494.65 1346.5 2501 1346.5 2507.35 1346.5 2512.5 1351.65 2512.5 1358 2512.5 1364.35 2507.35 1369.5 2501 1369.5 2494.65 1369.5 2489.5 1364.35 2489.5 1358Z" stroke="#000000" stroke-width="4.58333" stroke-linejoin="round" stroke-miterlimit="10" fill-rule="evenodd"/><path d="M1.01527-0.531183 191.295 363.159 189.265 364.221-1.01527 0.531183ZM200.339 353.255 200.904 383.996 175.972 366.004Z" transform="matrix(1 0 0 -1 2220 1297)"/><path d="M0.76851-0.849898 186.486 167.083 184.949 168.783-0.76851 0.849898ZM191.54 154.66 202.715 183.303 173.096 175.058Z" transform="matrix(1 0 0 -1 2220 1297.3)"/><g><g><g><path d="M416.045 142.319 211.273 142.319C204.54 142.319 198.504 147.814 198.504 155.088L198.504 300.194C198.504 306.926 203.998 313.582 211.273 313.582L281.388 313.582C288.74 340.436 285.644 342.835 241.145 342.835L241.145 356.223 387.411 356.223 387.411 342.835C342.912 342.835 336.799 340.359 344.151 313.582L416.045 313.582C422.778 313.582 430.053 307.468 430.053 301.354L430.053 155.088C430.13 147.814 422.778 142.319 416.045 142.319ZM411.789 294.699 215.529 294.699 216.768 159.964 411.789 160.583Z" fill="#0F6FC6" transform="matrix(1.00075 0 0 1 710.987 424.229)"/><path d="M347.169 201.445 347.169 200.903 311.26 180.163 275.893 200.903 275.893 201.445 311.26 222.185Z" fill="#0F6FC6" transform="matrix(1.00075 0 0 1 710.987 424.229)"/><path d="M314.278 270.94 350.884 250.277 350.884 209.416 314.278 230.156Z" fill="#0F6FC6" transform="matrix(1.00075 0 0 1 710.987 424.229)"/><path d="M271.637 209.416 271.637 250.277 308.165 270.94 308.165 230.156Z" fill="#0F6FC6" transform="matrix(1.00075 0 0 1 710.987 424.229)"/></g></g></g><path d="M1901.15 1092 1901.15 1192.35 1898.85 1192.35 1898.85 1092ZM1913.75 1187.77 1900 1215.27 1886.25 1187.77Z"/><text fill="#0C9B74" font-family="Meiryo UI,Meiryo UI_MSFontService,sans-serif" font-weight="700" font-size="73" transform="matrix(1 0 0 1 423.132 553)">①</text><text fill="#0C9B74" font-family="Meiryo UI,Meiryo UI_MSFontService,sans-serif" font-weight="700" font-size="73" transform="matrix(1 0 0 1 988.677 559)">②</text><text fill="#0C9B74" font-family="Meiryo UI,Meiryo UI_MSFontService,sans-serif" font-weight="700" font-size="73" transform="matrix(1 0 0 1 1537.14 629)">③</text><text fill="#0C9B74" font-family="Meiryo UI,Meiryo UI_MSFontService,sans-serif" font-weight="700" font-size="73" transform="matrix(1 0 0 1 1420.81 1092)">④</text><text fill="#0C9B74" font-family="Meiryo UI,Meiryo UI_MSFontService,sans-serif" font-weight="700" font-size="73" transform="matrix(1 0 0 1 2691.85 806)">⑤</text><path d="M1711.77 1199.19C1686.81 1257.05 1619.67 1283.72 1561.81 1258.77 1503.95 1233.81 1477.28 1166.67 1502.23 1108.81 1527.19 1050.95 1594.33 1024.28 1652.19 1049.23 1675 1059.07 1693.97 1076.08 1706.23 1097.68L1730.35 1092.2 1705.34 1131.63 1654.98 1109.34 1678.88 1103.91C1651.21 1064.21 1596.6 1054.45 1556.91 1082.12 1517.21 1109.79 1507.45 1164.4 1535.12 1204.09 1562.79 1243.79 1617.4 1253.55 1657.09 1225.88 1670.48 1216.55 1680.99 1203.68 1687.45 1188.7Z" stroke="#0F6FC6" stroke-width="4.58333" stroke-linejoin="round" stroke-miterlimit="10" fill="#91C6F7" fill-rule="evenodd"/><path d="M1585.58 1298.16 1503.08 1298.16C1502.45 1298.16 1501.94 1297.65 1501.94 1297.01L1501.94 1009C1501.94 1008.37 1502.45 1007.85 1503.08 1007.85L1558.08 1007.85 1558.08 1010.15 1503.08 1010.15 1504.23 1009 1504.23 1297.01 1503.08 1295.87 1585.58 1295.87ZM1553.5 995.25 1581 1009 1553.5 1022.75Z"/></g></svg>