<svg width="2369" height="1020" xmlns="http://www.w3.org/2000/svg" xmlns:xlink="http://www.w3.org/1999/xlink" xml:space="preserve" overflow="hidden"><defs><clipPath id="clip0"><rect x="541" y="540" width="2369" height="1020"/></clipPath><clipPath id="clip1"><rect x="2644" y="818" width="266" height="191"/></clipPath><clipPath id="clip2"><rect x="2644" y="818" width="266" height="191"/></clipPath><clipPath id="clip3"><rect x="2644" y="818" width="266" height="191"/></clipPath></defs><g clip-path="url(#clip0)" transform="translate(-541 -540)"><rect x="797.5" y="927.5" width="639" height="165" fill="#FFFFFF"/><path d="M877.375 927.5 877.375 1092.5M1356.62 927.5 1356.62 1092.5" stroke="#000000" stroke-width="4.58333" stroke-linejoin="round" stroke-miterlimit="10" fill="none" fill-rule="evenodd"/><rect x="797.5" y="927.5" width="639" height="165" stroke="#000000" stroke-width="4.58333" stroke-linejoin="round" stroke-miterlimit="10" fill="none"/><text font-family="Meiryo UI,Meiryo UI_MSFontService,sans-serif" font-weight="400" font-size="46" transform="matrix(1 0 0 1 890.379 1028)">イベントを待機・受信する</text><rect x="797.5" y="1215.5" width="639" height="165" fill="#FFFFFF"/><path d="M877.375 1215.5 877.375 1380.5M1356.62 1215.5 1356.62 1380.5" stroke="#000000" stroke-width="4.58333" stroke-linejoin="round" stroke-miterlimit="10" fill="none" fill-rule="evenodd"/><rect x="797.5" y="1215.5" width="639" height="165" stroke="#000000" stroke-width="4.58333" stroke-linejoin="round" stroke-miterlimit="10" fill="none"/><text font-family="Meiryo UI,Meiryo UI_MSFontService,sans-serif" font-weight="400" font-size="46" transform="matrix(1 0 0 1 947.67 1288)">イベントを処理する</text><text font-family="Meiryo UI,Meiryo UI_MSFontService,sans-serif" font-weight="400" font-size="46" transform="matrix(1 0 0 1 888.087 1343)">（イベントハンドラ呼出）</text><path d="M878 616C878 629.255 873.632 640 868.244 640L721.755 640C716.367 640 712 629.255 712 616" stroke="#000000" stroke-width="2.29167" stroke-linejoin="round" stroke-miterlimit="10" fill="none" fill-rule="evenodd"/><path d="M712 731C712 717.745 715.967 707 720.86 707L869.139 707C874.033 707 878 717.745 878 731" stroke="#000000" stroke-width="2.29167" stroke-linejoin="round" stroke-miterlimit="10" fill="none" fill-rule="evenodd"/><path d="M739.5 701C724.312 701 712 688.464 712 673 712 657.536 724.312 645 739.5 645 754.688 645 767 657.536 767 673 767 688.464 754.688 701 739.5 701Z" fill="#0F6FC6" fill-rule="evenodd"/><path d="M795 701C779.536 701 767 688.464 767 673 767 657.536 779.536 645 795 645 810.464 645 823 657.536 823 673 823 688.464 810.464 701 795 701Z" fill="#0F6FC6" fill-rule="evenodd"/><path d="M850.5 701C835.312 701 823 688.464 823 673 823 657.536 835.312 645 850.5 645 865.688 645 878 657.536 878 673 878 688.464 865.688 701 850.5 701Z" fill="#0F6FC6" fill-rule="evenodd"/><path d="M0-2.29167 13.75-2.29167 13.75 2.29167 0 2.29167ZM18.3333-2.29167 32.0833-2.29167 32.0833 2.29167 18.3333 2.29167ZM36.6667-2.29167 50.4167-2.29167 50.4167 2.29167 36.6667 2.29167ZM55-2.29167 68.75-2.29167 68.75 2.29167 55 2.29167ZM73.3333-2.29167 87.0833-2.29167 87.0833 2.29167 73.3333 2.29167ZM91.6667-2.29167 105.417-2.29167 105.417 2.29167 91.6667 2.29167ZM110-2.29167 123.75-2.29167 123.75 2.29167 110 2.29167ZM128.333-2.29167 142.083-2.29167 142.083 2.29167 128.333 2.29167ZM146.667-2.29167 160.417-2.29167 160.417 2.29167 146.667 2.29167ZM165-2.29167 178.75-2.29167 178.75 2.29167 165 2.29167ZM183.333-2.29167 197.083-2.29167 197.083 2.29167 183.333 2.29167ZM201.667-2.29167 215.417-2.29167 215.417 2.29167 201.667 2.29167ZM220-2.29167 233.75-2.29167 233.75 2.29167 220 2.29167ZM238.333-2.29167 252.083-2.29167 252.083 2.29167 238.333 2.29167ZM255.97 2.98855 255.97 16.7386 251.386 16.7386 251.386 2.98855ZM255.97 21.3219 255.97 35.0719 251.386 35.0719 251.386 21.3219ZM255.97 39.6552 255.97 53.4052 251.386 53.4052 251.386 39.6552ZM255.97 57.9885 255.97 71.7385 251.386 71.7385 251.386 57.9885ZM255.97 76.3219 255.97 90.0719 251.386 90.0719 251.386 76.3219ZM255.97 94.6552 255.97 108.405 251.386 108.405 251.386 94.6552ZM255.97 112.989 255.97 126.739 251.386 126.739 251.386 112.989ZM255.97 131.322 255.97 145.072 251.386 145.072 251.386 131.322ZM255.97 149.655 255.97 163.405 251.386 163.405 251.386 149.655ZM255.97 167.989 255.97 181.739 251.386 181.739 251.386 167.989ZM255.97 186.322 255.97 200.072 251.386 200.072 251.386 186.322ZM255.97 204.655 255.97 218.405 251.386 218.405 251.386 204.655ZM253.678 219.888 267.428 210.722 253.678 238.222 239.928 210.722Z" fill="#0F6FC6" transform="matrix(-1.83697e-16 -1 -1 1.83697e-16 1116.72 927.178)"/><rect x="645.5" y="858.5" width="887" height="585" stroke="#022B52" stroke-width="4.58333" stroke-linejoin="round" stroke-miterlimit="10" stroke-dasharray="4.58333 4.58333" fill="none"/><text font-family="Meiryo UI,Meiryo UI_MSFontService,sans-serif" font-weight="400" font-size="46" transform="matrix(1 0 0 1 810.012 1183)">メッセージループ</text><rect x="1637.5" y="831.5" width="638" height="165" fill="#FFFFFF"/><path d="M1717.25 831.5 1717.25 996.5M2195.75 831.5 2195.75 996.5" stroke="#000000" stroke-width="4.58333" stroke-linejoin="round" stroke-miterlimit="10" fill="none" fill-rule="evenodd"/><rect x="1637.5" y="831.5" width="638" height="165" stroke="#000000" stroke-width="4.58333" stroke-linejoin="round" stroke-miterlimit="10" fill="none"/><text font-family="Meiryo UI,Meiryo UI_MSFontService,sans-serif" font-weight="400" font-size="46" transform="matrix(1 0 0 1 1846.06 904)">ボタンクリック</text><text font-family="Meiryo UI,Meiryo UI_MSFontService,sans-serif" font-weight="400" font-size="46" transform="matrix(1 0 0 1 1773.3 959)">（イベントハンドラ）</text><path d="M1.01527-0.531183 191.295 363.159 189.265 364.221-1.01527 0.531183ZM200.339 353.255 200.904 383.996 175.972 366.004Z" transform="matrix(1 0 0 -1 1436 1297)"/><path d="M1117.15 1092 1117.15 1192.35 1114.85 1192.35 1114.85 1092ZM1129.75 1187.77 1116 1215.27 1102.25 1187.77Z"/><path d="M927.768 1199.19C902.812 1257.05 835.675 1283.72 777.813 1258.77 719.951 1233.81 693.276 1166.67 718.232 1108.81 743.188 1050.95 810.326 1024.28 868.187 1049.23 890.995 1059.07 909.97 1076.08 922.23 1097.68L946.346 1092.2 921.343 1131.63 870.983 1109.34 894.881 1103.91C867.214 1064.21 812.604 1054.45 772.906 1082.12 733.207 1109.79 723.453 1164.4 751.119 1204.09 778.786 1243.79 833.396 1253.55 873.094 1225.88 886.477 1216.55 896.99 1203.68 903.45 1188.7Z" stroke="#0F6FC6" stroke-width="4.58333" stroke-linejoin="round" stroke-miterlimit="10" fill="#91C6F7" fill-rule="evenodd"/><path d="M801.583 1298.16 719.083 1298.16C718.451 1298.16 717.938 1297.65 717.938 1297.01L717.938 1009C717.938 1008.37 718.451 1007.85 719.083 1007.85L774.083 1007.85 774.083 1010.15 719.083 1010.15 720.229 1009 720.229 1297.01 719.083 1295.87 801.583 1295.87ZM769.5 995.25 797 1009 769.5 1022.75Z"/><g><g><g><path d="M2163.04 918.745C2166.41 921.417 2169.57 926.068 2171.95 931.312L2143.05 931.312C2145.53 926.068 2148.59 921.318 2151.96 918.745 2153.54 917.458 2154.53 915.578 2154.53 913.5 2154.53 911.422 2153.54 909.542 2151.96 908.255 2145.23 903.01 2139.39 889.552 2138.4 879.854L2176.7 879.854C2175.61 889.552 2169.87 903.01 2163.14 908.255 2161.46 909.542 2160.47 911.422 2160.47 913.5 2160.47 915.578 2161.46 917.458 2163.04 918.745ZM2182.54 879.854 2185.21 879.854 2185.21 873.917 2129.79 873.917 2129.79 879.854 2132.36 879.854C2133.45 890.839 2139.79 906.87 2148.99 913.5 2139.79 920.13 2133.35 936.161 2132.36 947.146L2129.79 947.146 2129.79 953.083 2185.21 953.083 2185.21 947.146 2182.54 947.146C2181.55 936.161 2175.11 920.13 2165.91 913.5 2175.11 906.87 2181.55 890.839 2182.54 879.854Z" fill="#0F6FC6"/></g></g></g><path d="M1819 1083 2480 1083 2480 1263.83 2443.83 1300 1819 1300Z" fill="#C9FAFC" fill-rule="evenodd"/><path d="M2443.83 1300 2451.07 1271.07 2480 1263.83Z" fill="#A2C9CB" fill-rule="evenodd"/><text font-family="Meiryo UI,Meiryo UI_MSFontService,sans-serif" font-weight="400" font-size="37" transform="matrix(1 0 0 1 1832.07 1133)">処理が完了するまではメッセージループに戻</text><text font-family="Meiryo UI,Meiryo UI_MSFontService,sans-serif" font-weight="400" font-size="37" transform="matrix(1 0 0 1 1832.07 1177)">らない為、例えばネットワーク通信などで、こ</text><text font-family="Meiryo UI,Meiryo UI_MSFontService,sans-serif" font-weight="400" font-size="37" transform="matrix(1 0 0 1 1832.07 1221)">の処理にとても長い時間がかかる場合は、画</text><text font-family="Meiryo UI,Meiryo UI_MSFontService,sans-serif" font-weight="400" font-size="37" transform="matrix(1 0 0 1 1832.07 1265)">面がフリーズする可能性がある</text><path d="M1.14346-0.0737231 9.00225 121.818 6.71533 121.965-1.14346 0.0737231ZM21.5803 121.007C22.0689 128.585 16.3217 135.124 8.74347 135.613 1.16529 136.102-5.37412 130.354-5.86272 122.776-6.35131 115.198-0.604065 108.658 6.97412 108.17 14.5523 107.681 21.0917 113.429 21.5803 121.007Z" fill="#089CA3" transform="matrix(1 0 0 -1 2150 1082.89)"/><g clip-path="url(#clip1)"><g clip-path="url(#clip2)"><g clip-path="url(#clip3)"><path d="M66.497 75.8898C70.228 75.9017 73.9523 76.2074 77.6353 76.8041 81.2643 77.4023 84.827 78.3487 88.2748 79.6302 91.3944 73.9896 95.2512 68.7902 99.7456 64.1696 108.811 54.8636 119.825 47.6816 131.997 43.14 138.086 40.8843 144.418 39.3499 150.865 38.5683 149.799 33.1272 147.832 27.902 145.047 23.1077 142.319 18.4623 138.803 14.3275 134.657 10.8889 130.485 7.33319 125.733 4.52149 120.609 2.57675 115.403 0.757686 109.914-0.114993 104.4-4.43916e-06 98.4206-0.0462045 92.4891 1.08349 86.9449 3.32484 81.5807 5.50053 76.6531 8.62608 72.3987 12.5513 68.1963 16.5248 64.7097 21.1924 62.0916 26.3495 59.4057 31.6916 57.7959 37.5095 57.3537 43.4724 54.4248 41.768 51.2984 40.428 48.0441 39.4826 44.7847 38.4862 41.3947 37.9819 37.9864 37.9864 27.8902 37.8702 18.1872 41.8956 11.1383 49.1247 4.01779 56.2128 0.0102775 65.8428-6.65873e-06 75.8898-0.0678455 81.237 1.00913 86.5368 3.1586 91.4334 5.29404 96.2595 8.40739 100.59 12.302 104.151 18.3382 95.2903 26.4776 88.0645 35.9915 83.1213 45.4247 78.2769 55.8931 75.7953 66.497 75.8898Z" fill="#939393" transform="matrix(1.00098 0 0 1 2644 818.617)"/><path d="M262.663 136.735C260.745 132.167 257.917 128.038 254.351 124.599 250.82 121.028 246.608 118.202 241.966 116.287 237.153 114.378 232.016 113.418 226.838 113.461 225.567 105.735 222.98 98.2851 219.191 91.4334 215.424 84.5734 210.535 78.393 204.728 73.1468 198.89 68.0435 192.191 64.0188 184.945 61.2604 177.417 58.3517 169.409 56.8855 161.338 56.9381 153.943 56.8951 146.598 58.1615 139.644 60.6786 132.863 63.0316 126.516 66.4857 120.858 70.9025 115.163 75.3122 110.222 80.618 106.229 86.6124 102.155 92.7509 99.1222 99.5195 97.2519 106.645 93.0626 102.966 88.2865 100.016 83.1213 97.9169 77.8133 95.897 72.1761 94.883 66.497 94.9245 60.1645 94.9096 53.892 96.1522 48.0441 98.5819 42.5195 101.041 37.5018 104.508 33.2485 108.806 28.7749 113.078 25.1876 118.19 22.6921 123.851 17.7089 135.677 17.7089 149.013 22.6921 160.84 25.208 166.513 28.792 171.649 33.2485 175.968 37.626 180.248 42.7542 183.686 48.3766 186.109 54.1095 188.533 60.2724 189.778 66.497 189.766L227.752 189.766C232.832 189.822 237.868 188.832 242.548 186.857 247.042 184.85 251.128 182.032 254.601 178.545 258.136 175.079 260.959 170.957 262.913 166.409 266.954 156.872 266.954 146.105 262.913 136.568Z" fill="#C2C2C2" transform="matrix(1.00098 0 0 1 2644 818.617)"/></g></g></g><path d="M2275 911.854 2621.47 912.107 2621.47 914.399 2275 914.146ZM2616.89 899.5 2644.38 913.27 2616.87 927Z"/><rect x="543.5" y="542.5" width="2028" height="1015" stroke="#000000" stroke-width="4.58333" stroke-linejoin="round" stroke-miterlimit="10" fill="none"/></g></svg>