<svg width="2393" height="1020" xmlns="http://www.w3.org/2000/svg" xmlns:xlink="http://www.w3.org/1999/xlink" xml:space="preserve" overflow="hidden"><defs><clipPath id="clip0"><rect x="541" y="540" width="2393" height="1020"/></clipPath><clipPath id="clip1"><rect x="2668" y="925" width="266" height="192"/></clipPath><clipPath id="clip2"><rect x="2668" y="925" width="266" height="192"/></clipPath><clipPath id="clip3"><rect x="2668" y="925" width="266" height="192"/></clipPath></defs><g clip-path="url(#clip0)" transform="translate(-541 -540)"><rect x="543.5" y="542.5" width="2028" height="1015" stroke="#000000" stroke-width="4.58333" stroke-linejoin="round" stroke-miterlimit="10" fill="none"/><rect x="797.5" y="927.5" width="639" height="165" fill="#FFFFFF"/><path d="M877.375 927.5 877.375 1092.5M1356.62 927.5 1356.62 1092.5" stroke="#000000" stroke-width="4.58333" stroke-linejoin="round" stroke-miterlimit="10" fill="none" fill-rule="evenodd"/><rect x="797.5" y="927.5" width="639" height="165" stroke="#000000" stroke-width="4.58333" stroke-linejoin="round" stroke-miterlimit="10" fill="none"/><text font-family="Meiryo UI,Meiryo UI_MSFontService,sans-serif" font-weight="400" font-size="46" transform="matrix(1 0 0 1 890.379 1028)">イベントを待機・受信する</text><rect x="797.5" y="1215.5" width="639" height="165" fill="#FFFFFF"/><path d="M877.375 1215.5 877.375 1380.5M1356.62 1215.5 1356.62 1380.5" stroke="#000000" stroke-width="4.58333" stroke-linejoin="round" stroke-miterlimit="10" fill="none" fill-rule="evenodd"/><rect x="797.5" y="1215.5" width="639" height="165" stroke="#000000" stroke-width="4.58333" stroke-linejoin="round" stroke-miterlimit="10" fill="none"/><text font-family="Meiryo UI,Meiryo UI_MSFontService,sans-serif" font-weight="400" font-size="46" transform="matrix(1 0 0 1 947.67 1288)">イベントを処理する</text><text font-family="Meiryo UI,Meiryo UI_MSFontService,sans-serif" font-weight="400" font-size="46" transform="matrix(1 0 0 1 888.087 1343)">（イベントハンドラ呼出）</text><path d="M878 616C878 629.255 873.632 640 868.244 640L721.755 640C716.367 640 712 629.255 712 616" stroke="#000000" stroke-width="2.29167" stroke-linejoin="round" stroke-miterlimit="10" fill="none" fill-rule="evenodd"/><path d="M712 731C712 717.745 715.967 707 720.86 707L869.139 707C874.033 707 878 717.745 878 731" stroke="#000000" stroke-width="2.29167" stroke-linejoin="round" stroke-miterlimit="10" fill="none" fill-rule="evenodd"/><path d="M739.5 701C724.312 701 712 688.464 712 673 712 657.536 724.312 645 739.5 645 754.688 645 767 657.536 767 673 767 688.464 754.688 701 739.5 701Z" fill="#0F6FC6" fill-rule="evenodd"/><path d="M795 701C779.536 701 767 688.464 767 673 767 657.536 779.536 645 795 645 810.464 645 823 657.536 823 673 823 688.464 810.464 701 795 701Z" fill="#0F6FC6" fill-rule="evenodd"/><path d="M850.5 701C835.312 701 823 688.464 823 673 823 657.536 835.312 645 850.5 645 865.688 645 878 657.536 878 673 878 688.464 865.688 701 850.5 701Z" fill="#0F6FC6" fill-rule="evenodd"/><path d="M0-2.29167 13.75-2.29167 13.75 2.29167 0 2.29167ZM18.3333-2.29167 32.0833-2.29167 32.0833 2.29167 18.3333 2.29167ZM36.6667-2.29167 50.4167-2.29167 50.4167 2.29167 36.6667 2.29167ZM55-2.29167 68.75-2.29167 68.75 2.29167 55 2.29167ZM73.3333-2.29167 87.0833-2.29167 87.0833 2.29167 73.3333 2.29167ZM91.6667-2.29167 105.417-2.29167 105.417 2.29167 91.6667 2.29167ZM110-2.29167 123.75-2.29167 123.75 2.29167 110 2.29167ZM128.333-2.29167 142.083-2.29167 142.083 2.29167 128.333 2.29167ZM146.667-2.29167 160.417-2.29167 160.417 2.29167 146.667 2.29167ZM165-2.29167 178.75-2.29167 178.75 2.29167 165 2.29167ZM183.333-2.29167 197.083-2.29167 197.083 2.29167 183.333 2.29167ZM201.667-2.29167 215.417-2.29167 215.417 2.29167 201.667 2.29167ZM220-2.29167 233.75-2.29167 233.75 2.29167 220 2.29167ZM238.333-2.29167 252.083-2.29167 252.083 2.29167 238.333 2.29167ZM255.97 2.98855 255.97 16.7386 251.386 16.7386 251.386 2.98855ZM255.97 21.3219 255.97 35.0719 251.386 35.0719 251.386 21.3219ZM255.97 39.6552 255.97 53.4052 251.386 53.4052 251.386 39.6552ZM255.97 57.9885 255.97 71.7385 251.386 71.7385 251.386 57.9885ZM255.97 76.3219 255.97 90.0719 251.386 90.0719 251.386 76.3219ZM255.97 94.6552 255.97 108.405 251.386 108.405 251.386 94.6552ZM255.97 112.989 255.97 126.739 251.386 126.739 251.386 112.989ZM255.97 131.322 255.97 145.072 251.386 145.072 251.386 131.322ZM255.97 149.655 255.97 163.405 251.386 163.405 251.386 149.655ZM255.97 167.989 255.97 181.739 251.386 181.739 251.386 167.989ZM255.97 186.322 255.97 200.072 251.386 200.072 251.386 186.322ZM255.97 204.655 255.97 218.405 251.386 218.405 251.386 204.655ZM253.678 219.888 267.428 210.722 253.678 238.222 239.928 210.722Z" fill="#0F6FC6" transform="matrix(-1.83697e-16 -1 -1 1.83697e-16 1116.72 927.178)"/><rect x="645.5" y="858.5" width="887" height="585" stroke="#022B52" stroke-width="4.58333" stroke-linejoin="round" stroke-miterlimit="10" stroke-dasharray="4.58333 4.58333" fill="none"/><text font-family="Meiryo UI,Meiryo UI_MSFontService,sans-serif" font-weight="400" font-size="46" transform="matrix(1 0 0 1 810.012 1183)">メッセージループ</text><rect x="1587.5" y="939.5" width="442" height="164" fill="#FFFFFF"/><path d="M1642.75 939.5 1642.75 1103.5M1974.25 939.5 1974.25 1103.5" stroke="#000000" stroke-width="4.58333" stroke-linejoin="round" stroke-miterlimit="10" fill="none" fill-rule="evenodd"/><rect x="1587.5" y="939.5" width="442" height="164" stroke="#000000" stroke-width="4.58333" stroke-linejoin="round" stroke-miterlimit="10" fill="none"/><text font-family="Meiryo UI,Meiryo UI_MSFontService,sans-serif" font-weight="400" font-size="46" transform="matrix(1 0 0 1 1698.26 1012)">ボタンクリック</text><text font-family="Meiryo UI,Meiryo UI_MSFontService,sans-serif" font-weight="400" font-size="46" transform="matrix(1 0 0 1 1625.5 1067)">（イベントハンドラ）</text><path d="M1.00469-0.550946 141.575 255.788 139.566 256.89-1.00469 0.550946ZM150.423 245.709 151.589 276.433 126.31 258.932Z" transform="matrix(1 0 0 -1 1436 1297.43)"/><path d="M1117.15 1092 1117.15 1192.35 1114.85 1192.35 1114.85 1092ZM1129.75 1187.77 1116 1215.27 1102.25 1187.77Z"/><path d="M927.768 1199.19C902.812 1257.05 835.675 1283.72 777.813 1258.77 719.951 1233.81 693.276 1166.67 718.232 1108.81 743.188 1050.95 810.326 1024.28 868.187 1049.23 890.995 1059.07 909.97 1076.08 922.23 1097.68L946.346 1092.2 921.343 1131.63 870.983 1109.34 894.881 1103.91C867.214 1064.21 812.604 1054.45 772.906 1082.12 733.207 1109.79 723.453 1164.4 751.119 1204.09 778.786 1243.79 833.396 1253.55 873.094 1225.88 886.477 1216.55 896.99 1203.68 903.45 1188.7Z" stroke="#0F6FC6" stroke-width="4.58333" stroke-linejoin="round" stroke-miterlimit="10" fill="#91C6F7" fill-rule="evenodd"/><path d="M801.583 1298.16 719.083 1298.16C718.451 1298.16 717.938 1297.65 717.938 1297.01L717.938 1009C717.938 1008.37 718.451 1007.85 719.083 1007.85L774.083 1007.85 774.083 1010.15 719.083 1010.15 720.229 1009 720.229 1297.01 719.083 1295.87 801.583 1295.87ZM769.5 995.25 797 1009 769.5 1022.75Z"/><g clip-path="url(#clip1)"><g clip-path="url(#clip2)"><g clip-path="url(#clip3)"><path d="M66.3122 75.6788C70.0328 75.6907 73.7467 75.9956 77.4195 76.5906 81.0384 77.1871 84.5911 78.1309 88.0294 79.4088 91.1403 73.7839 94.9864 68.599 99.4683 63.9913 108.508 54.7111 119.492 47.5491 131.63 43.02 137.702 40.7706 144.017 39.2405 150.446 38.4611 149.382 33.0351 147.421 27.8244 144.643 23.0435 141.924 18.411 138.418 14.2877 134.282 10.8586 130.123 7.31281 125.384 4.50892 120.274 2.56959 115.082 0.755579 109.608-0.114673 104.11-4.42682e-06 98.147-0.046076 92.2319 1.08048 86.7032 3.3156 81.3539 5.48524 76.44 8.6021 72.1974 12.5164 68.0067 16.4789 64.5298 21.1335 61.919 26.2762 59.2406 31.6035 57.6352 37.4052 57.1943 43.3516 54.2734 41.6518 51.1558 40.3157 47.9106 39.3729 44.6602 38.3792 41.2797 37.8763 37.8808 37.8808 27.8127 37.7649 18.1366 41.7792 11.1073 48.9881 4.00662 56.0565 0.0102489 65.6598-6.64022e-06 75.6788-0.0676569 81.0111 1.00632 86.2962 3.14982 91.1792 5.27932 95.9919 8.38401 100.31 12.2678 103.861 18.2872 95.0254 26.404 87.8197 35.8915 82.8902 45.2984 78.0593 55.7377 75.5846 66.3122 75.6788Z" fill="#939393" transform="matrix(1 0 0 1.00279 2669 925.617)"/><path d="M261.933 136.354C260.02 131.8 257.2 127.682 253.644 124.252 250.123 120.691 245.923 117.873 241.293 115.963 236.493 114.06 231.371 113.103 226.207 113.145 224.94 105.441 222.36 98.0119 218.582 91.1792 214.825 84.3383 209.95 78.175 204.159 72.9434 198.337 67.8544 191.657 63.8408 184.431 61.0901 176.923 58.1895 168.938 56.7273 160.89 56.7798 153.515 56.7369 146.19 57.9998 139.256 60.5099 132.493 62.8563 126.165 66.3009 120.522 70.7054 114.843 75.1029 109.916 80.3939 105.934 86.3716 101.871 92.4931 98.8466 99.2428 96.9816 106.348 92.8039 102.679 88.041 99.7377 82.8902 97.6447 77.597 95.6304 71.9754 94.6192 66.3122 94.6606 59.9973 94.6457 53.7422 95.8849 47.9106 98.3078 42.4012 100.76 37.3975 104.217 33.1561 108.503 28.6949 112.764 25.1176 117.862 22.629 123.506 17.6597 135.3 17.6597 148.599 22.629 160.393 25.138 166.05 28.7119 171.172 33.1561 175.479 37.5214 179.747 42.6353 183.175 48.2421 185.591 53.959 188.009 60.1049 189.25 66.3122 189.238L227.119 189.238C232.185 189.295 237.207 188.308 241.874 186.337 246.356 184.336 250.43 181.526 253.893 178.048 257.418 174.593 260.234 170.482 262.182 165.946 266.212 156.436 266.212 145.699 262.182 136.189Z" fill="#C2C2C2" transform="matrix(1 0 0 1.00279 2669 925.617)"/></g></g></g><path d="M2525 1019.85 2646.46 1019.85 2646.46 1022.15 2525 1022.15ZM2641.88 1007.25 2669.38 1021 2641.88 1034.75Z"/><rect x="2200.5" y="939.5" width="325" height="164" fill="#FFFFFF"/><path d="M2241.12 939.5 2241.12 1103.5M2484.88 939.5 2484.88 1103.5" stroke="#000000" stroke-width="4.58333" stroke-linejoin="round" stroke-miterlimit="10" fill="none" fill-rule="evenodd"/><rect x="2200.5" y="939.5" width="325" height="164" stroke="#000000" stroke-width="4.58333" stroke-linejoin="round" stroke-miterlimit="10" fill="none"/><text font-family="Meiryo UI,Meiryo UI_MSFontService,sans-serif" font-weight="400" font-size="46" transform="matrix(1 0 0 1 2270.64 1039)">通信処理</text><g><g><g><path d="M53.0416 52.7447C56.4062 55.4166 59.5728 60.0676 61.9478 65.3124L33.052 65.3124C35.526 60.0676 38.5937 55.3176 41.9583 52.7447 43.5416 51.4583 44.5312 49.5781 44.5312 47.4999 44.5312 45.4218 43.5416 43.5416 41.9583 42.2551 35.2291 37.0104 29.3906 23.552 28.401 13.8541L66.6978 13.8541C65.6093 23.552 59.8697 37.0104 53.1406 42.2551 51.4583 43.5416 50.4687 45.4218 50.4687 47.4999 50.4687 49.5781 51.4583 51.4583 53.0416 52.7447ZM72.5364 13.8541 75.2082 13.8541 75.2082 7.91666 19.7916 7.91666 19.7916 13.8541 22.3646 13.8541C23.4531 24.8385 29.7864 40.8697 38.9895 47.4999 29.7864 54.1301 23.3541 70.1614 22.3646 81.1457L19.7916 81.1457 19.7916 87.0832 75.2082 87.0832 75.2082 81.1457 72.5364 81.1457C71.5468 70.1614 65.1145 54.1301 55.9114 47.4999 65.1145 40.8697 71.5468 24.8385 72.5364 13.8541Z" fill="#0F6FC6" transform="matrix(1.01053 0 0 1 2446 912)"/></g></g></g><path d="M2029 1019.85 2035.88 1019.85 2035.88 1022.15 2029 1022.15ZM2038.17 1019.85 2045.04 1019.85 2045.04 1022.15 2038.17 1022.15ZM2047.33 1019.85 2054.21 1019.85 2054.21 1022.15 2047.33 1022.15ZM2056.5 1019.85 2063.38 1019.85 2063.38 1022.15 2056.5 1022.15ZM2065.67 1019.85 2072.54 1019.85 2072.54 1022.15 2065.67 1022.15ZM2074.83 1019.85 2081.71 1019.85 2081.71 1022.15 2074.83 1022.15ZM2084 1019.85 2090.88 1019.85 2090.88 1022.15 2084 1022.15ZM2093.17 1019.85 2100.04 1019.85 2100.04 1022.15 2093.17 1022.15ZM2102.33 1019.85 2109.21 1019.85 2109.21 1022.15 2102.33 1022.15ZM2111.5 1019.85 2118.38 1019.85 2118.38 1022.15 2111.5 1022.15ZM2120.67 1019.85 2127.54 1019.85 2127.54 1022.15 2120.67 1022.15ZM2129.83 1019.85 2136.71 1019.85 2136.71 1022.15 2129.83 1022.15ZM2139 1019.85 2145.88 1019.85 2145.88 1022.15 2139 1022.15ZM2148.17 1019.85 2155.04 1019.85 2155.04 1022.15 2148.17 1022.15ZM2157.33 1019.85 2164.21 1019.85 2164.21 1022.15 2157.33 1022.15ZM2166.5 1019.85 2173.38 1019.85 2173.38 1022.15 2166.5 1022.15ZM2175.67 1019.85 2182.54 1019.85 2182.54 1022.15 2175.67 1022.15ZM2184.83 1019.85 2191.71 1019.85 2191.71 1022.15 2184.83 1022.15ZM2194 1019.85 2198 1019.85 2198 1022.15 2194 1022.15ZM2171.08 1003.97 2200.28 1021 2171.08 1038.03C2170.53 1038.35 2169.83 1038.17 2169.51 1037.62 2169.19 1037.07 2169.38 1036.37 2169.92 1036.05L2197.42 1020.01 2197.42 1021.99 2169.92 1005.95C2169.38 1005.63 2169.19 1004.93 2169.51 1004.38 2169.83 1003.83 2170.53 1003.65 2171.08 1003.97Z"/><path d="M1879 1185 2350 1185 2350 1365 2314 1401 1879 1401Z" fill="#C9FAFC" fill-rule="evenodd"/><path d="M2314 1401 2321.2 1372.2 2350 1365Z" fill="#A2C9CB" fill-rule="evenodd"/><text font-family="Meiryo UI,Meiryo UI_MSFontService,sans-serif" font-weight="400" font-size="37" transform="matrix(1 0 0 1 1891.62 1235)">非同期で通信処理を呼び出</text><text font-family="Meiryo UI,Meiryo UI_MSFontService,sans-serif" font-weight="400" font-size="37" transform="matrix(1 0 0 1 1891.62 1279)">す。これにより、イベントハンドラ</text><text font-family="Meiryo UI,Meiryo UI_MSFontService,sans-serif" font-weight="400" font-size="37" transform="matrix(1 0 0 1 1891.62 1323)">自体はすぐに終了してメイン</text><text font-family="Meiryo UI,Meiryo UI_MSFontService,sans-serif" font-weight="400" font-size="37" transform="matrix(1 0 0 1 1891.62 1367)">ループに戻ることができる</text><path d="M2112.78 1184.29 2096.86 1022.11 2099.14 1021.89 2115.06 1184.06ZM2084.32 1023.34C2083.57 1015.79 2089.1 1009.06 2096.66 1008.32 2104.21 1007.57 2110.94 1013.1 2111.68 1020.66 2112.43 1028.21 2106.9 1034.94 2099.34 1035.68 2091.79 1036.43 2085.06 1030.9 2084.32 1023.34Z" fill="#089CA3"/><path d="M2245.79 931.5 2261.74 944.167 2252.89 944.167C2247.42 963.294 2230.77 973.736 2215.07 967.885 2224.44 964.393 2231.91 955.584 2235.17 944.167L2226.31 944.167Z" fill="#FFFFFF" fill-rule="evenodd"/><path d="M2206.21 969.5C2189.25 969.5 2175.5 952.487 2175.5 931.5L2193.21 931.5C2193.21 952.487 2206.97 969.5 2223.93 969.5Z" fill="#CDCDCD" fill-rule="evenodd"/><path d="M2215.07 967.885C2224.44 964.393 2231.91 955.584 2235.17 944.167L2226.31 944.167 2245.79 931.5 2261.74 944.167 2252.89 944.167C2248.55 959.349 2236.94 969.5 2223.93 969.5L2206.21 969.5C2189.25 969.5 2175.5 952.487 2175.5 931.5L2193.21 931.5C2193.21 952.487 2206.97 969.5 2223.93 969.5" stroke="#0F6FC6" stroke-width="4.58333" stroke-linejoin="round" stroke-miterlimit="10" fill="none" fill-rule="evenodd"/><path d="M2180.21 929.5 2164.26 916.833 2173.11 916.833C2178.58 897.705 2195.23 887.263 2210.93 893.114 2201.56 896.607 2194.09 905.416 2190.83 916.833L2199.69 916.833Z" fill="#FFFFFF" fill-rule="evenodd"/><path d="M2219.79 891.5C2236.75 891.5 2250.5 908.513 2250.5 929.5L2232.79 929.5C2232.79 908.513 2219.03 891.5 2202.07 891.5Z" fill="#CDCDCD" fill-rule="evenodd"/><path d="M2210.93 893.114C2201.56 896.607 2194.09 905.416 2190.83 916.833L2199.69 916.833 2180.21 929.5 2164.26 916.833 2173.11 916.833C2177.45 901.651 2189.06 891.5 2202.07 891.5L2219.79 891.5C2236.75 891.5 2250.5 908.513 2250.5 929.5L2232.79 929.5C2232.79 908.513 2219.03 891.5 2202.07 891.5" stroke="#0F6FC6" stroke-width="4.58333" stroke-linejoin="round" stroke-miterlimit="10" fill="none" fill-rule="evenodd"/><path d="M1660 670 2102 670 2102 816.666 2072.67 846 1660 846Z" fill="#C9FAFC" fill-rule="evenodd"/><path d="M2072.67 846 2078.53 822.533 2102 816.666Z" fill="#A2C9CB" fill-rule="evenodd"/><text font-family="Meiryo UI,Meiryo UI_MSFontService,sans-serif" font-weight="400" font-size="37" transform="matrix(1 0 0 1 1673.28 720)">別のスレッドを開始して、時</text><text font-family="Meiryo UI,Meiryo UI_MSFontService,sans-serif" font-weight="400" font-size="37" transform="matrix(1 0 0 1 1673.28 764)">間のかかる通信処理は、新</text><text font-family="Meiryo UI,Meiryo UI_MSFontService,sans-serif" font-weight="400" font-size="37" transform="matrix(1 0 0 1 1673.28 808)">しいスレッドで実行する</text><path d="M2102.89 757.276 2211.35 890.383 2209.57 891.831 2101.11 758.724ZM2221.12 882.421C2225.92 888.308 2225.03 896.969 2219.15 901.766 2213.26 906.563 2204.6 905.679 2199.8 899.792 2195 893.905 2195.89 885.244 2201.77 880.447 2207.66 875.65 2216.32 876.534 2221.12 882.421Z" fill="#089CA3"/></g></svg>