<svg width="3135" height="625" xmlns="http://www.w3.org/2000/svg" xmlns:xlink="http://www.w3.org/1999/xlink" xml:space="preserve" overflow="hidden"><g transform="translate(-883 -1630)"><rect x="900.5" y="1639.5" width="3115" height="613" stroke="#0F6FC6" stroke-width="4.58333" stroke-linejoin="round" stroke-miterlimit="10" fill="none"/><text font-family="Meiryo,Meiryo_MSFontService,sans-serif" font-weight="400" font-size="83" transform="matrix(1 0 0 1 933.402 1725)">店舗売上集計ジョブ</text><rect x="1296.5" y="1843.5" width="636" height="222" stroke="#0F6FC6" stroke-width="4.58333" stroke-linejoin="round" stroke-miterlimit="10" fill="none"/><text font-family="Meiryo,Meiryo_MSFontService,sans-serif" font-weight="400" font-size="55" transform="matrix(1 0 0 1 1476.49 1935)">店舗を一覧</text><text font-family="Meiryo,Meiryo_MSFontService,sans-serif" font-weight="400" font-size="55" transform="matrix(1 0 0 1 1476.49 2001)">（</text><text font-family="Meiryo,Meiryo_MSFontService,sans-serif" font-weight="400" font-size="55" transform="matrix(1 0 0 1 1531.49 2001)">タスク</text><text font-family="Meiryo,Meiryo_MSFontService,sans-serif" font-weight="400" font-size="55" transform="matrix(1 0 0 1 1696.49 2001)">）</text><path d="M1064 1948C1064 1933.64 1075.64 1922 1090 1922 1104.36 1922 1116 1933.64 1116 1948 1116 1962.36 1104.36 1974 1090 1974 1075.64 1974 1064 1962.36 1064 1948Z" fill-rule="evenodd"/><path d="M1116 1946.85 1273.39 1946.85 1273.39 1949.15 1116 1949.15ZM1268.81 1934.25 1296.31 1948 1268.81 1961.75Z" fill="#0F6FC6"/><rect x="2102.5" y="1843.5" width="636" height="222" stroke="#0F6FC6" stroke-width="4.58333" stroke-linejoin="round" stroke-miterlimit="10" fill="none"/><text font-family="Meiryo,Meiryo_MSFontService,sans-serif" font-weight="400" font-size="55" transform="matrix(1 0 0 1 2172.08 1935)">各店舗の売上を抽出</text><text font-family="Meiryo,Meiryo_MSFontService,sans-serif" font-weight="400" font-size="55" transform="matrix(1 0 0 1 2282.08 2001)">（</text><text font-family="Meiryo,Meiryo_MSFontService,sans-serif" font-weight="400" font-size="55" transform="matrix(1 0 0 1 2337.08 2001)">タスク</text><text font-family="Meiryo,Meiryo_MSFontService,sans-serif" font-weight="400" font-size="55" transform="matrix(1 0 0 1 2502.08 2001)">）</text><path d="M1932 1952.85 2078.66 1952.85 2078.66 1955.15 1932 1955.15ZM2074.08 1940.25 2101.58 1954 2074.08 1967.75Z" fill="#0F6FC6"/><rect x="2907.5" y="1843.5" width="636" height="222" stroke="#0F6FC6" stroke-width="4.58333" stroke-linejoin="round" stroke-miterlimit="10" fill="none"/><text font-family="Meiryo,Meiryo_MSFontService,sans-serif" font-weight="400" font-size="55" transform="matrix(1 0 0 1 2977.67 1935)">全店舗の売上</text><text font-family="Meiryo,Meiryo_MSFontService,sans-serif" font-weight="400" font-size="55" transform="matrix(1 0 0 1 3307.67 1935)">を</text><text font-family="Meiryo,Meiryo_MSFontService,sans-serif" font-weight="400" font-size="55" transform="matrix(1 0 0 1 3362.67 1935)">集計</text><text font-family="Meiryo,Meiryo_MSFontService,sans-serif" font-weight="400" font-size="55" transform="matrix(1 0 0 1 3087.67 2001)">（</text><text font-family="Meiryo,Meiryo_MSFontService,sans-serif" font-weight="400" font-size="55" transform="matrix(1 0 0 1 3142.67 2001)">タスク</text><text font-family="Meiryo,Meiryo_MSFontService,sans-serif" font-weight="400" font-size="55" transform="matrix(1 0 0 1 3307.67 2001)">）</text><path d="M2738 1952.85 2884.66 1952.85 2884.66 1955.15 2738 1955.15ZM2880.08 1940.25 2907.58 1954 2880.08 1967.75Z" fill="#0F6FC6"/><path d="M3760 1954C3760 1941.85 3770.07 1932 3782.5 1932 3794.93 1932 3805 1941.85 3805 1954 3805 1966.15 3794.93 1976 3782.5 1976 3770.07 1976 3760 1966.15 3760 1954Z" fill-rule="evenodd"/><path d="M3747.5 1954.5C3747.5 1936.27 3762.27 1921.5 3780.5 1921.5 3798.73 1921.5 3813.5 1936.27 3813.5 1954.5 3813.5 1972.73 3798.73 1987.5 3780.5 1987.5 3762.27 1987.5 3747.5 1972.73 3747.5 1954.5Z" stroke="#000000" stroke-width="3.4375" stroke-linejoin="round" stroke-miterlimit="10" fill="none" fill-rule="evenodd"/><path d="M3543 1952.85 3724.05 1952.85 3724.05 1955.15 3543 1955.15ZM3719.46 1940.25 3746.96 1954 3719.46 1967.75Z" fill="#0F6FC6"/><text font-family="Meiryo,Meiryo_MSFontService,sans-serif" font-weight="400" font-size="46" transform="matrix(1 0 0 1 1043.09 2039)">開始</text><text font-family="Meiryo,Meiryo_MSFontService,sans-serif" font-weight="400" font-size="46" transform="matrix(1 0 0 1 3736.1 2039)">終了</text></g></svg>