<svg width="2550" height="1155" xmlns="http://www.w3.org/2000/svg" xmlns:xlink="http://www.w3.org/1999/xlink" xml:space="preserve" overflow="hidden"><g transform="translate(-1431 -877)"><path d="M1835 1121 1835 2030.45" stroke="#0F6FC6" stroke-width="2.29167" stroke-linejoin="round" stroke-miterlimit="10" fill="none" fill-rule="evenodd"/><rect x="1666.5" y="991.5" width="338" height="130" stroke="#0F6FC6" stroke-width="4.58333" stroke-linejoin="round" stroke-miterlimit="10" fill="#FFFFFF"/><text font-family="Meiryo,Meiryo_MSFontService,sans-serif" font-weight="400" font-size="55" transform="matrix(1 0 0 1 1768.83 1070)">main</text><rect x="2190.5" y="991.5" width="338" height="130" stroke="#0F6FC6" stroke-width="4.58333" stroke-linejoin="round" stroke-miterlimit="10" fill="#FFFFFF"/><text font-family="Meiryo,Meiryo_MSFontService,sans-serif" font-weight="400" font-size="55" transform="matrix(1 0 0 1 2301.79 1070)">func</text><path d="M2359 1121 2359 2030.45" stroke="#0F6FC6" stroke-width="2.29167" stroke-linejoin="round" stroke-miterlimit="10" fill="none" fill-rule="evenodd"/><rect x="1809.5" y="1181.5" width="51.9999" height="429" stroke="#0F6FC6" stroke-width="4.58333" stroke-linejoin="round" stroke-miterlimit="10" fill="#FFFFFF"/><rect x="2333.5" y="1230.5" width="52.0002" height="330" stroke="#0F6FC6" stroke-width="4.58333" stroke-linejoin="round" stroke-miterlimit="10" fill="#FFFFFF"/><path d="M1861 1228.85 2309.91 1228.85 2309.91 1231.15 1861 1231.15ZM2305.32 1216.25 2332.82 1230 2305.32 1243.75Z" fill="#0F6FC6"/><path d="M8.3069e-07-1.14583 6.875-1.14583 6.875 1.14584-8.3069e-07 1.14583ZM9.16667-1.14583 16.0417-1.14582 16.0417 1.14584 9.16667 1.14584ZM18.3333-1.14582 25.2083-1.14582 25.2083 1.14585 18.3333 1.14585ZM27.5-1.14581 34.375-1.14581 34.375 1.14586 27.5 1.14585ZM36.6667-1.14581 43.5417-1.1458 43.5417 1.14586 36.6667 1.14586ZM45.8333-1.1458 52.7083-1.1458 52.7083 1.14587 45.8333 1.14587ZM55-1.14579 61.875-1.14579 61.875 1.14588 55 1.14587ZM64.1667-1.14579 71.0417-1.14578 71.0417 1.14588 64.1667 1.14588ZM73.3333-1.14578 80.2083-1.14578 80.2083 1.14589 73.3333 1.14589ZM82.5-1.14577 89.375-1.14577 89.375 1.1459 82.5 1.14589ZM91.6667-1.14577 98.5417-1.14576 98.5417 1.1459 91.6667 1.1459ZM100.833-1.14576 107.708-1.14576 107.708 1.14591 100.833 1.14591ZM110-1.14575 116.875-1.14575 116.875 1.14592 110 1.14591ZM119.167-1.14575 126.042-1.14574 126.042 1.14592 119.167 1.14592ZM128.333-1.14574 135.208-1.14574 135.208 1.14593 128.333 1.14593ZM137.5-1.14573 144.375-1.14573 144.375 1.14594 137.5 1.14593ZM146.667-1.14573 153.542-1.14572 153.542 1.14594 146.667 1.14594ZM155.833-1.14572 162.708-1.14572 162.708 1.14595 155.833 1.14595ZM165-1.14571 171.875-1.14571 171.875 1.14596 165 1.14595ZM174.167-1.14571 181.042-1.1457 181.042 1.14596 174.167 1.14596ZM183.333-1.1457 190.208-1.1457 190.208 1.14597 183.333 1.14597ZM192.5-1.14569 199.375-1.14569 199.375 1.14598 192.5 1.14597ZM201.667-1.14569 208.542-1.14568 208.542 1.14598 201.667 1.14598ZM210.833-1.14568 217.708-1.14568 217.708 1.14599 210.833 1.14599ZM220-1.14567 226.875-1.14567 226.875 1.146 220 1.14599ZM229.167-1.14567 236.042-1.14566 236.042 1.146 229.167 1.146ZM238.333-1.14566 245.208-1.14566 245.208 1.14601 238.333 1.14601ZM247.5-1.14565 254.375-1.14565 254.375 1.14602 247.5 1.14601ZM256.667-1.14565 263.542-1.14564 263.542 1.14602 256.667 1.14602ZM265.833-1.14564 272.708-1.14564 272.708 1.14603 265.833 1.14603ZM275-1.14563 281.875-1.14563 281.875 1.14604 275 1.14603ZM284.167-1.14563 291.042-1.14562 291.042 1.14604 284.167 1.14604ZM293.333-1.14562 300.208-1.14562 300.208 1.14605 293.333 1.14605ZM302.5-1.14561 309.375-1.14561 309.375 1.14606 302.5 1.14605ZM311.667-1.14561 318.542-1.1456 318.542 1.14606 311.667 1.14606ZM320.833-1.1456 327.708-1.1456 327.708 1.14607 320.833 1.14607ZM330-1.14559 336.875-1.14559 336.875 1.14608 330 1.14607ZM339.167-1.14559 346.042-1.14558 346.042 1.14608 339.167 1.14608ZM348.333-1.14558 355.208-1.14558 355.208 1.14609 348.333 1.14609ZM357.5-1.14557 364.375-1.14557 364.375 1.1461 357.5 1.14609ZM366.667-1.14557 373.542-1.14556 373.542 1.1461 366.667 1.1461ZM375.833-1.14556 382.708-1.14556 382.708 1.14611 375.833 1.14611ZM385-1.14555 391.875-1.14555 391.875 1.14612 385 1.14611ZM394.167-1.14555 401.042-1.14554 401.042 1.14612 394.167 1.14612ZM403.333-1.14554 410.208-1.14554 410.208 1.14613 403.333 1.14613ZM412.5-1.14553 419.375-1.14553 419.375 1.14614 412.5 1.14613ZM421.667-1.14553 428.542-1.14552 428.542 1.14614 421.667 1.14614ZM430.833-1.14552 437.708-1.14552 437.708 1.14615 430.833 1.14615ZM440-1.14551 446.875-1.14551 446.875 1.14616 440 1.14615ZM449.167-1.14551 456.042-1.1455 456.042 1.14616 449.167 1.14616ZM458.333-1.1455 465.208-1.1455 465.208 1.14617 458.333 1.14617ZM467.5-1.14549 474.375-1.14549 474.375 1.14618 467.5 1.14617ZM476.667-1.14549 483.542-1.14548 483.542 1.14618 476.667 1.14618ZM485.833-1.14548 492.708-1.14548 492.708 1.14619 485.833 1.14619ZM495-1.14547 495.536-1.14547 495.536 1.14619 495 1.14619ZM468.615-17.0311 497.812 0.000360503 468.615 17.0318C468.068 17.3506 467.367 17.166 467.048 16.6194 466.729 16.0727 466.914 15.3711 467.46 15.0523L494.96-0.989388 494.96 0.990106 467.46-15.0516C466.914-15.3704 466.729-16.0721 467.048-16.6187 467.367-17.1653 468.068-17.3499 468.615-17.0311Z" fill="#0F6FC6" transform="matrix(-1 0 0 1 2358.81 1560)"/><text font-family="Meiryo,Meiryo_MSFontService,sans-serif" font-weight="400" font-size="46" transform="matrix(1 0 0 1 1947.85 1215)">処理を呼び出す</text><text font-family="Meiryo,Meiryo_MSFontService,sans-serif" font-weight="400" font-size="46" transform="matrix(1 0 0 1 2016.6 1270)">（同期）</text><text font-family="Meiryo,Meiryo_MSFontService,sans-serif" font-weight="400" font-size="46" transform="matrix(1 0 0 1 2062.89 1544)">応答</text><rect x="1811.5" y="1636.5" width="51.9999" height="340" stroke="#0F6FC6" stroke-width="4.58333" stroke-linejoin="round" stroke-miterlimit="10" fill="#FFFFFF"/><text font-family="Meiryo UI,Meiryo UI_MSFontService,sans-serif" font-weight="400" font-size="37" transform="matrix(1 0 0 1 1454.67 1366)">応答が返るまで</text><text font-family="Meiryo UI,Meiryo UI_MSFontService,sans-serif" font-weight="400" font-size="37" transform="matrix(1 0 0 1 1454.67 1410)">main </text><text font-family="Meiryo UI,Meiryo UI_MSFontService,sans-serif" font-weight="400" font-size="37" transform="matrix(1 0 0 1 1555.51 1410)">処理は他の処</text><text font-family="Meiryo UI,Meiryo UI_MSFontService,sans-serif" font-weight="400" font-size="37" transform="matrix(1 0 0 1 1454.67 1454)">理を実行できない</text><text font-family="Meiryo UI,Meiryo UI_MSFontService,sans-serif" font-weight="400" font-size="37" transform="matrix(1 0 0 1 1453.33 1776)">前の呼出の応答が</text><text font-family="Meiryo UI,Meiryo UI_MSFontService,sans-serif" font-weight="400" font-size="37" transform="matrix(1 0 0 1 1453.33 1820)">戻ってきてから次の処</text><text font-family="Meiryo UI,Meiryo UI_MSFontService,sans-serif" font-weight="400" font-size="37" transform="matrix(1 0 0 1 1453.33 1864)">理を継続する</text><path d="M3285 1121 3285 2030.45" stroke="#0F6FC6" stroke-width="2.29167" stroke-linejoin="round" stroke-miterlimit="10" fill="none" fill-rule="evenodd"/><rect x="3116.5" y="991.5" width="338" height="130" stroke="#0F6FC6" stroke-width="4.58333" stroke-linejoin="round" stroke-miterlimit="10" fill="#FFFFFF"/><text font-family="Meiryo,Meiryo_MSFontService,sans-serif" font-weight="400" font-size="55" transform="matrix(1 0 0 1 3218.81 1070)">main</text><rect x="3640.5" y="991.5" width="338" height="130" stroke="#0F6FC6" stroke-width="4.58333" stroke-linejoin="round" stroke-miterlimit="10" fill="#FFFFFF"/><text font-family="Meiryo,Meiryo_MSFontService,sans-serif" font-weight="400" font-size="55" transform="matrix(1 0 0 1 3751.77 1070)">func</text><path d="M3809 1121 3809 2030.45" stroke="#0F6FC6" stroke-width="2.29167" stroke-linejoin="round" stroke-miterlimit="10" fill="none" fill-rule="evenodd"/><rect x="3259.5" y="1181.5" width="52" height="118" stroke="#0F6FC6" stroke-width="4.58333" stroke-linejoin="round" stroke-miterlimit="10" fill="#FFFFFF"/><rect x="3783.5" y="1230.5" width="52" height="330" stroke="#0F6FC6" stroke-width="4.58333" stroke-linejoin="round" stroke-miterlimit="10" fill="#FFFFFF"/><path d="M3311 1228.85 3780.55 1228.85 3780.55 1231.15 3311 1231.15ZM3753.63 1212.97 3782.83 1230 3753.63 1247.03C3753.08 1247.35 3752.38 1247.17 3752.06 1246.62 3751.74 1246.07 3751.93 1245.37 3752.48 1245.05L3779.98 1229.01 3779.98 1230.99 3752.48 1214.95C3751.93 1214.63 3751.74 1213.93 3752.06 1213.38 3752.38 1212.83 3753.08 1212.65 3753.63 1212.97Z" fill="#0F6FC6"/><text font-family="Meiryo,Meiryo_MSFontService,sans-serif" font-weight="400" font-size="46" transform="matrix(1 0 0 1 3397.83 1215)">処理を呼び出す</text><text font-family="Meiryo,Meiryo_MSFontService,sans-serif" font-weight="400" font-size="46" transform="matrix(1 0 0 1 3443.66 1270)">（非同期）</text><rect x="3261.5" y="1340.5" width="52" height="341" stroke="#0F6FC6" stroke-width="4.58333" stroke-linejoin="round" stroke-miterlimit="10" fill="#FFFFFF"/><text font-family="Meiryo UI,Meiryo UI_MSFontService,sans-serif" font-weight="400" font-size="37" transform="matrix(1 0 0 1 2890.11 1261)">呼出すだけで応答は待</text><text font-family="Meiryo UI,Meiryo UI_MSFontService,sans-serif" font-weight="400" font-size="37" transform="matrix(1 0 0 1 2890.11 1305)">たない</text><text font-family="Meiryo UI,Meiryo UI_MSFontService,sans-serif" font-weight="400" font-size="37" transform="matrix(1 0 0 1 2893.08 1481)">前の呼出の応答を待</text><text font-family="Meiryo UI,Meiryo UI_MSFontService,sans-serif" font-weight="400" font-size="37" transform="matrix(1 0 0 1 2893.08 1525)">たずに、そのまま次の</text><text font-family="Meiryo UI,Meiryo UI_MSFontService,sans-serif" font-weight="400" font-size="37" transform="matrix(1 0 0 1 2893.08 1569)">処理を継続する</text><path d="M5.87697e-06-1.14583 6.87501-1.1458 6.87499 1.14587-5.87697e-06 1.14583ZM9.16667-1.14579 16.0417-1.14575 16.0417 1.14592 9.16666 1.14588ZM18.3333-1.14574 25.2083-1.1457 25.2083 1.14596 18.3333 1.14593ZM27.5-1.14569 34.375-1.14566 34.375 1.14601 27.5 1.14597ZM36.6667-1.14565 43.5417-1.14561 43.5417 1.14606 36.6667 1.14602ZM45.8333-1.1456 52.7083-1.14556 52.7083 1.1461 45.8333 1.14607ZM55-1.14555 61.875-1.14552 61.875 1.14615 55 1.14612ZM64.1667-1.1455 68.0945-1.14548 68.0945 1.14618 64.1667 1.14616ZM41.1719-17.0312 70.3685 0.000360868 41.1717 17.0316C40.6251 17.3505 39.9235 17.1658 39.6046 16.6192 39.2857 16.0726 39.4704 15.371 40.017 15.0521L67.5171-0.9894 67.5171 0.990093 40.0172-15.0517C39.4705-15.3706 39.2859-16.0722 39.6048-16.6188 39.9236-17.1654 40.6253-17.3501 41.1719-17.0312Z" fill="#0F6FC6" transform="matrix(-1 0 0 1 3782.36 1560)"/><text font-family="Meiryo UI,Meiryo UI_MSFontService,sans-serif" font-weight="400" font-size="37" transform="matrix(1 0 0 1 3566.04 1553)">応答は</text><text font-family="Meiryo UI,Meiryo UI_MSFontService,sans-serif" font-weight="400" font-size="37" transform="matrix(1 0 0 1 3566.04 1597)">返さない</text><path d="M3703.5 1561C3703.5 1549.68 3712.68 1540.5 3724 1540.5 3735.32 1540.5 3744.5 1549.68 3744.5 1561 3744.5 1572.32 3735.32 1581.5 3724 1581.5 3712.68 1581.5 3703.5 1572.32 3703.5 1561ZM3735.28 1567.07C3738.64 1560.84 3736.3 1553.07 3730.07 1549.72 3726.28 1547.68 3721.72 1547.68 3717.93 1549.72ZM3712.72 1554.93C3709.36 1561.16 3711.7 1568.93 3717.93 1572.28 3721.72 1574.32 3726.28 1574.32 3730.07 1572.28Z" stroke="#0F6FC6" stroke-width="4.58333" stroke-linejoin="round" stroke-miterlimit="10" fill="#FFFFFF" fill-rule="evenodd"/><text font-family="Meiryo,Meiryo_MSFontService,sans-serif" font-weight="400" font-size="46" transform="matrix(1 0 0 1 1884.97 940)">同期アーキテクチャ</text><text font-family="Meiryo,Meiryo_MSFontService,sans-serif" font-weight="400" font-size="46" transform="matrix(1 0 0 1 3312.04 933)">非同期アーキテクチャ</text></g></svg>