<svg width="3087" height="1008" xmlns="http://www.w3.org/2000/svg" xmlns:xlink="http://www.w3.org/1999/xlink" xml:space="preserve" overflow="hidden"><g transform="translate(-559 -1195)"><rect x="565.5" y="1198.5" width="3078" height="488" stroke="#0F6FC6" stroke-width="4.58333" stroke-linejoin="round" stroke-miterlimit="10" fill="none"/><text font-family="Meiryo,Meiryo_MSFontService,sans-serif" font-weight="400" font-size="64" transform="matrix(1 0 0 1 598.469 1269)">並行</text><path d="M586 1355C586 1341.75 596.746 1331 610.001 1331L872 1331C885.255 1331 896 1341.75 896 1355L896 1451C896 1464.25 885.255 1475 872 1475L610.001 1475C596.746 1475 586 1464.25 586 1451Z" stroke="#0F6FC6" stroke-width="2.29167" stroke-linejoin="round" stroke-miterlimit="10" fill="#C8E3FB" fill-rule="evenodd"/><text font-family="Meiryo UI,Meiryo UI_MSFontService,sans-serif" font-weight="400" font-size="46" transform="matrix(1 0 0 1 679.766 1394)">処理</text><text font-family="Meiryo UI,Meiryo UI_MSFontService,sans-serif" font-weight="400" font-size="46" transform="matrix(1 0 0 1 771.432 1394)">A</text><text font-family="Meiryo UI,Meiryo UI_MSFontService,sans-serif" font-weight="400" font-size="46" transform="matrix(1 0 0 1 649.401 1449)">（洗濯）</text><path d="M586 1520C586 1506.75 596.746 1496 610.001 1496L872 1496C885.255 1496 896 1506.75 896 1520L896 1616C896 1629.25 885.255 1640 872 1640L610.001 1640C596.746 1640 586 1629.25 586 1616Z" stroke="#0F6FC6" stroke-width="2.29167" stroke-linejoin="round" stroke-miterlimit="10" fill="#C8E3FB" fill-rule="evenodd"/><text font-family="Meiryo UI,Meiryo UI_MSFontService,sans-serif" font-weight="400" font-size="46" transform="matrix(1 0 0 1 679.766 1559)">処理</text><text font-family="Meiryo UI,Meiryo UI_MSFontService,sans-serif" font-weight="400" font-size="46" transform="matrix(1 0 0 1 771.432 1559)">B</text><text font-family="Meiryo UI,Meiryo UI_MSFontService,sans-serif" font-weight="400" font-size="46" transform="matrix(1 0 0 1 649.401 1614)">（掃除）</text><path d="M896 1401.85 3586.42 1401.85 3586.42 1404.15 896 1404.15ZM3581.83 1389.25 3609.33 1403 3581.83 1416.75Z" fill="#0F6FC6"/><path d="M896 1566.85 3586.42 1566.85 3586.42 1569.15 896 1569.15ZM3581.83 1554.25 3609.33 1568 3581.83 1581.75Z" fill="#0F6FC6"/><rect x="938.5" y="1387.5" width="463" height="33" stroke="#0F6FC6" stroke-width="4.58333" stroke-linejoin="round" stroke-miterlimit="10" fill="#0F6FC6"/><rect x="1401.5" y="1552.5" width="462" height="33" stroke="#0F6FC6" stroke-width="4.58333" stroke-linejoin="round" stroke-miterlimit="10" fill="#0F6FC6"/><rect x="1863.5" y="1389.5" width="420" height="33" stroke="#0F6FC6" stroke-width="4.58333" stroke-linejoin="round" stroke-miterlimit="10" fill="#0F6FC6"/><rect x="2283.5" y="1552.5" width="580" height="33" stroke="#0F6FC6" stroke-width="4.58333" stroke-linejoin="round" stroke-miterlimit="10" fill="#0F6FC6"/><rect x="2863.5" y="1387.5" width="577" height="33" stroke="#0F6FC6" stroke-width="4.58333" stroke-linejoin="round" stroke-miterlimit="10" fill="#0F6FC6"/><path d="M1401.5 1403.5 1401.5 1568.5" stroke="#0F6FC6" stroke-width="6.875" stroke-linejoin="round" stroke-miterlimit="10" fill="none" fill-rule="evenodd"/><path d="M0 0 0.000360892 162.974" stroke="#0F6FC6" stroke-width="6.875" stroke-linejoin="round" stroke-miterlimit="10" fill="none" fill-rule="evenodd" transform="matrix(-1 0 0 1 1863.5 1405.5)"/><path d="M2283.5 1405.5 2283.5 1568.47" stroke="#0F6FC6" stroke-width="6.875" stroke-linejoin="round" stroke-miterlimit="10" fill="none" fill-rule="evenodd"/><path d="M0 0 0.000360892 165" stroke="#0F6FC6" stroke-width="6.875" stroke-linejoin="round" stroke-miterlimit="10" fill="none" fill-rule="evenodd" transform="matrix(1 0 0 -1 2863.5 1568.5)"/><g><g><g><path d="M1035.33 1301.12C1035.33 1312.35 1026.23 1321.46 1015 1321.46 1003.77 1321.46 994.667 1312.35 994.667 1301.12 994.667 1289.9 1003.77 1280.79 1015 1280.79 1026.23 1280.79 1035.33 1289.9 1035.33 1301.12Z"/><path d="M1055.67 1367.21 1055.67 1346.87C1055.67 1343.82 1054.14 1340.77 1051.6 1338.74 1046.01 1334.17 1038.89 1331.12 1031.77 1329.08 1026.69 1327.56 1021.1 1326.54 1015 1326.54 1009.41 1326.54 1003.82 1327.56 998.225 1329.08 991.108 1331.12 983.992 1334.67 978.4 1338.74 975.858 1340.77 974.333 1343.82 974.333 1346.87L974.333 1367.21 1055.67 1367.21Z"/></g></g></g><rect x="565.5" y="1711.5" width="3078" height="489" stroke="#0F6FC6" stroke-width="4.58333" stroke-linejoin="round" stroke-miterlimit="10" fill="none"/><text font-family="Meiryo,Meiryo_MSFontService,sans-serif" font-weight="400" font-size="64" transform="matrix(1 0 0 1 598.469 1782)">並列</text><path d="M586 1868.17C586 1854.82 596.82 1844 610.167 1844L871.833 1844C885.18 1844 896 1854.82 896 1868.17L896 1964.83C896 1978.18 885.18 1989 871.833 1989L610.167 1989C596.82 1989 586 1978.18 586 1964.83Z" stroke="#0F6FC6" stroke-width="2.29167" stroke-linejoin="round" stroke-miterlimit="10" fill="#C8E3FB" fill-rule="evenodd"/><text font-family="Meiryo UI,Meiryo UI_MSFontService,sans-serif" font-weight="400" font-size="46" transform="matrix(1 0 0 1 679.766 1908)">処理</text><text font-family="Meiryo UI,Meiryo UI_MSFontService,sans-serif" font-weight="400" font-size="46" transform="matrix(1 0 0 1 771.432 1908)">A</text><text font-family="Meiryo UI,Meiryo UI_MSFontService,sans-serif" font-weight="400" font-size="46" transform="matrix(1 0 0 1 649.401 1963)">（洗濯）</text><path d="M586 2033.17C586 2019.82 596.82 2009 610.167 2009L871.833 2009C885.18 2009 896 2019.82 896 2033.17L896 2129.83C896 2143.18 885.18 2154 871.833 2154L610.167 2154C596.82 2154 586 2143.18 586 2129.83Z" stroke="#0F6FC6" stroke-width="2.29167" stroke-linejoin="round" stroke-miterlimit="10" fill="#C8E3FB" fill-rule="evenodd"/><text font-family="Meiryo UI,Meiryo UI_MSFontService,sans-serif" font-weight="400" font-size="46" transform="matrix(1 0 0 1 679.766 2073)">処理</text><text font-family="Meiryo UI,Meiryo UI_MSFontService,sans-serif" font-weight="400" font-size="46" transform="matrix(1 0 0 1 771.432 2073)">B</text><text font-family="Meiryo UI,Meiryo UI_MSFontService,sans-serif" font-weight="400" font-size="46" transform="matrix(1 0 0 1 649.401 2128)">（掃除）</text><path d="M896 1915.85 3586.42 1915.85 3586.42 1918.15 896 1918.15ZM3581.83 1903.25 3609.33 1917 3581.83 1930.75Z" fill="#0F6FC6"/><path d="M896 2080.85 3586.42 2080.85 3586.42 2083.15 896 2083.15ZM3581.83 2068.25 3609.33 2082 3581.83 2095.75Z" fill="#0F6FC6"/><rect x="938.5" y="1900.5" width="2502" height="33" stroke="#0F6FC6" stroke-width="4.58333" stroke-linejoin="round" stroke-miterlimit="10" fill="#0F6FC6"/><g><g><g><path d="M81.3331 38.1249C81.3331 49.3547 72.2296 58.4582 60.9998 58.4582 49.7701 58.4582 40.6666 49.3547 40.6666 38.1249 40.6666 26.8951 49.7701 17.7916 60.9998 17.7916 72.2296 17.7916 81.3331 26.8951 81.3331 38.1249Z" transform="matrix(1 0 0 1 954 1776)"/><path d="M101.666 104.208 101.666 83.8748C101.666 80.8248 100.141 77.7748 97.5997 75.7415 92.0081 71.1665 84.8914 68.1165 77.7748 66.0832 72.6915 64.5582 67.0998 63.5415 60.9998 63.5415 55.4082 63.5415 49.8165 64.5582 44.2249 66.0832 37.1082 68.1165 29.9916 71.6748 24.3999 75.7415 21.8583 77.7748 20.3333 80.8248 20.3333 83.8748L20.3333 104.208 101.666 104.208Z" transform="matrix(1 0 0 1 954 1776)"/></g></g></g><rect x="938.5" y="2065.5" width="2502" height="33" stroke="#0F6FC6" stroke-width="4.58333" stroke-linejoin="round" stroke-miterlimit="10" fill="#0F6FC6"/><g><g><g><path d="M81.3331 38.1249C81.3331 49.3547 72.2296 58.4582 60.9998 58.4582 49.7701 58.4582 40.6666 49.3547 40.6666 38.1249 40.6666 26.8951 49.7701 17.7916 60.9998 17.7916 72.2296 17.7916 81.3331 26.8951 81.3331 38.1249Z" transform="matrix(1 0 0 1 954 1941)"/><path d="M101.666 104.208 101.666 83.8748C101.666 80.8248 100.141 77.7748 97.5997 75.7415 92.0081 71.1665 84.8914 68.1165 77.7748 66.0832 72.6915 64.5582 67.0998 63.5415 60.9998 63.5415 55.4082 63.5415 49.8165 64.5582 44.2249 66.0832 37.1082 68.1165 29.9916 71.6748 24.3999 75.7415 21.8583 77.7748 20.3333 80.8248 20.3333 83.8748L20.3333 104.208 101.666 104.208Z" transform="matrix(1 0 0 1 954 1941)"/></g></g></g></g></svg>