<svg width="2333" height="855" xmlns="http://www.w3.org/2000/svg" xmlns:xlink="http://www.w3.org/1999/xlink" xml:space="preserve" overflow="hidden"><g transform="translate(-1977 -1436)"><path d="M1978 2126.33C1978 2108.48 1992.48 2094 2010.33 2094L4276.67 2094C4294.52 2094 4309 2108.48 4309 2126.33L4309 2255.67C4309 2273.52 4294.52 2288 4276.67 2288L2010.33 2288C1992.48 2288 1978 2273.52 1978 2255.67Z" stroke="#0F6FC6" stroke-width="2.29167" stroke-linejoin="round" stroke-miterlimit="10" fill="#C8E3FB" fill-rule="evenodd"/><text font-family="Meiryo,Meiryo_MSFontService,sans-serif" font-weight="400" font-size="83" transform="matrix(1 0 0 1 3085.93 2212)">OS</text><path d="M1978 1542.17C1978 1484.09 2025.09 1437 2083.17 1437L2631.83 1437C2689.91 1437 2737 1484.09 2737 1542.17L2737 1962.83C2737 2020.91 2689.91 2068 2631.83 2068L2083.17 2068C2025.09 2068 1978 2020.91 1978 1962.83Z" stroke="#009DD9" stroke-width="2.29167" stroke-linejoin="round" stroke-miterlimit="10" fill="#C4EFFF" fill-rule="evenodd"/><text font-family="Meiryo,Meiryo_MSFontService,sans-serif" font-weight="400" font-size="83" transform="matrix(1 0 0 1 2192.4 1554)">プロセス</text><path d="M2764 1542.17C2764 1484.09 2811.09 1437 2869.17 1437L3417.83 1437C3475.91 1437 3523 1484.09 3523 1542.17L3523 1962.83C3523 2020.91 3475.91 2068 3417.83 2068L2869.17 2068C2811.09 2068 2764 2020.91 2764 1962.83Z" stroke="#009DD9" stroke-width="2.29167" stroke-linejoin="round" stroke-miterlimit="10" fill="#C4EFFF" fill-rule="evenodd"/><text font-family="Meiryo,Meiryo_MSFontService,sans-serif" font-weight="400" font-size="83" transform="matrix(1 0 0 1 2978.51 1554)">プロセス</text><path d="M3550 1542.17C3550 1484.09 3597.09 1437 3655.17 1437L4203.83 1437C4261.91 1437 4309 1484.09 4309 1542.17L4309 1962.83C4309 2020.91 4261.91 2068 4203.83 2068L3655.17 2068C3597.09 2068 3550 2020.91 3550 1962.83Z" stroke="#009DD9" stroke-width="2.29167" stroke-linejoin="round" stroke-miterlimit="10" fill="#C4EFFF" fill-rule="evenodd"/><text font-family="Meiryo,Meiryo_MSFontService,sans-serif" font-weight="400" font-size="83" transform="matrix(1 0 0 1 3764.61 1554)">プロセス</text><path d="M2009 1680C2009 1640.24 2076.38 1608 2159.5 1608 2242.62 1608 2310 1640.24 2310 1680 2310 1719.76 2242.62 1752 2159.5 1752 2076.38 1752 2009 1719.76 2009 1680Z" stroke="#A5C249" stroke-width="2.29167" stroke-linejoin="round" stroke-miterlimit="10" fill="#E5F4E0" fill-rule="evenodd"/><text font-family="Meiryo,Meiryo_MSFontService,sans-serif" font-weight="400" font-size="46" transform="matrix(1 0 0 1 2067.92 1692)">スレッド</text><path d="M2160 1837C2160 1797.24 2227.16 1765 2310 1765 2392.84 1765 2460 1797.24 2460 1837 2460 1876.76 2392.84 1909 2310 1909 2227.16 1909 2160 1876.76 2160 1837Z" stroke="#A5C249" stroke-width="2.29167" stroke-linejoin="round" stroke-miterlimit="10" fill="#E5F4E0" fill-rule="evenodd"/><text font-family="Meiryo,Meiryo_MSFontService,sans-serif" font-weight="400" font-size="46" transform="matrix(1 0 0 1 2218.33 1849)">スレッド</text><path d="M2377 1706C2377 1666.24 2444.16 1634 2527 1634 2609.84 1634 2677 1666.24 2677 1706 2677 1745.76 2609.84 1778 2527 1778 2444.16 1778 2377 1745.76 2377 1706Z" stroke="#A5C249" stroke-width="2.29167" stroke-linejoin="round" stroke-miterlimit="10" fill="#E5F4E0" fill-rule="evenodd"/><text font-family="Meiryo,Meiryo_MSFontService,sans-serif" font-weight="400" font-size="46" transform="matrix(1 0 0 1 2435.29 1718)">スレッド</text><path d="M2389 1968C2389 1928.24 2456.38 1896 2539.5 1896 2622.62 1896 2690 1928.24 2690 1968 2690 2007.76 2622.62 2040 2539.5 2040 2456.38 2040 2389 2007.76 2389 1968Z" stroke="#A5C249" stroke-width="2.29167" stroke-linejoin="round" stroke-miterlimit="10" fill="#E5F4E0" fill-rule="evenodd"/><text font-family="Meiryo,Meiryo_MSFontService,sans-serif" font-weight="400" font-size="46" transform="matrix(1 0 0 1 2447.6 1980)">スレッド</text><path d="M2798 1718C2798 1678.24 2865.38 1646 2948.5 1646 3031.62 1646 3099 1678.24 3099 1718 3099 1757.76 3031.62 1790 2948.5 1790 2865.38 1790 2798 1757.76 2798 1718Z" stroke="#A5C249" stroke-width="2.29167" stroke-linejoin="round" stroke-miterlimit="10" fill="#E5F4E0" fill-rule="evenodd"/><text font-family="Meiryo,Meiryo_MSFontService,sans-serif" font-weight="400" font-size="46" transform="matrix(1 0 0 1 2856.45 1729)">スレッド</text><path d="M3069 1923C3069 1883.24 3136.38 1851 3219.5 1851 3302.62 1851 3370 1883.24 3370 1923 3370 1962.76 3302.62 1995 3219.5 1995 3136.38 1995 3069 1962.76 3069 1923Z" stroke="#A5C249" stroke-width="2.29167" stroke-linejoin="round" stroke-miterlimit="10" fill="#E5F4E0" fill-rule="evenodd"/><text font-family="Meiryo,Meiryo_MSFontService,sans-serif" font-weight="400" font-size="46" transform="matrix(1 0 0 1 3127.5 1934)">スレッド</text><path d="M3573 1696C3573 1656.24 3640.38 1624 3723.5 1624 3806.62 1624 3874 1656.24 3874 1696 3874 1735.76 3806.62 1768 3723.5 1768 3640.38 1768 3573 1735.76 3573 1696Z" stroke="#A5C249" stroke-width="2.29167" stroke-linejoin="round" stroke-miterlimit="10" fill="#E5F4E0" fill-rule="evenodd"/><text font-family="Meiryo,Meiryo_MSFontService,sans-serif" font-weight="400" font-size="46" transform="matrix(1 0 0 1 3631.62 1707)">スレッド</text><path d="M3894 1693C3894 1653.24 3961.38 1621 4044.5 1621 4127.62 1621 4195 1653.24 4195 1693 4195 1732.76 4127.62 1765 4044.5 1765 3961.38 1765 3894 1732.76 3894 1693Z" stroke="#A5C249" stroke-width="2.29167" stroke-linejoin="round" stroke-miterlimit="10" fill="#E5F4E0" fill-rule="evenodd"/><text font-family="Meiryo,Meiryo_MSFontService,sans-serif" font-weight="400" font-size="46" transform="matrix(1 0 0 1 3953.11 1705)">スレッド</text><path d="M3566 1876C3566 1836.24 3633.38 1804 3716.5 1804 3799.62 1804 3867 1836.24 3867 1876 3867 1915.76 3799.62 1948 3716.5 1948 3633.38 1948 3566 1915.76 3566 1876Z" stroke="#A5C249" stroke-width="2.29167" stroke-linejoin="round" stroke-miterlimit="10" fill="#E5F4E0" fill-rule="evenodd"/><text font-family="Meiryo,Meiryo_MSFontService,sans-serif" font-weight="400" font-size="46" transform="matrix(1 0 0 1 3625.01 1887)">スレッド</text><path d="M3987 1837C3987 1797.24 4054.38 1765 4137.5 1765 4220.62 1765 4288 1797.24 4288 1837 4288 1876.76 4220.62 1909 4137.5 1909 4054.38 1909 3987 1876.76 3987 1837Z" stroke="#A5C249" stroke-width="2.29167" stroke-linejoin="round" stroke-miterlimit="10" fill="#E5F4E0" fill-rule="evenodd"/><text font-family="Meiryo,Meiryo_MSFontService,sans-serif" font-weight="400" font-size="46" transform="matrix(1 0 0 1 4045.64 1849)">スレッド</text><path d="M3833 1974C3833 1934.24 3900.38 1902 3983.5 1902 4066.62 1902 4134 1934.24 4134 1974 4134 2013.76 4066.62 2046 3983.5 2046 3900.38 2046 3833 2013.76 3833 1974Z" stroke="#A5C249" stroke-width="2.29167" stroke-linejoin="round" stroke-miterlimit="10" fill="#E5F4E0" fill-rule="evenodd"/><text font-family="Meiryo,Meiryo_MSFontService,sans-serif" font-weight="400" font-size="46" transform="matrix(1 0 0 1 3891.88 1986)">スレッド</text></g></svg>