<svg width="2417" height="842" xmlns="http://www.w3.org/2000/svg" xmlns:xlink="http://www.w3.org/1999/xlink" xml:space="preserve" overflow="hidden"><g transform="translate(-810 -802)"><rect x="1386.5" y="891.5" width="1838" height="750" stroke="#17406D" stroke-width="4.58333" stroke-linejoin="round" stroke-miterlimit="10" fill="none"/><rect x="1535.5" y="1221.5" width="371" height="94.0002" stroke="#000000" stroke-width="4.58333" stroke-linejoin="round" stroke-miterlimit="10" fill="#C8E3FB"/><text font-family="Meiryo UI,Meiryo UI_MSFontService,sans-serif" font-weight="400" font-size="46" transform="matrix(1 0 0 1 1605.95 1286)">①</text><text font-family="Meiryo UI,Meiryo UI_MSFontService,sans-serif" font-weight="400" font-size="46" transform="matrix(1 0 0 1 1651.79 1286)">受信</text><text font-family="Meiryo UI,Meiryo UI_MSFontService,sans-serif" font-weight="400" font-size="46" transform="matrix(1 0 0 1 1743.45 1286)">処理</text><rect x="1349" y="1230" width="70.0001" height="77" fill="#55A839"/><g><g><g><path d="M1.82 164.262C1.82 168.296 5.08873 171.568 9.12549 171.568L176.515 171.568C180.551 171.568 183.82 168.296 183.82 164.262L183.82 50.2248 1.82 50.2248 1.82 164.262Z" fill="#59B4D9" transform="matrix(1.00549 0 0 1 939.17 1174.18)"/><path d="M176.515 16.38 9.12549 16.38C5.08873 16.38 1.82 19.6487 1.82 23.6855L1.82 62.3678 183.82 62.3678 183.82 23.6855C183.82 19.6487 180.548 16.38 176.515 16.38" fill="#A0A1A2" transform="matrix(1.00549 0 0 1 939.17 1174.18)"/><path d="M9.15097 16.38C5.11785 16.38 1.84548 19.6487 1.84548 23.6855L1.84548 50.2248 1.84548 62.3678 1.84548 164.262C1.84548 168.296 5.11785 171.568 9.15097 171.568L17.1153 171.568 160.597 16.38 9.15097 16.38Z" fill="#FFFFFF" fill-opacity="0.2" transform="matrix(1.00549 0 0 1 939.17 1174.18)"/><path d="M48.6195 33.7756 171.182 33.7756 171.182 48.1245 48.6195 48.1245Z" fill="#FFFFFF" transform="matrix(1.00549 0 0 1 939.17 1174.18)"/><path d="M42.9884 40.7062C42.9884 50.5087 35.0387 58.4621 25.2325 58.4621 15.4263 58.4621 7.47657 50.5087 7.47657 40.7062 7.47657 30.9 15.4263 22.9466 25.2325 22.9466 35.035 22.9466 42.9884 30.9 42.9884 40.7062" fill="#59B4D9" transform="matrix(1.00549 0 0 1 939.17 1174.18)"/><path d="M23.3543 42.7045 31.4096 51.2076 27.0379 51.2076 16.2672 40.95 26.9979 30.6925 31.3586 30.6925 23.3543 39.1446 42.9848 39.1446 42.9848 42.7045Z" fill="#FFFFFF" transform="matrix(1.00549 0 0 1 939.17 1174.18)"/></g></g></g><g><g><g><path d="M867 1238.33C867 1242.39 870.287 1245.68 874.346 1245.68L1042.65 1245.68C1046.71 1245.68 1050 1242.39 1050 1238.33L1050 1123.67 867 1123.67 867 1238.33Z" fill="#59B4D9"/><path d="M1042.65 1089.64 874.346 1089.64C870.287 1089.64 867 1092.93 867 1096.99L867 1135.88 1050 1135.88 1050 1096.99C1050 1092.93 1046.71 1089.64 1042.65 1089.64" fill="#A0A1A2"/><path d="M874.371 1089.64C870.316 1089.64 867.026 1092.93 867.026 1096.99L867.026 1123.67 867.026 1135.88 867.026 1238.33C867.026 1242.39 870.316 1245.68 874.371 1245.68L882.379 1245.68 1026.65 1089.64 874.371 1089.64Z" fill="#FFFFFF" fill-opacity="0.2"/><path d="M914.057 1107.13 1037.29 1107.13 1037.29 1121.56 914.057 1121.56Z" fill="#FFFFFF"/><path d="M908.395 1114.1C908.395 1123.96 900.401 1131.95 890.541 1131.95 880.681 1131.95 872.688 1123.96 872.688 1114.1 872.688 1104.24 880.681 1096.24 890.541 1096.24 900.397 1096.24 908.395 1104.24 908.395 1114.1" fill="#59B4D9"/><path d="M888.653 1116.11 896.752 1124.66 892.356 1124.66 881.526 1114.34 892.316 1104.03 896.701 1104.03 888.653 1112.53 908.391 1112.53 908.391 1116.11Z" fill="#FFFFFF"/></g></g></g><g><g><g><path d="M1.82 164.262C1.82 168.296 5.08873 171.568 9.12549 171.568L176.515 171.568C180.551 171.568 183.82 168.296 183.82 164.262L183.82 50.2248 1.82 50.2248 1.82 164.262Z" fill="#59B4D9" transform="matrix(1.00549 0 0 1 906.17 1305.18)"/><path d="M176.515 16.38 9.12549 16.38C5.08873 16.38 1.82 19.6487 1.82 23.6855L1.82 62.3678 183.82 62.3678 183.82 23.6855C183.82 19.6487 180.548 16.38 176.515 16.38" fill="#A0A1A2" transform="matrix(1.00549 0 0 1 906.17 1305.18)"/><path d="M9.15097 16.38C5.11785 16.38 1.84548 19.6487 1.84548 23.6855L1.84548 50.2248 1.84548 62.3678 1.84548 164.262C1.84548 168.296 5.11785 171.568 9.15097 171.568L17.1153 171.568 160.597 16.38 9.15097 16.38Z" fill="#FFFFFF" fill-opacity="0.2" transform="matrix(1.00549 0 0 1 906.17 1305.18)"/><path d="M48.6195 33.7756 171.182 33.7756 171.182 48.1245 48.6195 48.1245Z" fill="#FFFFFF" transform="matrix(1.00549 0 0 1 906.17 1305.18)"/><path d="M42.9884 40.7062C42.9884 50.5087 35.0387 58.4621 25.2325 58.4621 15.4263 58.4621 7.47657 50.5087 7.47657 40.7062 7.47657 30.9 15.4263 22.9466 25.2325 22.9466 35.035 22.9466 42.9884 30.9 42.9884 40.7062" fill="#59B4D9" transform="matrix(1.00549 0 0 1 906.17 1305.18)"/><path d="M23.3543 42.7045 31.4096 51.2076 27.0379 51.2076 16.2672 40.95 26.9979 30.6925 31.3586 30.6925 23.3543 39.1446 42.9848 39.1446 42.9848 42.7045Z" fill="#FFFFFF" transform="matrix(1.00549 0 0 1 906.17 1305.18)"/></g></g></g><g><g><g><path d="M834 1369.33C834 1373.39 837.287 1376.68 841.346 1376.68L1009.65 1376.68C1013.71 1376.68 1017 1373.39 1017 1369.33L1017 1254.67 834 1254.67 834 1369.33Z" fill="#59B4D9"/><path d="M1009.65 1220.64 841.346 1220.64C837.287 1220.64 834 1223.93 834 1227.99L834 1266.88 1017 1266.88 1017 1227.99C1017 1223.93 1013.71 1220.64 1009.65 1220.64" fill="#A0A1A2"/><path d="M841.371 1220.64C837.316 1220.64 834.026 1223.93 834.026 1227.99L834.026 1254.67 834.026 1266.88 834.026 1369.33C834.026 1373.39 837.316 1376.68 841.371 1376.68L849.379 1376.68 993.649 1220.64 841.371 1220.64Z" fill="#FFFFFF" fill-opacity="0.2"/><path d="M881.057 1238.13 1004.29 1238.13 1004.29 1252.56 881.057 1252.56Z" fill="#FFFFFF"/><path d="M875.395 1245.1C875.395 1254.96 867.401 1262.95 857.541 1262.95 847.681 1262.95 839.688 1254.96 839.688 1245.1 839.688 1235.24 847.681 1227.24 857.541 1227.24 867.397 1227.24 875.395 1235.24 875.395 1245.1" fill="#59B4D9"/><path d="M855.653 1247.11 863.752 1255.66 859.356 1255.66 848.526 1245.34 859.316 1235.03 863.701 1235.03 855.653 1243.53 875.391 1243.53 875.391 1247.11Z" fill="#FFFFFF"/></g></g></g><text font-family="Meiryo UI,Meiryo UI_MSFontService,sans-serif" font-weight="400" font-size="55" transform="matrix(1 0 0 1 843.06 1329)">ブラウザ</text><path d="M1124.01 1265.85 1325.96 1266.98 1325.95 1269.27 1123.99 1268.15ZM1321.45 1254.35 1348.87 1268.26 1321.29 1281.85Z"/><path d="M0.10105-1.14137 309.05 26.211 308.848 28.4938-0.10105 1.14137ZM305.596 13.2518 331.777 29.3734 303.171 40.6446Z" transform="matrix(1 0 0 -1 1017 1297.37)"/><path d="M0.514754-1.0237 237.905 118.344 236.875 120.392-0.514754 1.0237ZM239.472 105.025 257.864 129.663 227.118 129.594Z" transform="matrix(1 0 0 -1 1091 1397.66)"/><path d="M1050.37 1165.92 1327.45 1260.09 1326.72 1262.26 1049.63 1168.08ZM1327.17 1246.68 1348.78 1268.55 1318.32 1272.72Z"/><path d="M2193 1212C2193 1225.25 2188.63 1236 2183.24 1236L2035.76 1236C2030.37 1236 2026 1225.25 2026 1212" stroke="#000000" stroke-width="2.29167" stroke-linejoin="round" stroke-miterlimit="10" fill="none" fill-rule="evenodd"/><path d="M2026 1327C2026 1313.75 2029.97 1303 2034.86 1303L2184.14 1303C2189.03 1303 2193 1313.75 2193 1327" stroke="#000000" stroke-width="2.29167" stroke-linejoin="round" stroke-miterlimit="10" fill="none" fill-rule="evenodd"/><path d="M2054 1297C2038.54 1297 2026 1284.69 2026 1269.5 2026 1254.31 2038.54 1242 2054 1242 2069.46 1242 2082 1254.31 2082 1269.5 2082 1284.69 2069.46 1297 2054 1297Z" fill="#0F6FC6" fill-rule="evenodd"/><path d="M2109.5 1297C2094.31 1297 2082 1284.69 2082 1269.5 2082 1254.31 2094.31 1242 2109.5 1242 2124.69 1242 2137 1254.31 2137 1269.5 2137 1284.69 2124.69 1297 2109.5 1297Z" fill="#0F6FC6" fill-rule="evenodd"/><path d="M2165 1297C2149.54 1297 2137 1284.69 2137 1269.5 2137 1254.31 2149.54 1242 2165 1242 2180.46 1242 2193 1254.31 2193 1269.5 2193 1284.69 2180.46 1297 2165 1297Z" fill="#0F6FC6" fill-rule="evenodd"/><path d="M1906.01 1266.85 2003.44 1268.03 2003.41 1270.32 1905.99 1269.15ZM1999.01 1255.37 2026.34 1269.45 1998.67 1282.87Z"/><path d="M0.00265652-1.14583 93.0549-0.930096 93.0496 1.36156-0.00265652 1.14583ZM88.5007-13.5449 115.969 0.268865 88.437 13.9551Z" transform="matrix(-1 0 0 1 1534.97 1268)"/><text font-family="Meiryo UI,Meiryo UI_MSFontService,sans-serif" font-weight="400" font-size="37" transform="matrix(1 0 0 1 1290.01 1346)">通信チャネル</text><rect x="2360.5" y="966.5" width="371" height="94.9999" stroke="#000000" stroke-width="4.58333" stroke-linejoin="round" stroke-miterlimit="10" fill="#C8E3FB"/><text font-family="Meiryo UI,Meiryo UI_MSFontService,sans-serif" font-weight="400" font-size="46" transform="matrix(1 0 0 1 2387.65 1032)">③ワーカースレッド</text><rect x="2360.5" y="1134.5" width="371" height="94.0002" stroke="#000000" stroke-width="4.58333" stroke-linejoin="round" stroke-miterlimit="10" fill="#C8E3FB"/><text font-family="Meiryo UI,Meiryo UI_MSFontService,sans-serif" font-weight="400" font-size="46" transform="matrix(1 0 0 1 2387.65 1199)">③ワーカースレッド</text><rect x="2360.5" y="1326.5" width="371" height="94.9999" stroke="#000000" stroke-width="4.58333" stroke-linejoin="round" stroke-miterlimit="10" fill="#C8E3FB"/><text font-family="Meiryo UI,Meiryo UI_MSFontService,sans-serif" font-weight="400" font-size="46" transform="matrix(1 0 0 1 2387.65 1392)">③ワーカースレッド</text><rect x="2360.5" y="1500.5" width="371" height="94.0002" stroke="#000000" stroke-width="4.58333" stroke-linejoin="round" stroke-miterlimit="10" fill="#C8E3FB"/><text font-family="Meiryo UI,Meiryo UI_MSFontService,sans-serif" font-weight="400" font-size="46" transform="matrix(1 0 0 1 2387.65 1566)">③ワーカースレッド</text><path d="M2833.5 982.334C2833.5 973.589 2840.59 966.5 2849.33 966.5L3143.67 966.5C3152.41 966.5 3159.5 973.589 3159.5 982.334L3159.5 1045.67C3159.5 1054.41 3152.41 1061.5 3143.67 1061.5L2849.33 1061.5C2840.59 1061.5 2833.5 1054.41 2833.5 1045.67Z" stroke="#022B52" stroke-width="4.58333" stroke-linejoin="round" stroke-miterlimit="10" fill="#CAFBED" fill-rule="evenodd"/><text fill="#17406D" font-family="Meiryo UI,Meiryo UI_MSFontService,sans-serif" font-weight="400" font-size="46" transform="matrix(1 0 0 1 2890.52 1032)">Web </text><text fill="#17406D" font-family="Meiryo UI,Meiryo UI_MSFontService,sans-serif" font-weight="400" font-size="46" transform="matrix(1 0 0 1 3006.25 1032)">アプリ</text><path d="M2833.5 1150.17C2833.5 1141.51 2840.51 1134.5 2849.17 1134.5L3143.83 1134.5C3152.49 1134.5 3159.5 1141.51 3159.5 1150.17L3159.5 1212.83C3159.5 1221.49 3152.49 1228.5 3143.83 1228.5L2849.17 1228.5C2840.51 1228.5 2833.5 1221.49 2833.5 1212.83Z" stroke="#022B52" stroke-width="4.58333" stroke-linejoin="round" stroke-miterlimit="10" fill="#CAFBED" fill-rule="evenodd"/><text fill="#17406D" font-family="Meiryo UI,Meiryo UI_MSFontService,sans-serif" font-weight="400" font-size="46" transform="matrix(1 0 0 1 2890.52 1199)">Web </text><text fill="#17406D" font-family="Meiryo UI,Meiryo UI_MSFontService,sans-serif" font-weight="400" font-size="46" transform="matrix(1 0 0 1 3006.25 1199)">アプリ</text><path d="M2833.5 1342.17C2833.5 1333.51 2840.51 1326.5 2849.17 1326.5L3143.83 1326.5C3152.49 1326.5 3159.5 1333.51 3159.5 1342.17L3159.5 1404.83C3159.5 1413.49 3152.49 1420.5 3143.83 1420.5L2849.17 1420.5C2840.51 1420.5 2833.5 1413.49 2833.5 1404.83Z" stroke="#022B52" stroke-width="4.58333" stroke-linejoin="round" stroke-miterlimit="10" fill="#CAFBED" fill-rule="evenodd"/><text fill="#17406D" font-family="Meiryo UI,Meiryo UI_MSFontService,sans-serif" font-weight="400" font-size="46" transform="matrix(1 0 0 1 2890.52 1391)">Web </text><text fill="#17406D" font-family="Meiryo UI,Meiryo UI_MSFontService,sans-serif" font-weight="400" font-size="46" transform="matrix(1 0 0 1 3006.25 1391)">アプリ</text><path d="M2833.5 1516.17C2833.5 1507.51 2840.51 1500.5 2849.17 1500.5L3143.83 1500.5C3152.49 1500.5 3159.5 1507.51 3159.5 1516.17L3159.5 1578.83C3159.5 1587.49 3152.49 1594.5 3143.83 1594.5L2849.17 1594.5C2840.51 1594.5 2833.5 1587.49 2833.5 1578.83Z" stroke="#022B52" stroke-width="4.58333" stroke-linejoin="round" stroke-miterlimit="10" fill="#CAFBED" fill-rule="evenodd"/><text fill="#17406D" font-family="Meiryo UI,Meiryo UI_MSFontService,sans-serif" font-weight="400" font-size="46" transform="matrix(1 0 0 1 2890.52 1566)">Web </text><text fill="#17406D" font-family="Meiryo UI,Meiryo UI_MSFontService,sans-serif" font-weight="400" font-size="46" transform="matrix(1 0 0 1 3006.25 1566)">アプリ</text><path d="M0.919189-0.684124 162.988 217.072 161.15 218.44-0.919189 0.684124ZM170.363 205.87 175.752 236.14 148.302 222.289Z" transform="matrix(-1 0 0 1 2360.75 1014)"/><path d="M0.534486-1.01354 147.882 76.6898 146.813 78.7169-0.534486 1.01354ZM149.707 63.4029 167.618 88.393 136.88 87.7278Z" transform="matrix(-1 0 0 1 2360.62 1181)"/><path d="M2360.01 1373.95 2211.87 1282.05 2213.08 1280.11 2361.22 1372ZM2209.12 1295.18 2193 1269 2223.62 1271.81Z"/><path d="M2359.8 1547.89 2196.95 1308.59 2198.84 1307.3 2361.7 1546.6ZM2189.1 1319.47 2185 1289 2211.84 1304Z"/><path d="M2731 1012.85 2810.54 1012.85 2810.54 1015.15 2731 1015.15ZM2805.96 1000.25 2833.46 1014 2805.96 1027.75Z"/><path d="M2731 1179.85 2810.54 1179.85 2810.54 1182.15 2731 1182.15ZM2805.96 1167.25 2833.46 1181 2805.96 1194.75Z"/><path d="M0.00348715-1.14583 79.5435-0.90376 79.5366 1.3879-0.00348715 1.14583ZM74.9986-13.5218 102.457 0.311811 74.9149 13.9781Z" transform="matrix(1 0 0 -1 2731 1373.31)"/><path d="M2731 1545.85 2810.54 1545.85 2810.54 1548.15 2731 1548.15ZM2805.96 1533.25 2833.46 1547 2805.96 1560.75Z"/><path d="M2381 974.5 2371.8 966 2376.05 966C2373.52 950.988 2364.71 940.5 2354.62 940.5L2363.12 940.5C2373.21 940.5 2382.02 950.988 2384.55 966L2388.8 966Z" fill="#94F5FA" fill-rule="evenodd"/><path d="M2358.87 941.133C2348.49 944.256 2341 958.24 2341 974.5L2332.5 974.5C2332.5 955.722 2342.41 940.5 2354.62 940.5 2356.05 940.5 2357.47 940.712 2358.87 941.133Z" fill="#77C5C9" fill-rule="evenodd"/><path d="M2358.87 941.133C2348.49 944.256 2341 958.24 2341 974.5L2332.5 974.5C2332.5 955.722 2342.41 940.5 2354.62 940.5L2363.12 940.5C2373.21 940.5 2382.02 950.988 2384.55 966L2388.8 966 2381 974.5 2371.8 966 2376.05 966C2373.52 950.988 2364.71 940.5 2354.62 940.5" stroke="#022B52" stroke-width="4.58333" stroke-linejoin="round" stroke-miterlimit="10" fill="none" fill-rule="evenodd"/><path d="M2341.25 974.5 2350.7 983.25 2346.32 983.25C2348.82 998.703 2357.56 1009.5 2367.56 1009.5L2358.81 1009.5C2348.81 1009.5 2340.07 998.703 2337.57 983.25L2333.2 983.25Z" fill="#94F5FA" fill-rule="evenodd"/><path d="M2363.19 1008.8C2373.41 1005.48 2380.75 991.139 2380.75 974.5L2389.5 974.5C2389.5 993.83 2379.68 1009.5 2367.56 1009.5 2366.09 1009.5 2364.63 1009.26 2363.19 1008.8Z" fill="#77C5C9" fill-rule="evenodd"/><path d="M2363.19 1008.8C2373.41 1005.48 2380.75 991.139 2380.75 974.5L2389.5 974.5C2389.5 993.83 2379.68 1009.5 2367.56 1009.5L2358.81 1009.5C2348.81 1009.5 2340.07 998.703 2337.57 983.25L2333.2 983.25 2341.25 974.5 2350.7 983.25 2346.32 983.25C2348.82 998.703 2357.56 1009.5 2367.56 1009.5" stroke="#022B52" stroke-width="4.58333" stroke-linejoin="round" stroke-miterlimit="10" fill="none" fill-rule="evenodd"/><path d="M2384 1139.5 2374.8 1131 2379.05 1131C2376.53 1115.99 2367.71 1105.5 2357.62 1105.5L2366.12 1105.5C2376.21 1105.5 2385.03 1115.99 2387.55 1131L2391.8 1131Z" fill="#94F5FA" fill-rule="evenodd"/><path d="M2361.88 1106.13C2351.49 1109.26 2344 1123.24 2344 1139.5L2335.5 1139.5C2335.5 1120.72 2345.41 1105.5 2357.62 1105.5 2359.05 1105.5 2360.48 1105.71 2361.88 1106.13Z" fill="#77C5C9" fill-rule="evenodd"/><path d="M2361.88 1106.13C2351.49 1109.26 2344 1123.24 2344 1139.5L2335.5 1139.5C2335.5 1120.72 2345.41 1105.5 2357.62 1105.5L2366.12 1105.5C2376.21 1105.5 2385.03 1115.99 2387.55 1131L2391.8 1131 2384 1139.5 2374.8 1131 2379.05 1131C2376.53 1115.99 2367.71 1105.5 2357.62 1105.5" stroke="#022B52" stroke-width="4.58333" stroke-linejoin="round" stroke-miterlimit="10" fill="none" fill-rule="evenodd"/><path d="M2343 1139.5 2352.2 1148 2347.95 1148C2350.47 1163.01 2359.29 1173.5 2369.38 1173.5L2360.88 1173.5C2350.79 1173.5 2341.97 1163.01 2339.45 1148L2335.2 1148Z" fill="#94F5FA" fill-rule="evenodd"/><path d="M2365.12 1172.87C2375.51 1169.74 2383 1155.76 2383 1139.5L2391.5 1139.5C2391.5 1158.28 2381.59 1173.5 2369.38 1173.5 2367.95 1173.5 2366.52 1173.29 2365.12 1172.87Z" fill="#77C5C9" fill-rule="evenodd"/><path d="M2365.12 1172.87C2375.51 1169.74 2383 1155.76 2383 1139.5L2391.5 1139.5C2391.5 1158.28 2381.59 1173.5 2369.38 1173.5L2360.88 1173.5C2350.79 1173.5 2341.97 1163.01 2339.45 1148L2335.2 1148 2343 1139.5 2352.2 1148 2347.95 1148C2350.47 1163.01 2359.29 1173.5 2369.38 1173.5" stroke="#022B52" stroke-width="4.58333" stroke-linejoin="round" stroke-miterlimit="10" fill="none" fill-rule="evenodd"/><path d="M2384.75 1332.5 2375.3 1323.75 2379.68 1323.75C2377.18 1308.3 2368.44 1297.5 2358.44 1297.5L2367.19 1297.5C2377.19 1297.5 2385.93 1308.3 2388.43 1323.75L2392.8 1323.75Z" fill="#94F5FA" fill-rule="evenodd"/><path d="M2362.81 1298.2C2352.59 1301.52 2345.25 1315.86 2345.25 1332.5L2336.5 1332.5C2336.5 1313.17 2346.32 1297.5 2358.44 1297.5 2359.91 1297.5 2361.37 1297.74 2362.81 1298.2Z" fill="#77C5C9" fill-rule="evenodd"/><path d="M2362.81 1298.2C2352.59 1301.52 2345.25 1315.86 2345.25 1332.5L2336.5 1332.5C2336.5 1313.17 2346.32 1297.5 2358.44 1297.5L2367.19 1297.5C2377.19 1297.5 2385.93 1308.3 2388.43 1323.75L2392.8 1323.75 2384.75 1332.5 2375.3 1323.75 2379.68 1323.75C2377.18 1308.3 2368.44 1297.5 2358.44 1297.5" stroke="#022B52" stroke-width="4.58333" stroke-linejoin="round" stroke-miterlimit="10" fill="none" fill-rule="evenodd"/><path d="M2345 1332.5 2354.2 1341 2349.95 1341C2352.47 1356.01 2361.29 1366.5 2371.38 1366.5L2362.88 1366.5C2352.79 1366.5 2343.97 1356.01 2341.45 1341L2337.2 1341Z" fill="#94F5FA" fill-rule="evenodd"/><path d="M2367.12 1365.87C2377.51 1362.74 2385 1348.76 2385 1332.5L2393.5 1332.5C2393.5 1351.28 2383.59 1366.5 2371.38 1366.5 2369.95 1366.5 2368.52 1366.29 2367.12 1365.87Z" fill="#77C5C9" fill-rule="evenodd"/><path d="M2367.12 1365.87C2377.51 1362.74 2385 1348.76 2385 1332.5L2393.5 1332.5C2393.5 1351.28 2383.59 1366.5 2371.38 1366.5L2362.88 1366.5C2352.79 1366.5 2343.97 1356.01 2341.45 1341L2337.2 1341 2345 1332.5 2354.2 1341 2349.95 1341C2352.47 1356.01 2361.29 1366.5 2371.38 1366.5" stroke="#022B52" stroke-width="4.58333" stroke-linejoin="round" stroke-miterlimit="10" fill="none" fill-rule="evenodd"/><path d="M2383 1496.5 2373.8 1488 2378.05 1488C2375.53 1472.99 2366.71 1462.5 2356.62 1462.5L2365.12 1462.5C2375.21 1462.5 2384.03 1472.99 2386.55 1488L2390.8 1488Z" fill="#94F5FA" fill-rule="evenodd"/><path d="M2360.88 1463.13C2350.49 1466.26 2343 1480.24 2343 1496.5L2334.5 1496.5C2334.5 1477.72 2344.41 1462.5 2356.62 1462.5 2358.05 1462.5 2359.48 1462.71 2360.88 1463.13Z" fill="#77C5C9" fill-rule="evenodd"/><path d="M2360.88 1463.13C2350.49 1466.26 2343 1480.24 2343 1496.5L2334.5 1496.5C2334.5 1477.72 2344.41 1462.5 2356.62 1462.5L2365.12 1462.5C2375.21 1462.5 2384.03 1472.99 2386.55 1488L2390.8 1488 2383 1496.5 2373.8 1488 2378.05 1488C2375.53 1472.99 2366.71 1462.5 2356.62 1462.5" stroke="#022B52" stroke-width="4.58333" stroke-linejoin="round" stroke-miterlimit="10" fill="none" fill-rule="evenodd"/><path d="M2343 1496.5 2352.2 1505 2347.95 1505C2350.47 1520.01 2359.29 1530.5 2369.38 1530.5L2360.88 1530.5C2350.79 1530.5 2341.97 1520.01 2339.45 1505L2335.2 1505Z" fill="#94F5FA" fill-rule="evenodd"/><path d="M2365.12 1529.87C2375.51 1526.74 2383 1512.76 2383 1496.5L2391.5 1496.5C2391.5 1515.28 2381.59 1530.5 2369.38 1530.5 2367.95 1530.5 2366.52 1530.29 2365.12 1529.87Z" fill="#77C5C9" fill-rule="evenodd"/><path d="M2365.12 1529.87C2375.51 1526.74 2383 1512.76 2383 1496.5L2391.5 1496.5C2391.5 1515.28 2381.59 1530.5 2369.38 1530.5L2360.88 1530.5C2350.79 1530.5 2341.97 1520.01 2339.45 1505L2335.2 1505 2343 1496.5 2352.2 1505 2347.95 1505C2350.47 1520.01 2359.29 1530.5 2369.38 1530.5" stroke="#022B52" stroke-width="4.58333" stroke-linejoin="round" stroke-miterlimit="10" fill="none" fill-rule="evenodd"/><text font-family="Meiryo UI,Meiryo UI_MSFontService,sans-serif" font-weight="400" font-size="46" transform="matrix(1 0 0 1 1928.85 1384)">②リクエストキュー</text><text font-family="Meiryo UI,Meiryo UI_MSFontService,sans-serif" font-weight="400" font-size="55" transform="matrix(1 0 0 1 1417.05 874)">HTTP </text><text font-family="Meiryo UI,Meiryo UI_MSFontService,sans-serif" font-weight="400" font-size="55" transform="matrix(1 0 0 1 1580.17 874)">サーバー</text><text font-family="Meiryo UI,Meiryo UI_MSFontService,sans-serif" font-weight="400" font-size="55" transform="matrix(1 0 0 1 1779.54 874)">(</text><text font-family="Meiryo UI,Meiryo UI_MSFontService,sans-serif" font-weight="400" font-size="55" transform="matrix(1 0 0 1 1803.61 874)">サービス・デーモン）</text></g></svg>