<svg width="1833" height="674" xmlns="http://www.w3.org/2000/svg" xmlns:xlink="http://www.w3.org/1999/xlink" xml:space="preserve" overflow="hidden"><defs><linearGradient x1="676.529" y1="1145.96" x2="676.529" y2="905.412" gradientUnits="userSpaceOnUse" spreadMethod="reflect" id="fill0"><stop offset="0" stop-color="#0A4A85"/><stop offset="0.48" stop-color="#1074CE"/><stop offset="1" stop-color="#59AAF2"/></linearGradient><linearGradient x1="676.529" y1="932.827" x2="676.529" y2="710.852" gradientUnits="userSpaceOnUse" spreadMethod="reflect" id="fill1"><stop offset="0" stop-color="#0A4A85"/><stop offset="0.48" stop-color="#1074CE"/><stop offset="1" stop-color="#59AAF2"/></linearGradient><linearGradient x1="1705.94" y1="1721.7" x2="1705.94" y2="1481.14" gradientUnits="userSpaceOnUse" spreadMethod="reflect" id="fill2"><stop offset="0" stop-color="#4C9633"/><stop offset="0.48" stop-color="#80CC67"/><stop offset="1" stop-color="#B0DFA1"/></linearGradient><linearGradient x1="1705.94" y1="1508.56" x2="1705.94" y2="1286.58" gradientUnits="userSpaceOnUse" spreadMethod="reflect" id="fill3"><stop offset="0" stop-color="#4C9633"/><stop offset="0.48" stop-color="#80CC67"/><stop offset="1" stop-color="#B0DFA1"/></linearGradient></defs><g transform="translate(-928 -1640)"><g><g><g><path d="M837.493 1145.96C856.688 1145.96 872.238 1130.21 872.238 1110.77 872.481 1109.4 872.481 1108.01 872.238 1106.64 858.328 995.716 796.31 905.412 676.528 905.412 556.775 905.412 493.057 981.875 480.848 1106.89 478.753 1126.35 492.662 1143.82 511.857 1145.93 511.978 1145.95 512.1 1145.95 512.221 1145.96L837.493 1145.96Z" fill="url(#fill0)" fill-rule="evenodd" transform="matrix(1.00085 0 0 1 553.372 985.842)"/><path d="M677.457 932.739C656.278 932.73 635.523 926.619 617.717 915.14L677.457 1069.91 736.224 916.113C718.63 927.141 698.242 932.907 677.457 932.739Z" fill="#FFFFFF" fill-rule="evenodd" fill-opacity="0.8" transform="matrix(1.00085 0 0 1 553.372 985.842)"/><path d="M787.518 821.842C787.518 883.141 737.832 932.827 676.529 932.827 615.226 932.827 565.539 883.141 565.539 821.842 565.539 760.545 615.226 710.852 676.529 710.852 737.832 710.852 787.518 760.545 787.518 821.842Z" fill="url(#fill1)" fill-rule="evenodd" transform="matrix(1.00085 0 0 1 553.372 985.842)"/></g></g></g><g><g><g><path d="M1866.91 1721.7C1886.11 1721.7 1901.66 1705.94 1901.66 1686.51 1901.9 1685.14 1901.9 1683.74 1901.66 1682.38 1887.75 1571.45 1825.73 1481.14 1705.94 1481.14 1586.19 1481.14 1522.48 1557.61 1510.27 1682.62 1508.17 1702.08 1522.08 1719.56 1541.27 1721.66 1541.4 1721.68 1541.52 1721.69 1541.64 1721.7L1866.91 1721.7Z" fill="url(#fill2)" fill-rule="evenodd" transform="matrix(1.00085 0 0 1 731.075 410.11)"/><path d="M1706.87 1507.69C1685.7 1507.68 1664.94 1501.53 1647.13 1489.99L1706.87 1645.64 1765.64 1490.96C1748.05 1502.06 1727.66 1507.86 1706.87 1507.69Z" fill="#FFFFFF" fill-rule="evenodd" fill-opacity="0.8" transform="matrix(1.00085 0 0 1 731.075 410.11)"/><path d="M1816.93 1397.57C1816.93 1458.88 1767.25 1508.56 1705.94 1508.56 1644.65 1508.56 1594.95 1458.88 1594.95 1397.57 1594.95 1336.27 1644.65 1286.58 1705.94 1286.58 1767.25 1286.58 1816.93 1336.27 1816.93 1397.57Z" fill="url(#fill3)" fill-rule="evenodd" transform="matrix(1.00085 0 0 1 731.075 410.11)"/></g></g></g><path d="M1492 1735.85 2134.69 1735.85 2134.69 1738.15 1492 1738.15ZM2130.1 1723.25 2157.6 1737 2130.1 1750.75Z" fill="#0F6FC6"/><text font-family="Meiryo UI,Meiryo UI_MSFontService,sans-serif" font-weight="400" font-size="55" transform="matrix(1 0 0 1 1505.3 1712)">終わったら</text><text font-family="Meiryo UI,Meiryo UI_MSFontService,sans-serif" font-weight="400" font-size="55" transform="matrix(1 0 0 1 1721.86 1712)">ベルを鳴らして</text><path d="M6.21276e-07-1.14583 642.685-1.14548 642.685 1.14618-6.21276e-07 1.14583ZM638.102-13.7497 665.602 0.000360892 638.102 13.7503Z" fill="#0F6FC6" transform="matrix(-1 0 0 1 2157.6 1771)"/><text font-family="Meiryo UI,Meiryo UI_MSFontService,sans-serif" font-weight="400" font-size="55" transform="matrix(1 0 0 1 2034.73 1839)">了解</text><path d="M7.58661e-07-1.14583 522.153-1.14549 522.153 1.14618-7.58661e-07 1.14583ZM517.569-13.7497 545.069 0.000360892 517.569 13.7503Z" fill="#0F6FC6" transform="matrix(-1 0 0 1 2200.07 2066)"/><text font-family="Meiryo UI,Meiryo UI_MSFontService,sans-serif" font-weight="400" font-size="55" transform="matrix(1 0 0 1 1879.08 2040)">終わったよ！</text><path d="M2137 2214.67C2137 2205.46 2144.46 2198 2153.67 2198L2743.33 2198C2752.54 2198 2760 2205.46 2760 2214.67L2760 2281.33C2760 2290.54 2752.54 2298 2743.33 2298L2153.67 2298C2144.46 2298 2137 2290.54 2137 2281.33Z" stroke="#A6A6A6" stroke-width="2.29167" stroke-linejoin="round" stroke-miterlimit="10" fill="#D9D9D9" fill-rule="evenodd"/><text font-family="Meiryo UI,Meiryo UI_MSFontService,sans-serif" font-weight="400" font-size="55" transform="matrix(1 0 0 1 2285.8 2270)">ワーカースレッド</text><path d="M929 2214.67C929 2205.46 936.462 2198 945.667 2198L1535.33 2198C1544.54 2198 1552 2205.46 1552 2214.67L1552 2281.33C1552 2290.54 1544.54 2298 1535.33 2298L945.667 2298C936.462 2298 929 2290.54 929 2281.33Z" stroke="#A6A6A6" stroke-width="2.29167" stroke-linejoin="round" stroke-miterlimit="10" fill="#D9D9D9" fill-rule="evenodd"/><text font-family="Meiryo UI,Meiryo UI_MSFontService,sans-serif" font-weight="400" font-size="55" transform="matrix(1 0 0 1 1103.45 2270)">メインスレッド</text><g><g><g><path d="M135.675 118.8C129.431 104.962 114.075 100.069 113.062 59.0625L113.062 59.2312C112.556 47.4187 105.637 37.4625 95.8499 32.4 96.1874 31.2187 96.3562 30.0375 96.3562 28.8562 96.3562 20.4187 89.6062 13.6687 81.1687 13.6687 72.7312 13.6687 65.9812 20.4187 65.9812 28.8562 65.9812 30.0375 66.15 31.3875 66.4875 32.4 56.7 37.4625 49.7812 47.5875 49.275 59.2312L49.275 59.0625C48.2625 100.069 32.9062 104.962 26.6625 118.8 24.975 120.994 23.9625 123.187 23.9625 125.719 23.625 138.375 49.275 148.5 80.9999 148.5 112.725 148.5 138.375 138.375 138.375 125.719 138.375 123.356 137.531 120.994 135.675 118.8ZM80.9999 20.25C85.7249 20.25 89.4374 23.9625 89.4374 28.6875 89.4374 29.025 89.4374 29.3625 89.2687 29.8687 86.7374 29.025 83.8687 28.6875 80.9999 28.6875 78.1312 28.6875 75.2625 29.025 72.7312 29.8687 72.7312 29.5312 72.5625 29.1937 72.5625 28.6875 72.5625 23.9625 76.275 20.25 80.9999 20.25ZM80.9999 138.375C51.4687 138.375 35.4375 129.431 33.75 125.719 35.1 122.512 48.0937 114.919 71.8875 113.4 71.2125 114.75 70.7062 116.437 70.7062 118.125 70.7062 123.694 75.2625 128.25 80.9999 128.25 86.7374 128.25 91.2937 123.694 91.2937 118.125 91.2937 116.437 90.7874 114.75 90.1124 113.4 113.906 114.919 126.9 122.512 128.25 125.719 126.562 129.431 110.531 138.375 80.9999 138.375Z" fill="#59AAF2" transform="matrix(1.00618 0 0 1 1492 1985)"/></g></g></g></g></svg>