<svg width="1833" height="619" xmlns="http://www.w3.org/2000/svg" xmlns:xlink="http://www.w3.org/1999/xlink" xml:space="preserve" overflow="hidden"><defs><linearGradient x1="676.53" y1="1145.96" x2="676.53" y2="905.412" gradientUnits="userSpaceOnUse" spreadMethod="reflect" id="fill0"><stop offset="0" stop-color="#0A4A85"/><stop offset="0.48" stop-color="#1074CE"/><stop offset="1" stop-color="#59AAF2"/></linearGradient><linearGradient x1="676.529" y1="932.828" x2="676.529" y2="710.853" gradientUnits="userSpaceOnUse" spreadMethod="reflect" id="fill1"><stop offset="0" stop-color="#0A4A85"/><stop offset="0.48" stop-color="#1074CE"/><stop offset="1" stop-color="#59AAF2"/></linearGradient><linearGradient x1="1703.06" y1="1718.78" x2="1703.06" y2="1478.64" gradientUnits="userSpaceOnUse" spreadMethod="reflect" id="fill2"><stop offset="0" stop-color="#4C9633"/><stop offset="0.48" stop-color="#80CC67"/><stop offset="1" stop-color="#B0DFA1"/></linearGradient><linearGradient x1="1703.06" y1="1506" x2="1703.06" y2="1284.4" gradientUnits="userSpaceOnUse" spreadMethod="reflect" id="fill3"><stop offset="0" stop-color="#4C9633"/><stop offset="0.48" stop-color="#80CC67"/><stop offset="1" stop-color="#B0DFA1"/></linearGradient></defs><g transform="translate(-2332 -633)"><g><g><g><path d="M837.494 1145.96C856.688 1145.96 872.238 1130.21 872.238 1110.77 872.482 1109.4 872.482 1108.01 872.238 1106.64 858.329 995.717 796.311 905.412 676.528 905.412 556.776 905.412 493.057 981.876 480.848 1106.89 478.753 1126.35 492.663 1143.82 511.857 1145.93 511.978 1145.95 512.1 1145.96 512.222 1145.96L837.494 1145.96Z" fill="url(#fill0)" fill-rule="evenodd" transform="matrix(1.00085 0 0 1 1957.37 -77.1588)"/><path d="M677.458 932.74C656.279 932.731 635.524 926.62 617.718 915.141L677.458 1069.91 736.225 916.113C718.631 927.142 698.242 932.908 677.458 932.74Z" fill="#FFFFFF" fill-rule="evenodd" fill-opacity="0.8" transform="matrix(1.00085 0 0 1 1957.37 -77.1588)"/><path d="M787.519 821.843C787.519 883.142 737.833 932.828 676.529 932.828 615.226 932.828 565.539 883.142 565.539 821.843 565.539 760.545 615.226 710.853 676.529 710.853 737.833 710.853 787.519 760.545 787.519 821.843Z" fill="url(#fill1)" fill-rule="evenodd" transform="matrix(1.00085 0 0 1 1957.37 -77.1588)"/></g></g></g><g><g><g><path d="M1863.75 1718.78C1882.92 1718.78 1898.44 1703.06 1898.44 1683.65 1898.68 1682.28 1898.68 1680.89 1898.44 1679.53 1884.55 1568.79 1822.64 1478.64 1703.06 1478.64 1583.5 1478.64 1519.9 1554.97 1507.71 1679.77 1505.62 1699.2 1519.5 1716.64 1538.66 1718.74 1538.79 1718.76 1538.91 1718.77 1539.03 1718.78L1863.75 1718.78Z" fill="url(#fill2)" fill-rule="evenodd" transform="matrix(1 0 0 1.0017 2139.92 -652.891)"/><path d="M1703.98 1505.14C1682.85 1505.12 1662.13 1498.99 1644.34 1487.46L1703.98 1642.85 1762.65 1488.44C1745.09 1499.52 1724.74 1505.31 1703.98 1505.14Z" fill="#FFFFFF" fill-rule="evenodd" fill-opacity="0.8" transform="matrix(1 0 0 1.0017 2139.92 -652.891)"/><path d="M1813.86 1395.2C1813.86 1456.4 1764.26 1506 1703.06 1506 1641.86 1506 1592.25 1456.4 1592.25 1395.2 1592.25 1334.01 1641.86 1284.4 1703.06 1284.4 1764.26 1284.4 1813.86 1334.01 1813.86 1395.2Z" fill="url(#fill3)" fill-rule="evenodd" transform="matrix(1 0 0 1.0017 2139.92 -652.891)"/></g></g></g><path d="M3541 1151.67C3541 1142.46 3548.46 1135 3557.67 1135L4147.33 1135C4156.54 1135 4164 1142.46 4164 1151.67L4164 1218.33C4164 1227.54 4156.54 1235 4147.33 1235L3557.67 1235C3548.46 1235 3541 1227.54 3541 1218.33Z" stroke="#A6A6A6" stroke-width="2.29167" stroke-linejoin="round" stroke-miterlimit="10" fill="#D9D9D9" fill-rule="evenodd"/><text font-family="Meiryo UI,Meiryo UI_MSFontService,sans-serif" font-weight="400" font-size="55" transform="matrix(1 0 0 1 3690.3 1207)">ワーカースレッド</text><path d="M2333 1151.67C2333 1142.46 2340.46 1135 2349.67 1135L2939.33 1135C2948.54 1135 2956 1142.46 2956 1151.67L2956 1218.33C2956 1227.54 2948.54 1235 2939.33 1235L2349.67 1235C2340.46 1235 2333 1227.54 2333 1218.33Z" stroke="#A6A6A6" stroke-width="2.29167" stroke-linejoin="round" stroke-miterlimit="10" fill="#D9D9D9" fill-rule="evenodd"/><text font-family="Meiryo UI,Meiryo UI_MSFontService,sans-serif" font-weight="400" font-size="55" transform="matrix(1 0 0 1 2507.95 1207)">メインスレッド</text><text font-family="Meiryo UI,Meiryo UI_MSFontService,sans-serif" font-weight="400" font-size="55" transform="matrix(1 0 0 1 2912.68 761)">監視</text><g><g><g><path d="M3100 794.545 3052.19 818.587 3052.19 848.413 3100 872.455 3100 794.545Z" fill="#C2C2C2"/><path d="M3036.31 785.694 2877 785.694 2877 881.306 3036.31 881.306ZM2998.19 849.458C2989.37 849.497 2982.2 842.383 2982.16 833.57 2982.12 824.756 2989.23 817.581 2998.05 817.542 3006.86 817.503 3014.04 824.617 3014.08 833.43 3014.08 833.453 3014.08 833.477 3014.08 833.5 3014.08 842.286 3006.97 849.42 2998.19 849.458Z" fill="#C2C2C2"/><path d="M3014.14 833.5C3014.14 842.314 3007 849.458 2998.19 849.458 2989.37 849.458 2982.23 842.314 2982.23 833.5 2982.23 824.686 2989.37 817.542 2998.19 817.542 3007 817.542 3014.14 824.686 3014.14 833.5Z" fill="#0078D4"/></g></g></g><path d="M3100 832.854 3109.17 832.854 3109.17 835.146 3100 835.146ZM3116.04 832.854 3125.21 832.854 3125.21 835.146 3116.04 835.146ZM3132.08 832.854 3141.25 832.854 3141.25 835.146 3132.08 835.146ZM3148.12 832.854 3157.29 832.854 3157.29 835.146 3148.12 835.146ZM3164.17 832.854 3173.33 832.854 3173.33 835.146 3164.17 835.146ZM3180.21 832.854 3189.38 832.854 3189.38 835.146 3180.21 835.146ZM3196.25 832.854 3205.42 832.854 3205.42 835.146 3196.25 835.146ZM3212.29 832.854 3221.46 832.854 3221.46 835.146 3212.29 835.146ZM3228.33 832.854 3237.5 832.854 3237.5 835.146 3228.33 835.146ZM3244.38 832.854 3253.54 832.854 3253.54 835.146 3244.38 835.146ZM3260.42 832.854 3269.58 832.854 3269.58 835.146 3260.42 835.146ZM3276.46 832.854 3285.62 832.854 3285.62 835.146 3276.46 835.146ZM3292.5 832.854 3301.67 832.854 3301.67 835.146 3292.5 835.146ZM3308.54 832.854 3317.71 832.854 3317.71 835.146 3308.54 835.146ZM3324.58 832.854 3333.75 832.854 3333.75 835.146 3324.58 835.146ZM3340.62 832.854 3349.79 832.854 3349.79 835.146 3340.62 835.146ZM3356.67 832.854 3365.83 832.854 3365.83 835.146 3356.67 835.146ZM3372.71 832.854 3381.88 832.854 3381.88 835.146 3372.71 835.146ZM3388.75 832.854 3397.92 832.854 3397.92 835.146 3388.75 835.146ZM3404.79 832.854 3413.96 832.854 3413.96 835.146 3404.79 835.146ZM3420.83 832.854 3430 832.854 3430 835.146 3420.83 835.146ZM3436.88 832.854 3446.04 832.854 3446.04 835.146 3436.88 835.146ZM3452.92 832.854 3462.08 832.854 3462.08 835.146 3452.92 835.146ZM3468.96 832.854 3478.12 832.854 3478.12 835.146 3468.96 835.146ZM3485 832.854 3494.17 832.854 3494.17 835.146 3485 835.146ZM3501.04 832.854 3510.21 832.854 3510.21 835.146 3501.04 835.146ZM3517.08 832.854 3526.25 832.854 3526.25 835.146 3517.08 835.146ZM3533.12 832.854 3542.29 832.854 3542.29 835.146 3533.12 835.146ZM3549.17 832.854 3558.33 832.854 3558.33 835.146 3549.17 835.146ZM3565.21 832.854 3574.38 832.854 3574.38 835.146 3565.21 835.146ZM3581.25 832.854 3590.42 832.854 3590.42 835.146 3581.25 835.146ZM3597.29 832.854 3597.69 832.854 3597.69 835.146 3597.29 835.146ZM3593.1 820.25 3620.6 834 3593.1 847.75Z" fill="#0F6FC6"/></g></svg>