<svg width="3671" height="1367" xmlns="http://www.w3.org/2000/svg" xmlns:xlink="http://www.w3.org/1999/xlink" xml:space="preserve" overflow="hidden"><g transform="translate(-327 -911)"><rect x="786.5" y="1010.5" width="636" height="221" stroke="#0F6FC6" stroke-width="4.58333" stroke-linejoin="round" stroke-miterlimit="10" fill="none"/><text font-family="Meiryo,Meiryo_MSFontService,sans-serif" font-weight="400" font-size="55" transform="matrix(1 0 0 1 1021.89 1102)">前処理</text><text font-family="Meiryo,Meiryo_MSFontService,sans-serif" font-weight="400" font-size="55" transform="matrix(1 0 0 1 968.108 1168)">(</text><text font-family="Meiryo,Meiryo_MSFontService,sans-serif" font-weight="400" font-size="55" transform="matrix(1 0 0 1 992.17 1168)">Pre Task</text><text font-family="Meiryo,Meiryo_MSFontService,sans-serif" font-weight="400" font-size="55" transform="matrix(1 0 0 1 1216.62 1168)">)</text><path d="M520 1122C520 1107.64 531.641 1096 546 1096 560.359 1096 572 1107.64 572 1122 572 1136.36 560.359 1148 546 1148 531.641 1148 520 1136.36 520 1122Z" fill-rule="evenodd"/><path d="M0.00434576-1.14583 191.567-0.419289 191.558 1.87236-0.00434576 1.14583ZM187.031-13.0407 214.479 0.813451 186.927 14.4591Z" fill="#0F6FC6" transform="matrix(1 0 0 -1 572 1121.81)"/><rect x="1970.5" y="1357.5" width="636" height="221" stroke="#10CF9B" stroke-width="4.58333" stroke-linejoin="round" stroke-miterlimit="10" fill="none"/><text font-family="Meiryo,Meiryo_MSFontService,sans-serif" font-weight="400" font-size="55" transform="matrix(1 0 0 1 2150.52 1448)">業務処理１</text><text font-family="Meiryo,Meiryo_MSFontService,sans-serif" font-weight="400" font-size="55" transform="matrix(1 0 0 1 2072.51 1514)">(</text><text font-family="Meiryo,Meiryo_MSFontService,sans-serif" font-weight="400" font-size="55" transform="matrix(1 0 0 1 2096.57 1514)">Work</text><text font-family="Meiryo,Meiryo_MSFontService,sans-serif" font-weight="400" font-size="55" transform="matrix(1 0 0 1 2234.39 1514)">er</text><text font-family="Meiryo,Meiryo_MSFontService,sans-serif" font-weight="400" font-size="55" transform="matrix(1 0 0 1 2307.73 1514)">Task 1)</text><path d="M0-1.14583 298.872-1.14583C299.505-1.14583 300.018-0.632826 300.018 0L300.018 344.914 297.726 344.914 297.726 0 298.872 1.14583 0 1.14583ZM312.622 340.33 298.872 367.83 285.122 340.33Z" fill="#10CF9B" transform="matrix(1.83697e-16 1 1 -1.83697e-16 1602 1168)"/><rect x="3043.5" y="1010.5" width="636" height="221" stroke="#0F6FC6" stroke-width="4.58333" stroke-linejoin="round" stroke-miterlimit="10" fill="none"/><text font-family="Meiryo,Meiryo_MSFontService,sans-serif" font-weight="400" font-size="55" transform="matrix(1 0 0 1 3278.43 1102)">後処理</text><text font-family="Meiryo,Meiryo_MSFontService,sans-serif" font-weight="400" font-size="55" transform="matrix(1 0 0 1 3212.11 1168)">(Post Task)</text><path d="M0-1.14583 269.357-1.14583C269.99-1.14583 270.503-0.632826 270.503 0L270.503 629.656 268.211 629.656 268.211 0 269.357 1.14583 0 1.14583ZM283.107 625.072 269.357 652.572 255.607 625.072Z" fill="#10CF9B" transform="matrix(1 0 0 -1 2606 1821.57)"/><path d="M3896 1121C3896 1108.85 3906.07 1099 3918.5 1099 3930.93 1099 3941 1108.85 3941 1121 3941 1133.15 3930.93 1143 3918.5 1143 3906.07 1143 3896 1133.15 3896 1121Z" fill-rule="evenodd"/><path d="M3883.5 1121.5C3883.5 1103.27 3898.05 1088.5 3916 1088.5 3933.95 1088.5 3948.5 1103.27 3948.5 1121.5 3948.5 1139.73 3933.95 1154.5 3916 1154.5 3898.05 1154.5 3883.5 1139.73 3883.5 1121.5Z" stroke="#000000" stroke-width="3.4375" stroke-linejoin="round" stroke-miterlimit="10" fill="none" fill-rule="evenodd"/><path d="M3679 1119.85 3860.05 1119.85 3860.05 1122.15 3679 1122.15ZM3855.46 1107.25 3882.96 1121 3855.46 1134.75Z" fill="#0F6FC6"/><text font-family="Meiryo,Meiryo_MSFontService,sans-serif" font-weight="400" font-size="46" transform="matrix(1 0 0 1 362.592 1215)">エントリポイント</text><text font-family="Meiryo,Meiryo_MSFontService,sans-serif" font-weight="400" font-size="46" transform="matrix(1 0 0 1 431.342 1270)">（開始点）</text><text font-family="Meiryo,Meiryo_MSFontService,sans-serif" font-weight="400" font-size="46" transform="matrix(1 0 0 1 3871.85 1206)">終了</text><rect x="1970.5" y="1711.5" width="636" height="221" stroke="#10CF9B" stroke-width="4.58333" stroke-linejoin="round" stroke-miterlimit="10" fill="none"/><text font-family="Meiryo,Meiryo_MSFontService,sans-serif" font-weight="400" font-size="55" transform="matrix(1 0 0 1 2150.52 1802)">業務処理２</text><text font-family="Meiryo,Meiryo_MSFontService,sans-serif" font-weight="400" font-size="55" transform="matrix(1 0 0 1 2072.51 1868)">(</text><text font-family="Meiryo,Meiryo_MSFontService,sans-serif" font-weight="400" font-size="55" transform="matrix(1 0 0 1 2096.57 1868)">Work</text><text font-family="Meiryo,Meiryo_MSFontService,sans-serif" font-weight="400" font-size="55" transform="matrix(1 0 0 1 2234.39 1868)">er</text><text font-family="Meiryo,Meiryo_MSFontService,sans-serif" font-weight="400" font-size="55" transform="matrix(1 0 0 1 2307.73 1868)">Task 2)</text><rect x="1970.5" y="2054.5" width="636" height="221" stroke="#10CF9B" stroke-width="4.58333" stroke-linejoin="round" stroke-miterlimit="10" fill="none"/><text font-family="Meiryo,Meiryo_MSFontService,sans-serif" font-weight="400" font-size="55" transform="matrix(1 0 0 1 2150.52 2146)">業務処理３</text><text font-family="Meiryo,Meiryo_MSFontService,sans-serif" font-weight="400" font-size="55" transform="matrix(1 0 0 1 2072.51 2212)">(</text><text font-family="Meiryo,Meiryo_MSFontService,sans-serif" font-weight="400" font-size="55" transform="matrix(1 0 0 1 2096.57 2212)">Work</text><text font-family="Meiryo,Meiryo_MSFontService,sans-serif" font-weight="400" font-size="55" transform="matrix(1 0 0 1 2234.39 2212)">er</text><text font-family="Meiryo,Meiryo_MSFontService,sans-serif" font-weight="400" font-size="55" transform="matrix(1 0 0 1 2307.73 2212)">Task 3)</text><path d="M2028.39 1357.5 2051.85 1376.17 2038.79 1376.17C2030.58 1404.2 2005.63 1419.6 1981.97 1411.24 1996.29 1406.18 2007.71 1393.13 2012.69 1376.17L1999.63 1376.17Z" fill="#FFFFFF" fill-rule="evenodd"/><path d="M1968.92 1413.5C1943.28 1413.5 1922.5 1388.43 1922.5 1357.5L1948.61 1357.5C1948.61 1388.43 1969.39 1413.5 1995.03 1413.5Z" fill="#CDCDCD" fill-rule="evenodd"/><path d="M1981.97 1411.24C1996.29 1406.18 2007.71 1393.13 2012.69 1376.17L1999.63 1376.17 2028.39 1357.5 2051.85 1376.17 2038.79 1376.17C2032.24 1398.54 2014.7 1413.5 1995.03 1413.5L1968.92 1413.5C1943.28 1413.5 1922.5 1388.43 1922.5 1357.5L1948.61 1357.5C1948.61 1388.43 1969.39 1413.5 1995.03 1413.5" stroke="#10CF9B" stroke-width="4.58333" stroke-linejoin="round" stroke-miterlimit="10" fill="none" fill-rule="evenodd"/><path d="M1928.61 1353.5 1905.15 1334.83 1918.21 1334.83C1926.42 1306.8 1951.37 1291.4 1975.03 1299.76 1960.71 1304.82 1949.29 1317.87 1944.31 1334.83L1957.37 1334.83Z" fill="#FFFFFF" fill-rule="evenodd"/><path d="M1988.08 1297.5C2013.72 1297.5 2034.5 1322.57 2034.5 1353.5L2008.39 1353.5C2008.39 1322.57 1987.61 1297.5 1961.97 1297.5Z" fill="#CDCDCD" fill-rule="evenodd"/><path d="M1975.03 1299.76C1960.71 1304.82 1949.29 1317.87 1944.31 1334.83L1957.37 1334.83 1928.61 1353.5 1905.15 1334.83 1918.21 1334.83C1924.77 1312.46 1942.3 1297.5 1961.97 1297.5L1988.08 1297.5C2013.72 1297.5 2034.5 1322.57 2034.5 1353.5L2008.39 1353.5C2008.39 1322.57 1987.61 1297.5 1961.97 1297.5" stroke="#10CF9B" stroke-width="4.58333" stroke-linejoin="round" stroke-miterlimit="10" fill="none" fill-rule="evenodd"/><path d="M0-1.14583 652.923-1.14583C653.556-1.14583 654.069-0.632826 654.069 0L654.069 344.914 651.777 344.914 651.777 0 652.923 1.14583 0 1.14583ZM666.673 340.33 652.923 367.83 639.173 340.33Z" fill="#10CF9B" transform="matrix(1.83697e-16 1 1 -1.83697e-16 1602 1168)"/><path d="M0-1.14583 996.485-1.14583C997.118-1.14583 997.631-0.632826 997.631 0L997.631 344.914 995.339 344.914 995.339 0 996.485 1.14583 0 1.14583ZM1010.23 340.33 996.485 367.83 982.735 340.33Z" fill="#10CF9B" transform="matrix(1.83697e-16 1 1 -1.83697e-16 1602 1168)"/><path d="M0-1.14583 269.357-1.14583C269.99-1.14583 270.503-0.632826 270.503 0L270.503 275.605 268.211 275.605 268.211 0 269.357 1.14583 0 1.14583ZM283.107 271.022 269.357 298.522 255.607 271.022Z" fill="#10CF9B" transform="matrix(1 0 0 -1 2606 1467.52)"/><path d="M0-1.14583 269.357-1.14583C269.99-1.14583 270.503-0.632826 270.503 0L270.503 973.217 268.211 973.217 268.211 0 269.357 1.14583 0 1.14583ZM283.107 968.634 269.357 996.134 255.607 968.634Z" fill="#10CF9B" transform="matrix(1 0 0 -1 2606 2165.13)"/><path d="M2023.93 1709.5 2047.87 1728.5 2034.58 1728.5C2026.38 1757.19 2001.41 1772.85 1977.86 1764.08 1991.91 1758.84 2003.11 1745.63 2008.01 1728.5L1994.72 1728.5Z" fill="#FFFFFF" fill-rule="evenodd"/><path d="M1964.57 1766.5C1939.13 1766.5 1918.5 1740.98 1918.5 1709.5L1945.07 1709.5C1945.07 1740.98 1965.7 1766.5 1991.14 1766.5Z" fill="#CDCDCD" fill-rule="evenodd"/><path d="M1977.86 1764.08C1991.92 1758.84 2003.11 1745.63 2008.01 1728.5L1994.72 1728.5 2023.93 1709.5 2047.87 1728.5 2034.58 1728.5C2028.07 1751.27 2010.67 1766.5 1991.14 1766.5L1964.57 1766.5C1939.13 1766.5 1918.5 1740.98 1918.5 1709.5L1945.07 1709.5C1945.07 1740.98 1965.7 1766.5 1991.14 1766.5" stroke="#10CF9B" stroke-width="4.58333" stroke-linejoin="round" stroke-miterlimit="10" fill="none" fill-rule="evenodd"/><path d="M1925.07 1706.5 1901.13 1687.5 1914.42 1687.5C1922.62 1658.81 1947.59 1643.15 1971.14 1651.92 1957.08 1657.16 1945.89 1670.37 1940.99 1687.5L1954.28 1687.5Z" fill="#FFFFFF" fill-rule="evenodd"/><path d="M1984.43 1649.5C2009.87 1649.5 2030.5 1675.02 2030.5 1706.5L2003.93 1706.5C2003.93 1675.02 1983.3 1649.5 1957.86 1649.5Z" fill="#CDCDCD" fill-rule="evenodd"/><path d="M1971.14 1651.92C1957.08 1657.16 1945.89 1670.37 1940.99 1687.5L1954.28 1687.5 1925.07 1706.5 1901.13 1687.5 1914.42 1687.5C1920.93 1664.73 1938.33 1649.5 1957.86 1649.5L1984.43 1649.5C2009.87 1649.5 2030.5 1675.02 2030.5 1706.5L2003.93 1706.5C2003.93 1675.02 1983.3 1649.5 1957.86 1649.5" stroke="#10CF9B" stroke-width="4.58333" stroke-linejoin="round" stroke-miterlimit="10" fill="none" fill-rule="evenodd"/><path d="M2021.93 2056.5 2045.87 2075.5 2032.58 2075.5C2024.38 2104.19 1999.41 2119.85 1975.86 2111.08 1989.92 2105.84 2001.11 2092.63 2006.01 2075.5L1992.72 2075.5Z" fill="#FFFFFF" fill-rule="evenodd"/><path d="M1962.57 2113.5C1937.13 2113.5 1916.5 2087.98 1916.5 2056.5L1943.07 2056.5C1943.07 2087.98 1963.7 2113.5 1989.14 2113.5Z" fill="#CDCDCD" fill-rule="evenodd"/><path d="M1975.86 2111.08C1989.92 2105.84 2001.11 2092.63 2006.01 2075.5L1992.72 2075.5 2021.93 2056.5 2045.87 2075.5 2032.58 2075.5C2026.07 2098.27 2008.67 2113.5 1989.14 2113.5L1962.57 2113.5C1937.13 2113.5 1916.5 2087.98 1916.5 2056.5L1943.07 2056.5C1943.07 2087.98 1963.7 2113.5 1989.14 2113.5" stroke="#10CF9B" stroke-width="4.58333" stroke-linejoin="round" stroke-miterlimit="10" fill="none" fill-rule="evenodd"/><path d="M1922.61 2052.5 1899.15 2033.83 1912.21 2033.83C1920.42 2005.8 1945.37 1990.4 1969.03 1998.76 1954.71 2003.82 1943.29 2016.87 1938.31 2033.83L1951.37 2033.83Z" fill="#FFFFFF" fill-rule="evenodd"/><path d="M1982.08 1996.5C2007.72 1996.5 2028.5 2021.57 2028.5 2052.5L2002.39 2052.5C2002.39 2021.57 1981.61 1996.5 1955.97 1996.5Z" fill="#CDCDCD" fill-rule="evenodd"/><path d="M1969.03 1998.76C1954.71 2003.82 1943.29 2016.87 1938.31 2033.83L1951.37 2033.83 1922.61 2052.5 1899.15 2033.83 1912.21 2033.83C1918.76 2011.46 1936.3 1996.5 1955.97 1996.5L1982.08 1996.5C2007.72 1996.5 2028.5 2021.57 2028.5 2052.5L2002.39 2052.5C2002.39 2021.57 1981.61 1996.5 1955.97 1996.5" stroke="#10CF9B" stroke-width="4.58333" stroke-linejoin="round" stroke-miterlimit="10" fill="none" fill-rule="evenodd"/><path d="M2828.5 1121.5C2828.5 1094.99 2849.77 1073.5 2876 1073.5 2902.23 1073.5 2923.5 1094.99 2923.5 1121.5 2923.5 1148.01 2902.23 1169.5 2876 1169.5 2849.77 1169.5 2828.5 1148.01 2828.5 1121.5Z" stroke="#022B52" stroke-width="4.58333" stroke-linejoin="round" stroke-miterlimit="10" fill="#C8E3FB" fill-rule="evenodd"/><path d="M2923 1119.85 3019.91 1119.85 3019.91 1122.15 2923 1122.15ZM3015.32 1107.25 3042.82 1121 3015.32 1134.75Z" fill="#0F6FC6"/><text font-family="Meiryo UI,Meiryo UI_MSFontService,sans-serif" font-weight="400" font-size="55" transform="matrix(1 0 0 1 2579.46 992)">ワーカースレッド</text><text font-family="Meiryo UI,Meiryo UI_MSFontService,sans-serif" font-weight="400" font-size="55" transform="matrix(1 0 0 1 2904.3 992)">の</text><text font-family="Meiryo UI,Meiryo UI_MSFontService,sans-serif" font-weight="400" font-size="55" transform="matrix(1 0 0 1 2633.59 1058)">完了を待機</text><path d="M0.00304321-1.14583 109.165-0.855906 109.159 1.43575-0.00304321 1.14583ZM104.615-13.4722 132.078 0.350787 104.542 14.0277Z" fill="#0F6FC6" transform="matrix(1 0 0 -1 1422 1121.35)"/><path d="M890.928 1009.5 914.837 1028.5 901.551 1028.5C893.282 1057.12 868.132 1072.79 844.357 1064.13 858.632 1058.93 870.014 1045.69 874.979 1028.5L861.693 1028.5Z" fill="#FFFFFF" fill-rule="evenodd"/><path d="M831.071 1066.5C805.35 1066.5 784.5 1040.98 784.5 1009.5L811.072 1009.5C811.072 1040.98 831.923 1066.5 857.643 1066.5Z" fill="#CDCDCD" fill-rule="evenodd"/><path d="M844.357 1064.13C858.632 1058.93 870.014 1045.69 874.979 1028.5L861.693 1028.5 890.928 1009.5 914.837 1028.5 901.551 1028.5C894.972 1051.27 877.379 1066.5 857.643 1066.5L831.071 1066.5C805.35 1066.5 784.5 1040.98 784.5 1009.5L811.072 1009.5C811.072 1040.98 831.923 1066.5 857.643 1066.5" stroke="#0F6FC6" stroke-width="4.58333" stroke-linejoin="round" stroke-miterlimit="10" fill="none" fill-rule="evenodd"/><path d="M791.072 1006.5 767.163 987.5 780.449 987.5C788.718 958.875 813.868 943.207 837.643 951.869 823.368 957.07 811.986 970.313 807.021 987.5L820.307 987.5Z" fill="#FFFFFF" fill-rule="evenodd"/><path d="M850.929 949.5C876.65 949.5 897.5 975.02 897.5 1006.5L870.928 1006.5C870.928 975.02 850.077 949.5 824.357 949.5Z" fill="#CDCDCD" fill-rule="evenodd"/><path d="M837.643 951.869C823.368 957.07 811.986 970.313 807.021 987.5L820.307 987.5 791.072 1006.5 767.163 987.5 780.449 987.5C787.028 964.726 804.621 949.5 824.357 949.5L850.929 949.5C876.65 949.5 897.5 975.02 897.5 1006.5L870.928 1006.5C870.928 975.02 850.077 949.5 824.357 949.5" stroke="#0F6FC6" stroke-width="4.58333" stroke-linejoin="round" stroke-miterlimit="10" fill="none" fill-rule="evenodd"/><text font-family="Meiryo UI,Meiryo UI_MSFontService,sans-serif" font-weight="400" font-size="46" transform="matrix(1 0 0 1 903.399 983)">メインスレッド</text><text font-family="Meiryo UI,Meiryo UI_MSFontService,sans-serif" font-weight="400" font-size="46" transform="matrix(1 0 0 1 2051.12 1329)">ワーカースレッド１</text><text font-family="Meiryo UI,Meiryo UI_MSFontService,sans-serif" font-weight="400" font-size="46" transform="matrix(1 0 0 1 2034.51 1680)">ワーカースレッド２</text><text font-family="Meiryo UI,Meiryo UI_MSFontService,sans-serif" font-weight="400" font-size="46" transform="matrix(1 0 0 1 2034.51 2029)">ワーカースレッド３</text><path d="M1554.5 1121C1554.5 1094.77 1575.99 1073.5 1602.5 1073.5 1629.01 1073.5 1650.5 1094.77 1650.5 1121 1650.5 1147.23 1629.01 1168.5 1602.5 1168.5 1575.99 1168.5 1554.5 1147.23 1554.5 1121Z" stroke="#022B52" stroke-width="4.58333" stroke-linejoin="round" stroke-miterlimit="10" fill="#C8E3FB" fill-rule="evenodd"/><path d="M1650 1119.85 1659.17 1119.86 1659.17 1122.15 1650 1122.15ZM1666.04 1119.86 1675.21 1119.86 1675.21 1122.15 1666.04 1122.15ZM1682.08 1119.86 1691.25 1119.87 1691.25 1122.16 1682.08 1122.16ZM1698.13 1119.87 1707.29 1119.87 1707.29 1122.16 1698.12 1122.16ZM1714.17 1119.87 1723.33 1119.88 1723.33 1122.17 1714.17 1122.16ZM1730.21 1119.88 1739.38 1119.88 1739.37 1122.17 1730.21 1122.17ZM1746.25 1119.88 1755.42 1119.89 1755.42 1122.18 1746.25 1122.17ZM1762.29 1119.89 1771.46 1119.89 1771.46 1122.18 1762.29 1122.18ZM1778.33 1119.89 1787.5 1119.9 1787.5 1122.19 1778.33 1122.18ZM1794.38 1119.9 1803.54 1119.9 1803.54 1122.19 1794.37 1122.19ZM1810.42 1119.9 1819.58 1119.9 1819.58 1122.2 1810.42 1122.19ZM1826.46 1119.91 1835.63 1119.91 1835.62 1122.2 1826.46 1122.2ZM1842.5 1119.91 1851.67 1119.91 1851.67 1122.21 1842.5 1122.2ZM1858.54 1119.92 1867.71 1119.92 1867.71 1122.21 1858.54 1122.21ZM1874.58 1119.92 1883.75 1119.92 1883.75 1122.22 1874.58 1122.21ZM1890.63 1119.93 1899.79 1119.93 1899.79 1122.22 1890.62 1122.22ZM1906.67 1119.93 1915.83 1119.93 1915.83 1122.22 1906.67 1122.22ZM1922.71 1119.94 1931.88 1119.94 1931.87 1122.23 1922.71 1122.23ZM1938.75 1119.94 1947.92 1119.94 1947.92 1122.23 1938.75 1122.23ZM1954.79 1119.94 1963.96 1119.95 1963.96 1122.24 1954.79 1122.24ZM1970.83 1119.95 1980 1119.95 1980 1122.24 1970.83 1122.24ZM1986.88 1119.95 1996.04 1119.96 1996.04 1122.25 1986.87 1122.25ZM2002.92 1119.96 2012.08 1119.96 2012.08 1122.25 2002.92 1122.25ZM2018.96 1119.96 2028.13 1119.97 2028.12 1122.26 2018.96 1122.26ZM2035 1119.97 2044.17 1119.97 2044.17 1122.26 2035 1122.26ZM2051.04 1119.97 2060.21 1119.98 2060.21 1122.27 2051.04 1122.27ZM2067.08 1119.98 2076.25 1119.98 2076.25 1122.27 2067.08 1122.27ZM2083.13 1119.98 2092.29 1119.99 2092.29 1122.28 2083.12 1122.27ZM2099.17 1119.99 2108.33 1119.99 2108.33 1122.28 2099.17 1122.28ZM2115.21 1119.99 2124.38 1120 2124.37 1122.29 2115.21 1122.28ZM2131.25 1120 2140.42 1120 2140.42 1122.29 2131.25 1122.29ZM2147.29 1120 2156.46 1120.01 2156.46 1122.3 2147.29 1122.29ZM2163.33 1120.01 2172.5 1120.01 2172.5 1122.3 2163.33 1122.3ZM2179.38 1120.01 2188.54 1120.01 2188.54 1122.31 2179.37 1122.3ZM2195.42 1120.02 2204.58 1120.02 2204.58 1122.31 2195.42 1122.31ZM2211.46 1120.02 2220.63 1120.02 2220.62 1122.32 2211.46 1122.31ZM2227.5 1120.03 2236.67 1120.03 2236.67 1122.32 2227.5 1122.32ZM2243.54 1120.03 2252.71 1120.03 2252.71 1122.33 2243.54 1122.32ZM2259.58 1120.04 2268.75 1120.04 2268.75 1122.33 2259.58 1122.33ZM2275.63 1120.04 2284.79 1120.04 2284.79 1122.33 2275.62 1122.33ZM2291.67 1120.05 2300.83 1120.05 2300.83 1122.34 2291.67 1122.34ZM2307.71 1120.05 2316.88 1120.05 2316.87 1122.34 2307.71 1122.34ZM2323.75 1120.05 2332.92 1120.06 2332.92 1122.35 2323.75 1122.35ZM2339.79 1120.06 2348.96 1120.06 2348.96 1122.35 2339.79 1122.35ZM2355.83 1120.06 2365 1120.07 2365 1122.36 2355.83 1122.36ZM2371.88 1120.07 2381.04 1120.07 2381.04 1122.36 2371.87 1122.36ZM2387.92 1120.07 2397.08 1120.08 2397.08 1122.37 2387.92 1122.37ZM2403.96 1120.08 2413.13 1120.08 2413.12 1122.37 2403.96 1122.37ZM2420 1120.08 2429.17 1120.09 2429.17 1122.38 2420 1122.38ZM2436.04 1120.09 2445.21 1120.09 2445.21 1122.38 2436.04 1122.38ZM2452.08 1120.09 2461.25 1120.1 2461.25 1122.39 2452.08 1122.38ZM2468.13 1120.1 2477.29 1120.1 2477.29 1122.39 2468.12 1122.39ZM2484.17 1120.1 2493.33 1120.11 2493.33 1122.4 2484.17 1122.39ZM2500.21 1120.11 2509.38 1120.11 2509.37 1122.4 2500.21 1122.4ZM2516.25 1120.11 2525.42 1120.11 2525.42 1122.41 2516.25 1122.4ZM2532.29 1120.12 2541.46 1120.12 2541.46 1122.41 2532.29 1122.41ZM2548.33 1120.12 2557.5 1120.12 2557.5 1122.42 2548.33 1122.41ZM2564.38 1120.13 2573.54 1120.13 2573.54 1122.42 2564.37 1122.42ZM2580.42 1120.13 2589.58 1120.13 2589.58 1122.43 2580.42 1122.42ZM2596.46 1120.14 2605.63 1120.14 2605.62 1122.43 2596.46 1122.43ZM2612.5 1120.14 2621.67 1120.14 2621.67 1122.44 2612.5 1122.43ZM2628.54 1120.15 2637.71 1120.15 2637.71 1122.44 2628.54 1122.44ZM2644.58 1120.15 2653.75 1120.15 2653.75 1122.44 2644.58 1122.44ZM2660.63 1120.16 2669.79 1120.16 2669.79 1122.45 2660.62 1122.45ZM2676.67 1120.16 2685.83 1120.16 2685.83 1122.45 2676.67 1122.45ZM2692.71 1120.16 2701.88 1120.17 2701.87 1122.46 2692.71 1122.46ZM2708.75 1120.17 2717.92 1120.17 2717.92 1122.46 2708.75 1122.46ZM2724.79 1120.17 2733.96 1120.18 2733.96 1122.47 2724.79 1122.47ZM2740.83 1120.18 2750 1120.18 2750 1122.47 2740.83 1122.47ZM2756.88 1120.18 2766.04 1120.19 2766.04 1122.48 2756.87 1122.48ZM2772.92 1120.19 2782.08 1120.19 2782.08 1122.48 2772.92 1122.48ZM2788.96 1120.19 2798.13 1120.2 2798.12 1122.49 2788.96 1122.49ZM2800.29 1107.59 2827.78 1121.35 2800.28 1135.09Z" fill="#0F6FC6"/><text font-family="Meiryo UI,Meiryo UI_MSFontService,sans-serif" font-weight="400" font-size="55" transform="matrix(1 0 0 1 1508.35 983)">ワーカースレッド</text><text font-family="Meiryo UI,Meiryo UI_MSFontService,sans-serif" font-weight="400" font-size="55" transform="matrix(1 0 0 1 1833.19 983)">を</text><text font-family="Meiryo UI,Meiryo UI_MSFontService,sans-serif" font-weight="400" font-size="55" transform="matrix(1 0 0 1 1523.54 1049)">作成・開始する</text><path d="M3001.03 1197.93 2976.39 1212.59 3010.67 1270.19 2961.4 1299.52 2927.12 1241.92 2902.48 1256.59 2922.43 1177.99Z" stroke="#315425" stroke-width="4.58333" stroke-miterlimit="8" fill="#7CCA62" fill-rule="evenodd"/><text font-family="Meiryo UI,Meiryo UI_MSFontService,sans-serif" font-weight="400" font-size="55" transform="matrix(1 0 0 1 2980.19 1347)">ここに着目</text></g></svg>