<svg width="1833" height="829" xmlns="http://www.w3.org/2000/svg" xmlns:xlink="http://www.w3.org/1999/xlink" xml:space="preserve" overflow="hidden"><defs><linearGradient x1="677.106" y1="1146.94" x2="677.106" y2="906.183" gradientUnits="userSpaceOnUse" spreadMethod="reflect" id="fill0"><stop offset="0" stop-color="#0A4A85"/><stop offset="0.48" stop-color="#1074CE"/><stop offset="1" stop-color="#59AAF2"/></linearGradient><linearGradient x1="677.105" y1="933.623" x2="677.105" y2="711.458" gradientUnits="userSpaceOnUse" spreadMethod="reflect" id="fill1"><stop offset="0" stop-color="#0A4A85"/><stop offset="0.48" stop-color="#1074CE"/><stop offset="1" stop-color="#59AAF2"/></linearGradient><linearGradient x1="1703.06" y1="1718.78" x2="1703.06" y2="1478.64" gradientUnits="userSpaceOnUse" spreadMethod="reflect" id="fill2"><stop offset="0" stop-color="#4C9633"/><stop offset="0.48" stop-color="#80CC67"/><stop offset="1" stop-color="#B0DFA1"/></linearGradient><linearGradient x1="1703.06" y1="1506" x2="1703.06" y2="1284.4" gradientUnits="userSpaceOnUse" spreadMethod="reflect" id="fill3"><stop offset="0" stop-color="#4C9633"/><stop offset="0.48" stop-color="#80CC67"/><stop offset="1" stop-color="#B0DFA1"/></linearGradient></defs><g transform="translate(-92 -609)"><g><g><g><path d="M838.207 1146.94C857.418 1146.94 872.981 1131.18 872.981 1111.72 873.225 1110.35 873.225 1108.95 872.981 1107.59 859.06 996.565 796.989 906.183 677.104 906.183 557.25 906.183 493.477 982.712 481.258 1107.83 479.161 1127.31 493.082 1144.8 512.293 1146.9 512.414 1146.92 512.536 1146.93 512.658 1146.94L838.207 1146.94Z" fill="url(#fill0)" fill-rule="evenodd" transform="matrix(1 0 0 1.00144 -272.628 35.2131)"/><path d="M678.035 933.534C656.837 933.525 636.065 927.409 618.244 915.92L678.035 1070.82 736.852 916.894C719.243 927.931 698.837 933.702 678.035 933.534Z" fill="#FFFFFF" fill-rule="evenodd" fill-opacity="0.8" transform="matrix(1 0 0 1.00144 -272.628 35.2131)"/><path d="M788.19 822.543C788.19 883.894 738.461 933.623 677.105 933.623 615.75 933.623 566.021 883.894 566.021 822.543 566.021 761.193 615.75 711.458 677.105 711.458 738.461 711.458 788.19 761.193 788.19 822.543Z" fill="url(#fill1)" fill-rule="evenodd" transform="matrix(1 0 0 1.00144 -272.628 35.2131)"/></g></g></g><g><g><g><path d="M1863.75 1718.78C1882.92 1718.78 1898.44 1703.06 1898.44 1683.65 1898.68 1682.28 1898.68 1680.89 1898.44 1679.53 1884.55 1568.79 1822.64 1478.64 1703.06 1478.64 1583.5 1478.64 1519.9 1554.97 1507.71 1679.77 1505.62 1699.2 1519.5 1716.64 1538.66 1718.74 1538.79 1718.76 1538.91 1718.77 1539.03 1718.78L1863.75 1718.78Z" fill="url(#fill2)" fill-rule="evenodd" transform="matrix(1 0 0 1.00399 -90.082 -541.839)"/><path d="M1703.98 1505.14C1682.85 1505.12 1662.13 1498.99 1644.34 1487.46L1703.98 1642.85 1762.65 1488.44C1745.09 1499.52 1724.74 1505.31 1703.98 1505.14Z" fill="#FFFFFF" fill-rule="evenodd" fill-opacity="0.8" transform="matrix(1 0 0 1.00399 -90.082 -541.839)"/><path d="M1813.86 1395.2C1813.86 1456.4 1764.26 1506 1703.06 1506 1641.86 1506 1592.25 1456.4 1592.25 1395.2 1592.25 1334.01 1641.86 1284.4 1703.06 1284.4 1764.26 1284.4 1813.86 1334.01 1813.86 1395.2Z" fill="url(#fill3)" fill-rule="evenodd" transform="matrix(1 0 0 1.00399 -90.082 -541.839)"/></g></g></g><path d="M667 704.854 1309.69 704.855 1309.69 707.146 667 707.146ZM1305.1 692.25 1332.6 706 1305.1 719.75Z" fill="#0F6FC6"/><text font-family="Meiryo UI,Meiryo UI_MSFontService,sans-serif" font-weight="400" font-size="55" transform="matrix(1 0 0 1 679.796 681)">終わった？</text><path d="M6.21276e-07-1.14583 642.685-1.14548 642.685 1.14618-6.21276e-07 1.14583ZM638.102-13.7497 665.602 0.000360892 638.102 13.7503Z" fill="#0F6FC6" transform="matrix(-1 0 0 1 1332.6 740)"/><text font-family="Meiryo UI,Meiryo UI_MSFontService,sans-serif" font-weight="400" font-size="55" transform="matrix(1 0 0 1 1150.8 808)">まだだよ</text><path d="M667 909.854 1309.69 909.854 1309.69 912.146 667 912.146ZM1305.1 897.25 1332.6 911 1305.1 924.75Z" fill="#0F6FC6"/><text font-family="Meiryo UI,Meiryo UI_MSFontService,sans-serif" font-weight="400" font-size="55" transform="matrix(1 0 0 1 679.796 886)">終わった？</text><path d="M6.21276e-07-1.14583 642.685-1.14548 642.685 1.14618-6.21276e-07 1.14583ZM638.102-13.7497 665.602 0.000360892 638.102 13.7503Z" fill="#0F6FC6" transform="matrix(-1 0 0 1 1332.6 945)"/><text font-family="Meiryo UI,Meiryo UI_MSFontService,sans-serif" font-weight="400" font-size="55" transform="matrix(1 0 0 1 1150.8 1013)">まだだよ</text><path d="M676 1164.85 1318.69 1164.85 1318.69 1167.15 676 1167.15ZM1314.1 1152.25 1341.6 1166 1314.1 1179.75Z" fill="#0F6FC6"/><text font-family="Meiryo UI,Meiryo UI_MSFontService,sans-serif" font-weight="400" font-size="55" transform="matrix(1 0 0 1 689.034 1142)">終わった？</text><path d="M6.21276e-07-1.14583 642.685-1.14548 642.685 1.14618-6.21276e-07 1.14583ZM638.102-13.7497 665.602 0.000360892 638.102 13.7503Z" fill="#0F6FC6" transform="matrix(-1 0 0 1 1341.6 1201)"/><text font-family="Meiryo UI,Meiryo UI_MSFontService,sans-serif" font-weight="400" font-size="55" transform="matrix(1 0 0 1 1053.58 1269)">終わったよ！</text><text font-family="Meiryo,Meiryo_MSFontService,sans-serif" font-weight="400" font-size="83" transform="matrix(6.12323e-17 1 -1 6.12323e-17 962.962 988)">…</text><path d="M1301 1338.67C1301 1329.46 1308.46 1322 1317.67 1322L1907.33 1322C1916.54 1322 1924 1329.46 1924 1338.67L1924 1405.33C1924 1414.54 1916.54 1422 1907.33 1422L1317.67 1422C1308.46 1422 1301 1414.54 1301 1405.33Z" stroke="#A6A6A6" stroke-width="2.29167" stroke-linejoin="round" stroke-miterlimit="10" fill="#D9D9D9" fill-rule="evenodd"/><text font-family="Meiryo UI,Meiryo UI_MSFontService,sans-serif" font-weight="400" font-size="55" transform="matrix(1 0 0 1 1450.48 1394)">ワーカースレッド</text><path d="M93.0002 1338.67C93.0002 1329.46 100.462 1322 109.667 1322L699.333 1322C708.538 1322 716 1329.46 716 1338.67L716 1405.33C716 1414.54 708.538 1422 699.333 1422L109.667 1422C100.462 1422 93.0002 1414.54 93.0002 1405.33Z" stroke="#A6A6A6" stroke-width="2.29167" stroke-linejoin="round" stroke-miterlimit="10" fill="#D9D9D9" fill-rule="evenodd"/><text font-family="Meiryo UI,Meiryo UI_MSFontService,sans-serif" font-weight="400" font-size="55" transform="matrix(1 0 0 1 268.138 1394)">メインスレッド</text></g></svg>