<svg width="1327" height="444" xmlns="http://www.w3.org/2000/svg" xmlns:xlink="http://www.w3.org/1999/xlink" xml:space="preserve" overflow="hidden"><defs><clipPath id="clip0"><rect x="1084" y="1583" width="1327" height="444"/></clipPath><clipPath id="clip1"><rect x="1089" y="1582" width="90" height="111"/></clipPath><clipPath id="clip2"><rect x="1089" y="1582" width="90" height="111"/></clipPath><clipPath id="clip3"><rect x="1089" y="1582" width="90" height="111"/></clipPath></defs><g clip-path="url(#clip0)" transform="translate(-1084 -1583)"><g><g><g><path d="M2194.56 1895 2264 1895 2264 1772.08 2310.13 1772.08 2310.13 1678.91C2310.21 1674.62 2306.79 1671.08 2302.5 1671 2302.45 1671 2302.41 1671 2302.36 1671L2194.56 1671C2190.31 1671.08 2186.92 1674.58 2187 1678.84 2187 1678.86 2187 1678.89 2187 1678.91L2187 1887.09C2186.88 1891.34 2190.23 1894.88 2194.49 1895 2194.51 1895 2194.54 1895 2194.56 1895ZM2233.13 1863.01 2264 1863.01 2264 1878.97 2233.13 1878.97Z" fill="#2F2F2F"/><path d="M2411 1841.66 2411 1814.57 2275.83 1814.57 2275.83 1895 2411 1895 2411 1841.66Z" fill="#C2C2C2"/><path d="M2275.83 1784.47 2411 1784.47 2411 1804.56 2275.83 1804.56Z" fill="#0078D4"/></g></g></g><g><g><g><path d="M7.87065 222.886 120.08 222.886C125.791 222.886 127.393 220.239 127.393 214.527L127.393 189.105C82.8097 188.886 46.8447 152.567 47.0631 107.984 47.1492 90.3948 52.9776 73.3155 63.6617 59.3433 79.6064 40.4475 102.697 29.041 127.393 27.8607L127.393 7.87065C127.393 3.52381 123.869-3.32125e-08 119.522-3.32125e-08L8.07961 0C3.77399-0.154068 0.158699 3.21143 0.00463216 7.51703 0.000416266 7.63488-0.00112826 7.75273-2.32312e-07 7.87065L0 215.015C-0.0386409 219.323 3.42252 222.847 7.73072 222.886 7.77739 222.886 7.82398 222.886 7.87065 222.886ZM47.7811 191.055 79.612 191.055 79.612 206.935 47.7811 206.935Z" fill="#2F2F2F" transform="matrix(1 0 0 1 1711 1671.56)"/><path d="M153.791 137.771 100.925 137.771C101.343 139.721 101.97 142.09 102.736 144.736 103.503 147.383 104.408 150.239 105.522 153.164 106.664 156.09 107.967 158.95 109.423 161.731 110.792 164.455 112.45 167.024 114.368 169.393 116.066 171.509 118.088 173.342 120.358 174.826 124.622 177.484 130.025 177.484 134.289 174.826 136.559 173.342 138.581 171.509 140.279 169.393 142.197 167.024 143.855 164.455 145.224 161.731 146.702 158.974 148.027 156.137 149.194 153.234 150.309 150.309 151.284 147.453 152.05 144.806 152.816 142.159 153.234 139.721 153.791 137.771Z" fill="#C2C2C2" transform="matrix(1 0 0 1 1711 1671.56)"/><path d="M165.353 88.7364C165.771 92.01 166.05 95.2836 166.259 98.4876 166.468 101.692 166.259 105.035 166.259 108.309 166.259 111.582 166.259 114.925 166.259 118.199 166.259 121.473 165.771 124.677 165.353 127.95L193.214 127.95C197.021 115.156 197.021 101.531 193.214 88.7364Z" fill="#C2C2C2" transform="matrix(1 0 0 1 1711 1671.56)"/><path d="M158.736 60.4577C159.851 63.4296 160.826 66.4943 161.662 69.6518 162.498 72.7861 163.194 75.8508 163.821 78.9155L189.314 78.9155C187.385 74.8158 185.052 70.9194 182.348 67.2836 179.616 63.6503 176.537 60.2912 173.154 57.2538 169.781 54.2307 166.119 51.5478 162.219 49.2438 158.32 46.8971 154.188 44.9597 149.891 43.4627 151.726 46.0611 153.379 48.784 154.836 51.612 156.29 54.4904 157.591 57.443 158.736 60.4577Z" fill="#C2C2C2" transform="matrix(1 0 0 1 1711 1671.56)"/><path d="M99.2538 88.7364C98.8359 92.01 98.5573 95.2836 98.2787 98.4876 98.0001 101.692 98.2787 105.035 98.2787 108.309 98.2787 111.582 98.2787 114.925 98.2787 118.199 98.2787 121.473 98.8359 124.677 99.2538 127.95L155.463 127.95C155.881 124.677 156.159 121.403 156.438 118.199 156.717 114.995 156.786 111.652 156.786 108.309 156.786 104.965 156.786 101.761 156.438 98.4876 156.09 95.214 155.881 92.01 155.463 88.7364Z" fill="#C2C2C2" transform="matrix(1 0 0 1 1711 1671.56)"/><path d="M109.423 54.8159C110.792 52.1135 112.449 49.5679 114.368 47.2239 116.066 45.1082 118.088 43.2746 120.358 41.7911 124.591 39.0292 130.056 39.0292 134.289 41.7911 136.559 43.2746 138.581 45.1082 140.279 47.2239 142.198 49.5679 143.855 52.1135 145.224 54.8159 146.681 57.6215 147.983 60.5048 149.124 63.4528 150.239 66.3781 151.214 69.1642 151.98 71.8806 152.746 74.5971 153.304 76.9652 153.721 78.8458L100.925 78.8458C101.343 76.8956 101.97 74.5274 102.736 71.8806 103.503 69.2339 104.408 66.3781 105.522 63.4528 106.664 60.5048 107.966 57.6215 109.423 54.8159Z" fill="#C2C2C2" transform="matrix(1 0 0 1 1711 1671.56)"/><path d="M72.4379 67.2836C75.1703 63.6503 78.2496 60.2912 81.6319 57.2538 85.0177 54.2469 88.6793 51.5651 92.5672 49.2438 96.4663 46.8971 100.598 44.9597 104.896 43.4627 103.06 46.0611 101.407 48.784 99.9503 51.612 98.473 54.4889 97.1475 57.4416 95.9801 60.4577 94.8657 63.4296 93.8906 66.4943 93.0548 69.6518 92.219 72.7861 91.5224 75.8508 90.8956 78.9155L65.403 78.9155C67.3534 74.813 69.7103 70.916 72.4379 67.2836Z" fill="#C2C2C2" transform="matrix(1 0 0 1 1711 1671.56)"/><path d="M58.7861 108.309C58.7541 101.683 59.6928 95.0893 61.5722 88.7364L89.4329 88.7364C89.015 92.01 88.7364 95.2836 88.5274 98.4876 88.3185 101.692 88.5274 105.035 88.5274 108.309 88.5274 111.582 88.5274 114.925 88.5274 118.199 88.5274 121.473 89.015 124.677 89.4329 127.95L61.5722 127.95C59.688 121.574 58.7493 114.957 58.7861 108.309Z" fill="#C2C2C2" transform="matrix(1 0 0 1 1711 1671.56)"/><path d="M92.5672 167.164C88.6946 164.82 85.0358 162.14 81.6319 159.154 78.2663 156.1 75.1884 152.743 72.4379 149.124 69.7347 145.489 67.401 141.592 65.4727 137.493L90.9652 137.493C91.5921 140.488 92.2886 143.622 93.1244 146.756 93.9603 149.891 94.9354 152.886 96.0498 155.95 97.2172 158.966 98.5426 161.919 100.02 164.796 101.477 167.624 103.13 170.347 104.965 172.945 100.656 171.423 96.5032 169.487 92.5672 167.164Z" fill="#C2C2C2" transform="matrix(1 0 0 1 1711 1671.56)"/><path d="M182.279 149.403C176.794 156.581 169.955 162.615 162.149 167.164 158.236 169.483 154.107 171.419 149.821 172.945 151.656 170.347 153.309 167.624 154.766 164.796 156.244 161.919 157.569 158.966 158.736 155.95 159.851 152.886 160.826 149.821 161.662 146.756 162.498 143.622 163.194 140.488 163.821 137.493L189.314 137.493C187.38 141.692 185.022 145.682 182.279 149.403Z" fill="#C2C2C2" transform="matrix(1 0 0 1 1711 1671.56)"/></g></g></g><path d="M1945 1749.85 2131 1749.85 2131 1752.15 1945 1752.15ZM2126.42 1737.25 2153.92 1751 2126.42 1764.75Z" fill="#0F6FC6"/><path d="M1945 1779.85 2131 1779.85 2131 1782.15 1945 1782.15ZM2126.42 1767.25 2153.92 1781 2126.42 1794.75Z" fill="#0F6FC6"/><path d="M1945 1807.85 2131 1807.85 2131 1810.15 1945 1810.15ZM2126.42 1795.25 2153.92 1809 2126.42 1822.75Z" fill="#0F6FC6"/><g clip-path="url(#clip1)"><g clip-path="url(#clip2)"><g clip-path="url(#clip3)"><path d="M43.9936 58.5896C60.1537 58.5707 73.2387 45.4549 73.2198 29.2948 73.201 13.1346 60.0851 0.0496326 43.925 0.0685666 27.7916 0.0874691 14.7177 13.1614 14.6988 29.2948 14.6988 45.4737 27.8145 58.5896 43.9936 58.5896Z" fill="#D2D2D2" transform="matrix(1 0 0 1.00421 1089.56 1583)"/><path d="M43.925 65.5792C19.647 65.598-0.0189645 85.2944-0.000107992 109.573-9.02159e-05 109.595-5.45671e-05 109.618-1.04563e-06 109.641L87.8843 109.641C87.9412 85.3633 68.3058 65.6361 44.0278 65.5792 43.9936 65.5792 43.9593 65.5792 43.925 65.5792Z" fill="#D2D2D2" transform="matrix(1 0 0 1.00421 1089.56 1583)"/></g></g></g><g><g><g><path d="M43.9936 58.5896C60.1537 58.5707 73.2387 45.4549 73.2198 29.2948 73.201 13.1346 60.0851 0.0496326 43.925 0.0685666 27.7916 0.0874691 14.7177 13.1614 14.6988 29.2948 14.6988 45.4737 27.8145 58.5896 43.9936 58.5896Z" fill="#D2D2D2" transform="matrix(1 0 0 1.00421 1162.56 1699)"/><path d="M43.925 65.5792C19.647 65.598-0.0189645 85.2944-0.000107992 109.573-9.02159e-05 109.595-5.45671e-05 109.618-1.04563e-06 109.641L87.8843 109.641C87.9412 85.3633 68.3058 65.6361 44.0278 65.5792 43.9936 65.5792 43.9593 65.5792 43.925 65.5792Z" fill="#D2D2D2" transform="matrix(1 0 0 1.00421 1162.56 1699)"/></g></g></g><g><g><g><path d="M44.1789 58.8364C60.4071 58.8175 73.5472 45.6464 73.5283 29.4182 73.5094 13.19 60.3383 0.0498417 44.1101 0.0688555 27.9087 0.0878376 14.7797 13.2169 14.7607 29.4182 14.7607 45.6653 27.9317 58.8364 44.1789 58.8364Z" fill="#D2D2D2" transform="matrix(1.00699 0 0 1 1084.56 1809)"/><path d="M44.1101 65.8555C19.7298 65.8744-0.0190444 85.6538-0.000108447 110.034-9.0596e-05 110.057-5.4797e-05 110.08-1.05003e-06 110.103L88.2546 110.103C88.3117 85.7229 68.5936 65.9126 44.2133 65.8555 44.1789 65.8555 44.1445 65.8555 44.1101 65.8555Z" fill="#D2D2D2" transform="matrix(1.00699 0 0 1 1084.56 1809)"/></g></g></g><g><g><g><path d="M43.9936 58.5896C60.1537 58.5707 73.2387 45.4549 73.2198 29.2948 73.201 13.1346 60.0851 0.0496326 43.925 0.0685666 27.7916 0.0874691 14.7177 13.1614 14.6988 29.2948 14.6988 45.4737 27.8145 58.5896 43.9936 58.5896Z" fill="#D2D2D2" transform="matrix(1 0 0 1.00421 1201.56 1895)"/><path d="M43.925 65.5792C19.647 65.598-0.0189645 85.2944-0.000107992 109.573-9.02159e-05 109.595-5.45671e-05 109.618-1.04563e-06 109.641L87.8843 109.641C87.9412 85.3633 68.3058 65.6361 44.0278 65.5792 43.9936 65.5792 43.9593 65.5792 43.925 65.5792Z" fill="#D2D2D2" transform="matrix(1 0 0 1.00421 1201.56 1895)"/></g></g></g><path d="M1178.3 1636.89 1689.15 1776.16 1688.55 1778.38 1177.7 1639.11ZM1688.05 1762.8 1710.96 1783.3 1680.81 1789.33Z" fill="#0F6FC6"/><path d="M1251.07 1752.86 1687.83 1780.37 1687.68 1782.65 1250.93 1755.14ZM1684.05 1767.5 1710.63 1782.95 1682.32 1794.94Z" fill="#0F6FC6"/><path d="M0.170911-1.13302 514.806 76.4979 514.464 78.7639-0.170911 1.13302ZM512.154 63.3512 537.296 81.0492 508.052 90.5435Z" fill="#0F6FC6" transform="matrix(1 0 0 -1 1174 1864.05)"/><path d="M0.4229-1.06494 399.818 157.54 398.972 159.67-0.4229 1.06494ZM400.211 144.134 420.694 167.063 390.061 169.693Z" fill="#0F6FC6" transform="matrix(1 0 0 -1 1290 1950.06)"/><text font-family="Meiryo UI,Meiryo UI_MSFontService,sans-serif" font-weight="400" font-size="50" transform="matrix(1 0 0 1 1714.32 1986)">Web</text><text font-family="Meiryo UI,Meiryo UI_MSFontService,sans-serif" font-weight="400" font-size="50" transform="matrix(1 0 0 1 2219.54 1982)">App</text></g></svg>