<svg width="1802" height="589" xmlns="http://www.w3.org/2000/svg" xmlns:xlink="http://www.w3.org/1999/xlink" xml:space="preserve" overflow="hidden"><defs><clipPath id="clip0"><rect x="683" y="854" width="1802" height="589"/></clipPath><clipPath id="clip1"><rect x="2170" y="1013" width="224" height="225"/></clipPath><clipPath id="clip2"><rect x="2170" y="1013" width="224" height="225"/></clipPath><clipPath id="clip3"><rect x="2170" y="1013" width="224" height="225"/></clipPath><clipPath id="clip4"><rect x="805" y="1013" width="196" height="225"/></clipPath><clipPath id="clip5"><rect x="805" y="1013" width="196" height="225"/></clipPath><clipPath id="clip6"><rect x="805" y="1013" width="196" height="225"/></clipPath></defs><g clip-path="url(#clip0)" transform="translate(-683 -854)"><g clip-path="url(#clip1)"><g clip-path="url(#clip2)"><g clip-path="url(#clip3)"><path d="M7.55999 224 76.9999 224 76.9999 101.08 123.13 101.08 123.13 7.90999C123.207 3.61944 119.792 0.0785812 115.501 0.00126123 115.454 0.00041276 115.407-7.67787e-06 115.36-3.33919e-08L7.55999 0C3.30808 0.0757196-0.0773961 3.58396-0.00167658 7.83586-0.00123656 7.86057-0.000677595 7.88528 3.00362e-07 7.90999L0 216.09C-0.116654 220.341 3.23489 223.881 7.48586 223.998 7.51057 223.999 7.53528 223.999 7.55999 224ZM46.13 192.01 76.9999 192.01 76.9999 207.97 46.13 207.97Z" fill="#2F2F2F" transform="matrix(1 0 0 1.00446 2170 1013)"/><path d="M224 170.66 224 143.57 88.8299 143.57 88.8299 224 224 224 224 170.66Z" fill="#C2C2C2" transform="matrix(1 0 0 1.00446 2170 1013)"/><path d="M88.8299 113.47 224 113.47 224 133.56 88.8299 133.56Z" fill="#0078D4" transform="matrix(1 0 0 1.00446 2170 1013)"/></g></g></g><g clip-path="url(#clip4)"><g clip-path="url(#clip5)"><g clip-path="url(#clip6)"><path d="M7.87064 222.885 120.08 222.885C125.791 222.885 127.393 220.239 127.393 214.527L127.393 189.104C82.8096 188.886 46.8446 152.567 47.063 107.984 47.1491 90.3947 52.9775 73.3154 63.6617 59.3433 79.6063 40.4474 102.697 29.041 127.393 27.8607L127.393 7.87064C127.393 3.52381 123.869-3.32125e-08 119.522-3.32125e-08L8.0796 0C3.77399-0.154068 0.158699 3.21142 0.00463215 7.51702 0.000416266 7.63487-0.00112826 7.75272-2.32311e-07 7.87064L0 215.015C-0.0386409 219.323 3.42252 222.847 7.73071 222.885 7.77738 222.886 7.82398 222.886 7.87064 222.885ZM47.7811 191.055 79.6119 191.055 79.6119 206.935 47.7811 206.935Z" fill="#2F2F2F" transform="matrix(1 0 0 1.00446 805 1013.56)"/><path d="M153.791 137.771 100.925 137.771C101.343 139.721 101.97 142.09 102.736 144.736 103.502 147.383 104.408 150.239 105.522 153.164 106.664 156.089 107.966 158.949 109.423 161.731 110.792 164.455 112.45 167.023 114.368 169.393 116.066 171.509 118.088 173.342 120.358 174.826 124.622 177.484 130.025 177.484 134.289 174.826 136.559 173.342 138.581 171.509 140.279 169.393 142.197 167.023 143.854 164.455 145.224 161.731 146.702 158.974 148.027 156.137 149.194 153.234 150.308 150.308 151.284 147.453 152.05 144.806 152.816 142.159 153.234 139.721 153.791 137.771Z" fill="#C2C2C2" transform="matrix(1 0 0 1.00446 805 1013.56)"/><path d="M165.353 88.7363C165.771 92.0099 166.05 95.2836 166.259 98.4875 166.468 101.692 166.259 105.035 166.259 108.308 166.259 111.582 166.259 114.925 166.259 118.199 166.259 121.473 165.771 124.677 165.353 127.95L193.214 127.95C197.021 115.156 197.021 101.531 193.214 88.7363Z" fill="#C2C2C2" transform="matrix(1 0 0 1.00446 805 1013.56)"/><path d="M158.736 60.4577C159.851 63.4295 160.826 66.4942 161.662 69.6517 162.497 72.786 163.194 75.8507 163.821 78.9154L189.313 78.9154C187.385 74.8157 185.051 70.9194 182.348 67.2836 179.616 63.6502 176.536 60.2912 173.154 57.2537 169.781 54.2307 166.119 51.5478 162.219 49.2438 158.32 46.8971 154.188 44.9597 149.891 43.4627 151.726 46.061 153.379 48.784 154.836 51.6119 156.289 54.4903 157.591 57.443 158.736 60.4577Z" fill="#C2C2C2" transform="matrix(1 0 0 1.00446 805 1013.56)"/><path d="M99.2537 88.7363C98.8358 92.0099 98.5572 95.2836 98.2786 98.4875 98 101.692 98.2786 105.035 98.2786 108.308 98.2786 111.582 98.2786 114.925 98.2786 118.199 98.2786 121.473 98.8358 124.677 99.2537 127.95L155.463 127.95C155.881 124.677 156.159 121.403 156.438 118.199 156.716 114.995 156.786 111.652 156.786 108.308 156.786 104.965 156.786 101.761 156.438 98.4875 156.089 95.2139 155.881 92.0099 155.463 88.7363Z" fill="#C2C2C2" transform="matrix(1 0 0 1.00446 805 1013.56)"/><path d="M109.423 54.8159C110.792 52.1135 112.449 49.5679 114.368 47.2239 116.066 45.1082 118.088 43.2745 120.358 41.791 124.591 39.0292 130.056 39.0292 134.289 41.791 136.559 43.2745 138.581 45.1082 140.279 47.2239 142.197 49.5679 143.855 52.1135 145.224 54.8159 146.681 57.6215 147.983 60.5047 149.124 63.4527 150.239 66.3781 151.214 69.1642 151.98 71.8806 152.746 74.597 153.303 76.9651 153.721 78.8457L100.925 78.8457C101.343 76.8955 101.97 74.5273 102.736 71.8806 103.502 69.2338 104.408 66.3781 105.522 63.4527 106.664 60.5047 107.966 57.6215 109.423 54.8159Z" fill="#C2C2C2" transform="matrix(1 0 0 1.00446 805 1013.56)"/><path d="M72.4378 67.2836C75.1702 63.6502 78.2495 60.2912 81.6318 57.2537 85.0176 54.2468 88.6792 51.565 92.5671 49.2438 96.4662 46.8971 100.598 44.9597 104.895 43.4627 103.06 46.061 101.407 48.784 99.9502 51.6119 98.4729 54.4889 97.1474 57.4416 95.9801 60.4577 94.8656 63.4295 93.8905 66.4942 93.0547 69.6517 92.2189 72.786 91.5224 75.8507 90.8955 78.9154L65.403 78.9154C67.3533 74.8129 69.7102 70.9159 72.4378 67.2836Z" fill="#C2C2C2" transform="matrix(1 0 0 1.00446 805 1013.56)"/><path d="M58.786 108.308C58.7541 101.683 59.6927 95.0892 61.5721 88.7363L89.4328 88.7363C89.0149 92.0099 88.7363 95.2836 88.5273 98.4875 88.3184 101.692 88.5273 105.035 88.5273 108.308 88.5273 111.582 88.5273 114.925 88.5273 118.199 88.5273 121.473 89.0149 124.677 89.4328 127.95L61.5721 127.95C59.688 121.574 58.7493 114.957 58.786 108.308Z" fill="#C2C2C2" transform="matrix(1 0 0 1.00446 805 1013.56)"/><path d="M92.5671 167.164C88.6945 164.82 85.0357 162.139 81.6318 159.154 78.2662 156.1 75.1883 152.743 72.4378 149.124 69.7346 145.489 67.4009 141.592 65.4726 137.492L90.9651 137.492C91.592 140.488 92.2885 143.622 93.1243 146.756 93.9602 149.891 94.9353 152.886 96.0497 155.95 97.2171 158.966 98.5425 161.919 100.02 164.796 101.477 167.624 103.13 170.347 104.965 172.945 100.656 171.423 96.5032 169.487 92.5671 167.164Z" fill="#C2C2C2" transform="matrix(1 0 0 1.00446 805 1013.56)"/><path d="M182.279 149.403C176.793 156.581 169.954 162.615 162.149 167.164 158.235 169.483 154.107 171.419 149.821 172.945 151.656 170.347 153.309 167.624 154.766 164.796 156.243 161.919 157.569 158.966 158.736 155.95 159.851 152.886 160.826 149.821 161.662 146.756 162.497 143.622 163.194 140.488 163.821 137.492L189.313 137.492C187.38 141.692 185.022 145.682 182.279 149.403Z" fill="#C2C2C2" transform="matrix(1 0 0 1.00446 805 1013.56)"/></g></g></g><text font-family="Meiryo UI,Meiryo UI_MSFontService,sans-serif" font-weight="400" font-size="50" transform="matrix(1 0 0 1 815.994 1328)">Web</text><text font-family="Meiryo UI,Meiryo UI_MSFontService,sans-serif" font-weight="400" font-size="50" transform="matrix(1 0 0 1 718.025 1389)">（</text><text font-family="Meiryo UI,Meiryo UI_MSFontService,sans-serif" font-weight="400" font-size="50" transform="matrix(1 0 0 1 768.442 1389)">Client</text><text font-family="Meiryo UI,Meiryo UI_MSFontService,sans-serif" font-weight="400" font-size="50" transform="matrix(1 0 0 1 923.702 1389)">側）</text><text font-family="Meiryo UI,Meiryo UI_MSFontService,sans-serif" font-weight="400" font-size="50" transform="matrix(1 0 0 1 2246.57 1324)">App</text><text font-family="Meiryo UI,Meiryo UI_MSFontService,sans-serif" font-weight="400" font-size="50" transform="matrix(1 0 0 1 2138.86 1385)">（</text><text font-family="Meiryo UI,Meiryo UI_MSFontService,sans-serif" font-weight="400" font-size="50" transform="matrix(1 0 0 1 2189.28 1385)">Server</text><text font-family="Meiryo UI,Meiryo UI_MSFontService,sans-serif" font-weight="400" font-size="50" transform="matrix(1 0 0 1 2349.69 1385)">側）</text><path d="M1023 1066.85 2117.07 1066.85 2117.07 1069.15 1023 1069.15ZM2112.49 1054.25 2139.99 1068 2112.49 1081.75Z" fill="#0F6FC6"/><path d="M1045.92 1130.85 2139.99 1130.85 2139.99 1133.15 1045.92 1133.15ZM1050.5 1145.75 1023 1132 1050.5 1118.25Z" fill="#0F6FC6"/><text font-family="Meiryo UI,Meiryo UI_MSFontService,sans-serif" font-weight="400" font-size="46" transform="matrix(1 0 0 1 1746.5 1043)">10.0. 0.100:</text><text fill="#FF0000" font-family="Meiryo UI,Meiryo UI_MSFontService,sans-serif" font-weight="400" font-size="46" transform="matrix(1 0 0 1 2030.09 1043)">80</text><text font-family="Meiryo UI,Meiryo UI_MSFontService,sans-serif" font-weight="400" font-size="46" transform="matrix(1 0 0 1 1067.25 1185)">10.0. 0.50:</text><text fill="#FF0000" font-family="Meiryo UI,Meiryo UI_MSFontService,sans-serif" font-weight="400" font-size="46" transform="matrix(1 0 0 1 1322.2 1185)">49152</text><text fill="#FF0000" font-family="Meiryo UI,Meiryo UI_MSFontService,sans-serif" font-weight="400" font-size="46" transform="matrix(1 0 0 1 1321.66 1241)">49153</text><text fill="#FF0000" font-family="Meiryo UI,Meiryo UI_MSFontService,sans-serif" font-weight="400" font-size="46" transform="matrix(1 0 0 1 1321.66 1296)">49154</text><text fill="#FF0000" font-family="Meiryo UI,Meiryo UI_MSFontService,sans-serif" font-weight="400" font-size="46" transform="matrix(1 0 0 1 1321.66 1351)">49155</text><text fill="#FF0000" font-family="Meiryo UI,Meiryo UI_MSFontService,sans-serif" font-weight="400" font-size="46" transform="matrix(1 0 0 1 1383.54 1406)">：</text><path d="M1510 854 1815 854 1815 968.166 1792.17 991 1510 991Z" fill="#D9D9D9" fill-rule="evenodd"/><path d="M1792.17 991 1796.73 972.733 1815 968.166Z" fill="#AEAEAE" fill-rule="evenodd"/><text font-family="Meiryo UI,Meiryo UI_MSFontService,sans-serif" font-weight="400" font-size="37" transform="matrix(1 0 0 1 1535.61 904)">毎回同じ宛先で</text><text font-family="Meiryo UI,Meiryo UI_MSFontService,sans-serif" font-weight="400" font-size="37" transform="matrix(1 0 0 1 1535.61 948)">アクセスすると</text><text font-family="Meiryo UI,Meiryo UI_MSFontService,sans-serif" font-weight="400" font-size="37" transform="matrix(1 0 0 1 1728.11 948)">…</text><path d="M1815.64 921.049 1926.16 995.468 1924.88 997.369 1814.36 922.95ZM1933.2 985.014C1939.5 989.255 1941.16 997.8 1936.92 1004.1 1932.68 1010.4 1924.14 1012.07 1917.84 1007.82 1911.54 1003.58 1909.87 995.038 1914.11 988.739 1918.35 982.44 1926.9 980.772 1933.2 985.014Z" fill="#7F7F7F"/><path d="M1573 1207 1954 1207 1954 1320.33 1931.33 1343 1573 1343Z" fill="#D9D9D9" fill-rule="evenodd"/><path d="M1931.33 1343 1935.87 1324.87 1954 1320.33Z" fill="#AEAEAE" fill-rule="evenodd"/><text font-family="Meiryo UI,Meiryo UI_MSFontService,sans-serif" font-weight="400" font-size="37" transform="matrix(1 0 0 1 1598.68 1257)">毎回、新しいエフェメラ</text><text font-family="Meiryo UI,Meiryo UI_MSFontService,sans-serif" font-weight="400" font-size="37" transform="matrix(1 0 0 1 1598.68 1301)">ルポートが採番される</text><path d="M1572.3 1275.61 1487.54 1238.05 1488.46 1235.95 1573.22 1273.52ZM1482.43 1249.57C1475.49 1246.49 1472.35 1238.37 1475.43 1231.43 1478.51 1224.49 1486.63 1221.35 1493.57 1224.43 1500.51 1227.51 1503.65 1235.63 1500.57 1242.57 1497.49 1249.51 1489.37 1252.65 1482.43 1249.57Z" fill="#7F7F7F"/><text font-family="Meiryo UI,Meiryo UI_MSFontService,sans-serif" font-weight="400" font-size="46" transform="matrix(1 0 0 1 1031.68 1057)">往路</text><text font-family="Meiryo UI,Meiryo UI_MSFontService,sans-serif" font-weight="400" font-size="46" transform="matrix(1 0 0 1 2044.6 1185)">復路</text></g></svg>