<svg width="1150" height="514" xmlns="http://www.w3.org/2000/svg" xmlns:xlink="http://www.w3.org/1999/xlink" xml:space="preserve" overflow="hidden"><defs><linearGradient x1="1923" y1="1604" x2="1923" y2="1825" gradientUnits="userSpaceOnUse" spreadMethod="reflect" id="fill0"><stop offset="0" stop-color="#B9D7EF"/><stop offset="0.5" stop-color="#9CC7E9"/><stop offset="1" stop-color="#83BEE8"/></linearGradient><clipPath id="clip1"><rect x="1377" y="1635" width="143" height="157"/></clipPath><clipPath id="clip2"><rect x="1377" y="1635" width="143" height="157"/></clipPath><clipPath id="clip3"><rect x="1377" y="1635" width="143" height="157"/></clipPath><clipPath id="clip4"><rect x="1377" y="1635" width="143" height="157"/></clipPath><linearGradient x1="1450.69" y1="1191.97" x2="1450.69" y2="1277.66" gradientUnits="userSpaceOnUse" spreadMethod="reflect" id="fill5"><stop offset="0" stop-color="#2EB7F8"/><stop offset="0.23" stop-color="#2EB7F8"/><stop offset="0.69" stop-color="#08A5EF"/><stop offset="0.97" stop-color="#089ADF"/><stop offset="1" stop-color="#089ADF"/></linearGradient><linearGradient x1="1450.69" y1="1121.66" x2="1450.69" y2="1200.76" gradientUnits="userSpaceOnUse" spreadMethod="reflect" id="fill6"><stop offset="0" stop-color="#2EB7F8"/><stop offset="0.23" stop-color="#2EB7F8"/><stop offset="0.69" stop-color="#08A5EF"/><stop offset="0.97" stop-color="#089ADF"/><stop offset="1" stop-color="#089ADF"/></linearGradient><clipPath id="clip7"><rect x="1728" y="1542" width="172" height="172"/></clipPath><clipPath id="clip8"><rect x="1728" y="1542" width="172" height="172"/></clipPath><clipPath id="clip9"><rect x="1728" y="1542" width="172" height="172"/></clipPath><linearGradient x1="1450.69" y1="1191.97" x2="1450.69" y2="1277.66" gradientUnits="userSpaceOnUse" spreadMethod="reflect" id="fill10"><stop offset="0" stop-color="#2EB7F8"/><stop offset="0.23" stop-color="#2EB7F8"/><stop offset="0.69" stop-color="#08A5EF"/><stop offset="0.97" stop-color="#089ADF"/><stop offset="1" stop-color="#089ADF"/></linearGradient><linearGradient x1="1450.69" y1="1121.66" x2="1450.69" y2="1200.76" gradientUnits="userSpaceOnUse" spreadMethod="reflect" id="fill11"><stop offset="0" stop-color="#2EB7F8"/><stop offset="0.23" stop-color="#2EB7F8"/><stop offset="0.69" stop-color="#08A5EF"/><stop offset="0.97" stop-color="#089ADF"/><stop offset="1" stop-color="#089ADF"/></linearGradient><linearGradient x1="1450.69" y1="1191.97" x2="1450.69" y2="1277.66" gradientUnits="userSpaceOnUse" spreadMethod="reflect" id="fill12"><stop offset="0" stop-color="#2EB7F8"/><stop offset="0.23" stop-color="#2EB7F8"/><stop offset="0.69" stop-color="#08A5EF"/><stop offset="0.97" stop-color="#089ADF"/><stop offset="1" stop-color="#089ADF"/></linearGradient><linearGradient x1="1450.69" y1="1121.66" x2="1450.69" y2="1200.76" gradientUnits="userSpaceOnUse" spreadMethod="reflect" id="fill13"><stop offset="0" stop-color="#2EB7F8"/><stop offset="0.23" stop-color="#2EB7F8"/><stop offset="0.69" stop-color="#08A5EF"/><stop offset="0.97" stop-color="#089ADF"/><stop offset="1" stop-color="#089ADF"/></linearGradient></defs><g transform="translate(-1377 -1410)"><path d="M1758 1640.83C1758 1620.49 1831.87 1604 1923 1604 2014.13 1604 2088 1620.49 2088 1640.83L2088 1788.17C2088 1808.51 2014.13 1825 1923 1825 1831.87 1825 1758 1808.51 1758 1788.17Z" fill="url(#fill0)" fill-rule="evenodd"/><path d="M2088 1640.83C2088 1661.18 2014.13 1677.67 1923 1677.67 1831.87 1677.67 1758 1661.18 1758 1640.83" stroke="#009DD9" stroke-width="2.29167" stroke-linejoin="round" stroke-miterlimit="10" fill="none" fill-rule="evenodd"/><path d="M1758 1640.83C1758 1620.49 1831.87 1604 1923 1604 2014.13 1604 2088 1620.49 2088 1640.83L2088 1788.17C2088 1808.51 2014.13 1825 1923 1825 1831.87 1825 1758 1808.51 1758 1788.17Z" stroke="#009DD9" stroke-width="2.29167" stroke-linejoin="round" stroke-miterlimit="10" fill="none" fill-rule="evenodd"/><text font-family="Meiryo UI,Meiryo UI_MSFontService,sans-serif" font-weight="400" font-size="55" transform="matrix(1 0 0 1 1788.27 1755)">共有リソース</text><g clip-path="url(#clip1)"><g clip-path="url(#clip2)"><g clip-path="url(#clip3)"><g clip-path="url(#clip4)"><path d="M1508.92 1277.66C1515.86 1277.66 1521.48 1272.05 1521.48 1265.13 1521.57 1264.63 1521.57 1264.14 1521.48 1263.66 1516.45 1224.14 1494.02 1191.97 1450.69 1191.97 1407.37 1191.97 1384.32 1219.21 1379.91 1263.74 1379.15 1270.68 1384.18 1276.9 1391.13 1277.65 1391.17 1277.65 1391.21 1277.66 1391.26 1277.66L1508.92 1277.66Z" fill="url(#fill5)" fill-rule="evenodd" transform="matrix(1.00199 0 0 1 -5.57326 514.337)"/><path d="M1450.87 1200.54C1443.21 1200.53 1435.71 1198.32 1429.27 1194.17L1450.87 1250.2 1472.11 1194.52C1465.74 1198.51 1458.38 1200.6 1450.87 1200.54Z" fill="#FFFFFF" fill-rule="evenodd" fill-opacity="0.8" transform="matrix(1.00199 0 0 1 -5.57326 514.337)"/><path d="M1490.79 1161.21C1490.79 1183.05 1472.84 1200.76 1450.69 1200.76 1428.54 1200.76 1410.59 1183.05 1410.59 1161.21 1410.59 1139.37 1428.54 1121.66 1450.69 1121.66 1472.84 1121.66 1490.79 1139.37 1490.79 1161.21Z" fill="url(#fill6)" fill-rule="evenodd" transform="matrix(1.00199 0 0 1 -5.57326 514.337)"/></g></g></g></g><path d="M1519 1712.85 1735.78 1712.85 1735.78 1715.15 1519 1715.15ZM1731.2 1700.25 1758.7 1714 1731.2 1727.75Z" fill="#0F6FC6"/><g clip-path="url(#clip7)"><g clip-path="url(#clip8)"><g clip-path="url(#clip9)"><path d="M1863.32 1609.17C1870.96 1601.53 1870.96 1589.13 1863.32 1581.49L1829.57 1547.73C1821.92 1540.09 1809.53 1540.09 1801.89 1547.73L1768.13 1581.49C1760.49 1589.13 1760.49 1601.53 1768.13 1609.17L1797.83 1638.86 1797.83 1696.11 1815.72 1714 1831.27 1698.46 1831.27 1698.34 1840.39 1689.22 1831.35 1680.17 1840.39 1671.13 1831.35 1662.09 1840.39 1653.04 1831.27 1643.92 1831.27 1641.22 1863.32 1609.17ZM1815.73 1555.89C1821.86 1555.89 1826.83 1560.87 1826.83 1567 1826.83 1573.14 1821.86 1578.11 1815.73 1578.11 1809.59 1578.11 1804.62 1573.14 1804.62 1567 1804.62 1560.87 1809.59 1555.89 1815.73 1555.89Z" fill="#FCD116"/><path d="M1806.18 1693.23 1813.17 1700.11 1813.17 1645.23 1806.18 1641.79Z" fill="#FF8C00" fill-opacity="0.4"/><path d="M1782.59 1588.84 1846.71 1588.84 1846.71 1598.06 1782.59 1598.06Z" fill="#FFFFFF" fill-opacity="0.5"/><path d="M1782.59 1603.84 1846.71 1603.84 1846.71 1613.05 1782.59 1613.05Z" fill="#FFFFFF" fill-opacity="0.5"/></g></g></g><g><g><g><g><path d="M1508.92 1277.66C1515.86 1277.66 1521.48 1272.05 1521.48 1265.13 1521.57 1264.63 1521.57 1264.14 1521.48 1263.66 1516.45 1224.14 1494.02 1191.97 1450.69 1191.97 1407.37 1191.97 1384.32 1219.21 1379.91 1263.74 1379.15 1270.68 1384.18 1276.9 1391.13 1277.65 1391.17 1277.65 1391.21 1277.66 1391.26 1277.66L1508.92 1277.66Z" fill="url(#fill10)" fill-rule="evenodd" transform="matrix(1.00199 0 0 1 1002.43 288.338)"/><path d="M1450.87 1200.54C1443.21 1200.53 1435.71 1198.32 1429.27 1194.17L1450.87 1250.2 1472.11 1194.52C1465.74 1198.51 1458.38 1200.6 1450.87 1200.54Z" fill="#FFFFFF" fill-rule="evenodd" fill-opacity="0.8" transform="matrix(1.00199 0 0 1 1002.43 288.338)"/><path d="M1490.79 1161.21C1490.79 1183.05 1472.84 1200.76 1450.69 1200.76 1428.54 1200.76 1410.59 1183.05 1410.59 1161.21 1410.59 1139.37 1428.54 1121.66 1450.69 1121.66 1472.84 1121.66 1490.79 1139.37 1490.79 1161.21Z" fill="url(#fill11)" fill-rule="evenodd" transform="matrix(1.00199 0 0 1 1002.43 288.338)"/></g></g></g></g><g><g><g><g><path d="M1508.92 1277.66C1515.86 1277.66 1521.48 1272.05 1521.48 1265.13 1521.57 1264.63 1521.57 1264.14 1521.48 1263.66 1516.45 1224.14 1494.02 1191.97 1450.69 1191.97 1407.37 1191.97 1384.32 1219.21 1379.91 1263.74 1379.15 1270.68 1384.18 1276.9 1391.13 1277.65 1391.17 1277.65 1391.21 1277.66 1391.26 1277.66L1508.92 1277.66Z" fill="url(#fill12)" fill-rule="evenodd" transform="matrix(1.00199 0 0 1 1002.43 628.338)"/><path d="M1450.87 1200.54C1443.21 1200.53 1435.71 1198.32 1429.27 1194.17L1450.87 1250.2 1472.11 1194.52C1465.74 1198.51 1458.38 1200.6 1450.87 1200.54Z" fill="#FFFFFF" fill-rule="evenodd" fill-opacity="0.8" transform="matrix(1.00199 0 0 1 1002.43 628.338)"/><path d="M1490.79 1161.21C1490.79 1183.05 1472.84 1200.76 1450.69 1200.76 1428.54 1200.76 1410.59 1183.05 1410.59 1161.21 1410.59 1139.37 1428.54 1121.66 1450.69 1121.66 1472.84 1121.66 1490.79 1139.37 1490.79 1161.21Z" fill="url(#fill13)" fill-rule="evenodd" transform="matrix(1.00199 0 0 1 1002.43 628.338)"/></g></g></g></g><path d="M2119 1613C2119 1589.8 2137.8 1571 2161 1571 2184.2 1571 2203 1589.8 2203 1613 2203 1636.2 2184.2 1655 2161 1655 2137.8 1655 2119 1636.2 2119 1613ZM2183.24 1623.68C2189.14 1611.4 2183.96 1596.66 2171.68 1590.76 2164.93 1587.52 2157.07 1587.52 2150.32 1590.76ZM2138.76 1602.32C2132.86 1614.6 2138.04 1629.34 2150.32 1635.24 2157.07 1638.48 2164.93 1638.48 2171.68 1635.24Z" fill="#59AAF2" fill-rule="evenodd"/><path d="M0.503238-1.02941 174.489 84.0255 173.483 86.0844-0.503238 1.02941ZM175.907 70.689 194.574 95.1197 163.83 95.3949Z" fill="#0F6FC6" transform="matrix(-1 0 0 1 2384.57 1488)"/><path d="M2123 1750C2123 1726.8 2141.8 1708 2165 1708 2188.2 1708 2207 1726.8 2207 1750 2207 1773.2 2188.2 1792 2165 1792 2141.8 1792 2123 1773.2 2123 1750ZM2187.24 1760.68C2193.14 1748.4 2187.96 1733.66 2175.68 1727.76 2168.93 1724.52 2161.07 1724.52 2154.32 1727.76ZM2142.76 1739.32C2136.86 1751.6 2142.04 1766.34 2154.32 1772.24 2161.07 1775.48 2168.93 1775.48 2175.68 1772.24Z" fill="#59AAF2" fill-rule="evenodd"/><path d="M2385.01 1829.38 2216.93 1786.74 2217.49 1784.52 2385.57 1827.15ZM2218.28 1800.09 2195 1780 2225.04 1773.43Z" fill="#0F6FC6"/><text font-family="Meiryo UI,Meiryo UI_MSFontService,sans-serif" font-weight="400" font-size="46" transform="matrix(1 0 0 1 1525.93 1693)">アクセス中</text><text font-family="Meiryo UI,Meiryo UI_MSFontService,sans-serif" font-weight="400" font-size="46" transform="matrix(1 0 0 1 2160.72 1498)">アクセス待ち</text><text font-family="Meiryo UI,Meiryo UI_MSFontService,sans-serif" font-weight="400" font-size="46" transform="matrix(1 0 0 1 2163.95 1887)">アクセス待ち</text></g></svg>