<svg width="3218" height="1658" xmlns="http://www.w3.org/2000/svg" xmlns:xlink="http://www.w3.org/1999/xlink" xml:space="preserve" overflow="hidden"><defs><linearGradient x1="702.5" y1="854.5" x2="702.5" y2="1114.5" gradientUnits="userSpaceOnUse" spreadMethod="reflect" id="fill0"><stop offset="0" stop-color="#B9D7EF"/><stop offset="0.5" stop-color="#9CC7E9"/><stop offset="1" stop-color="#83BEE8"/></linearGradient><linearGradient x1="1439.5" y1="854.5" x2="1439.5" y2="1374.5" gradientUnits="userSpaceOnUse" spreadMethod="reflect" id="fill1"><stop offset="0" stop-color="#B9D7EF"/><stop offset="0.5" stop-color="#9CC7E9"/><stop offset="1" stop-color="#83BEE8"/></linearGradient><linearGradient x1="702.5" y1="1114.5" x2="702.5" y2="1374.5" gradientUnits="userSpaceOnUse" spreadMethod="reflect" id="fill2"><stop offset="0" stop-color="#B9D7EF"/><stop offset="0.5" stop-color="#9CC7E9"/><stop offset="1" stop-color="#83BEE8"/></linearGradient><linearGradient x1="702.5" y1="1372.5" x2="702.5" y2="1938.5" gradientUnits="userSpaceOnUse" spreadMethod="reflect" id="fill3"><stop offset="0" stop-color="#B9D7EF"/><stop offset="0.5" stop-color="#9CC7E9"/><stop offset="1" stop-color="#83BEE8"/></linearGradient><linearGradient x1="1439.5" y1="1374.5" x2="1439.5" y2="1634.5" gradientUnits="userSpaceOnUse" spreadMethod="reflect" id="fill4"><stop offset="0" stop-color="#B9D7EF"/><stop offset="0.5" stop-color="#9CC7E9"/><stop offset="1" stop-color="#83BEE8"/></linearGradient><linearGradient x1="2511.5" y1="854.5" x2="2511.5" y2="1114.5" gradientUnits="userSpaceOnUse" spreadMethod="reflect" id="fill5"><stop offset="0" stop-color="#B9D7EF"/><stop offset="0.5" stop-color="#9CC7E9"/><stop offset="1" stop-color="#83BEE8"/></linearGradient><linearGradient x1="3248.5" y1="854.5" x2="3248.5" y2="1374.5" gradientUnits="userSpaceOnUse" spreadMethod="reflect" id="fill6"><stop offset="0" stop-color="#B9D7EF"/><stop offset="0.5" stop-color="#9CC7E9"/><stop offset="1" stop-color="#83BEE8"/></linearGradient><linearGradient x1="2511.5" y1="1114.5" x2="2511.5" y2="1374.5" gradientUnits="userSpaceOnUse" spreadMethod="reflect" id="fill7"><stop offset="0" stop-color="#B9D7EF"/><stop offset="0.5" stop-color="#9CC7E9"/><stop offset="1" stop-color="#83BEE8"/></linearGradient><linearGradient x1="2511.5" y1="1372.5" x2="2511.5" y2="1560.5" gradientUnits="userSpaceOnUse" spreadMethod="reflect" id="fill8"><stop offset="0" stop-color="#B9D7EF"/><stop offset="0.5" stop-color="#9CC7E9"/><stop offset="1" stop-color="#83BEE8"/></linearGradient><linearGradient x1="3248.5" y1="1374.5" x2="3248.5" y2="1869.5" gradientUnits="userSpaceOnUse" spreadMethod="reflect" id="fill9"><stop offset="0" stop-color="#B9D7EF"/><stop offset="0.5" stop-color="#9CC7E9"/><stop offset="1" stop-color="#83BEE8"/></linearGradient><linearGradient x1="2508.5" y1="1725.5" x2="2508.5" y2="1969.5" gradientUnits="userSpaceOnUse" spreadMethod="reflect" id="fill10"><stop offset="0" stop-color="#D9E5BF"/><stop offset="0.5" stop-color="#CBDBA5"/><stop offset="1" stop-color="#C3D791"/></linearGradient></defs><g transform="translate(-303 -429)"><path d="M1497 939.5 1561.5 875 1626 939.5 1593.75 939.5 1593.75 1293.5 1626 1293.5 1561.5 1358 1497 1293.5 1529.25 1293.5 1529.25 939.5Z" fill="#C4EFFF" fill-rule="evenodd"/><path d="M1498 1461.5 1562.5 1397 1627 1461.5 1594.75 1461.5 1594.75 1547.5 1627 1547.5 1562.5 1612 1498 1547.5 1530.25 1547.5 1530.25 1461.5Z" fill="#C4EFFF" fill-rule="evenodd"/><path d="M492 1450.5 556.5 1386 621 1450.5 588.75 1450.5 588.75 1867.5 621 1867.5 556.5 1932 492 1867.5 524.25 1867.5 524.25 1450.5Z" fill="#C4EFFF" fill-rule="evenodd"/><path d="M498 1197.5 562.5 1133 627 1197.5 594.75 1197.5 594.75 1283.5 627 1283.5 562.5 1348 498 1283.5 530.25 1283.5 530.25 1197.5Z" fill="#C4EFFF" fill-rule="evenodd"/><path d="M503 938 567 874 631 938 599 938 599 1026 631 1026 567 1090 503 1026 535 1026 535 938Z" fill="#C4EFFF" fill-rule="evenodd"/><path d="M324 1114 701.639 1114" stroke="#0F6FC6" stroke-width="2.29167" stroke-linejoin="round" stroke-miterlimit="10" stroke-dasharray="9.16667 6.875" fill="none" fill-rule="evenodd"/><path d="M0 0 377.638 0.000360892" stroke="#0F6FC6" stroke-width="2.29167" stroke-linejoin="round" stroke-miterlimit="10" stroke-dasharray="9.16667 6.875" fill="none" fill-rule="evenodd" transform="matrix(1 0 0 -1 324 854)"/><path d="M0 0 389.764 0.000360892" stroke="#0F6FC6" stroke-width="2.29167" stroke-linejoin="round" stroke-miterlimit="10" stroke-dasharray="9.16667 6.875" fill="none" fill-rule="evenodd" transform="matrix(-1 0 0 1 1828.76 854)"/><path d="M0 0 389.764 0.000360892" stroke="#0F6FC6" stroke-width="2.29167" stroke-linejoin="round" stroke-miterlimit="10" stroke-dasharray="9.16667 6.875" fill="none" fill-rule="evenodd" transform="matrix(-1 0 0 1 1828.76 1374)"/><path d="M324 1372 701.639 1372" stroke="#0F6FC6" stroke-width="2.29167" stroke-linejoin="round" stroke-miterlimit="10" stroke-dasharray="9.16667 6.875" fill="none" fill-rule="evenodd"/><path d="M0 0 393.926 0.000360892" stroke="#0F6FC6" stroke-width="2.29167" stroke-linejoin="round" stroke-miterlimit="10" stroke-dasharray="9.16667 6.875" fill="none" fill-rule="evenodd" transform="matrix(-1 0 0 1 1832.93 1634)"/><path d="M331 1938 702.101 1938" stroke="#0F6FC6" stroke-width="2.29167" stroke-linejoin="round" stroke-miterlimit="10" stroke-dasharray="9.16667 6.875" fill="none" fill-rule="evenodd"/><rect x="507.5" y="634.5" width="390" height="130" stroke="#00405B" stroke-width="4.58333" stroke-linejoin="round" stroke-miterlimit="10" fill="#009DD9"/><text fill="#FFFFFF" font-family="Meiryo UI,Meiryo UI_MSFontService,sans-serif" font-weight="400" font-size="55" transform="matrix(1 0 0 1 626.701 721)">Client</text><rect x="1244.5" y="634.5" width="390" height="130" stroke="#00405B" stroke-width="4.58333" stroke-linejoin="round" stroke-miterlimit="10" fill="#009DD9"/><text fill="#FFFFFF" font-family="Meiryo UI,Meiryo UI_MSFontService,sans-serif" font-weight="400" font-size="55" transform="matrix(1 0 0 1 1351.14 721)">Server</text><path d="M0 0 0.000360892 1231.73" stroke="#0F6FC6" stroke-width="2.29167" stroke-linejoin="round" stroke-miterlimit="10" fill="none" fill-rule="evenodd" transform="matrix(-1 0 0 1 702 764)"/><path d="M0 0 0.000360892 928.974" stroke="#0F6FC6" stroke-width="2.29167" stroke-linejoin="round" stroke-miterlimit="10" fill="none" fill-rule="evenodd" transform="matrix(-1 0 0 1 1439 764)"/><rect x="660.5" y="854.5" width="84.0002" height="260" stroke="#009DD9" stroke-width="4.58333" stroke-linejoin="round" stroke-miterlimit="10" fill="url(#fill0)"/><rect x="1397.5" y="854.5" width="84.0002" height="520" stroke="#009DD9" stroke-width="4.58333" stroke-linejoin="round" stroke-miterlimit="10" fill="url(#fill1)"/><rect x="660.5" y="1114.5" width="84.0002" height="260" stroke="#009DD9" stroke-width="4.58333" stroke-linejoin="round" stroke-miterlimit="10" fill="url(#fill2)"/><path d="M744 852.854 1373.87 852.854 1373.87 855.146 744 855.146ZM1369.29 840.25 1396.79 854 1369.29 867.75Z" fill="#0F6FC6"/><text font-family="Meiryo UI,Meiryo UI_MSFontService,sans-serif" font-weight="400" font-size="46" transform="matrix(1 0 0 1 988.318 844)">FIN</text><path d="M6.36427e-07-1.14583 626.839-1.14549 626.839 1.14618-6.36427e-07 1.14583ZM622.256-13.7497 649.756 0.000360892 622.256 13.7503Z" fill="#0F6FC6" transform="matrix(-1 0 0 1 1396.76 1114)"/><text font-family="Meiryo UI,Meiryo UI_MSFontService,sans-serif" font-weight="400" font-size="46" transform="matrix(1 0 0 1 988.318 1060)">ACK</text><path d="M6.36428e-07-1.14583 626.839-1.14549 626.839 1.14618-6.36428e-07 1.14583ZM622.256-13.7497 649.756 0.000360892 622.256 13.7503Z" fill="#0F6FC6" transform="matrix(-1 0 0 1 1396.76 1372)"/><text font-family="Meiryo UI,Meiryo UI_MSFontService,sans-serif" font-weight="400" font-size="46" transform="matrix(1 0 0 1 1499.97 1087)">CLOSE_WAIT</text><text font-family="Meiryo UI,Meiryo UI_MSFontService,sans-serif" font-weight="400" font-size="41" transform="matrix(1 0 0 1 1501.41 1137)">(passive close)</text><text font-family="Meiryo UI,Meiryo UI_MSFontService,sans-serif" font-weight="400" font-size="46" transform="matrix(1 0 0 1 335.146 952)">FIN_WAIT_1</text><text font-family="Meiryo UI,Meiryo UI_MSFontService,sans-serif" font-weight="400" font-size="46" transform="matrix(1 0 0 1 330.563 1007)">(active</text><text font-family="Meiryo UI,Meiryo UI_MSFontService,sans-serif" font-weight="400" font-size="46" transform="matrix(1 0 0 1 496.708 1007)">close</text><text font-family="Meiryo UI,Meiryo UI_MSFontService,sans-serif" font-weight="400" font-size="46" transform="matrix(1 0 0 1 608.427 1007)">)</text><text font-family="Meiryo UI,Meiryo UI_MSFontService,sans-serif" font-weight="400" font-size="46" transform="matrix(1 0 0 1 334.083 1244)">FIN_WAIT_2</text><rect x="660.5" y="1372.5" width="84.0002" height="566" stroke="#009DD9" stroke-width="4.58333" stroke-linejoin="round" stroke-miterlimit="10" fill="url(#fill3)"/><rect x="1397.5" y="1374.5" width="84.0002" height="260" stroke="#009DD9" stroke-width="4.58333" stroke-linejoin="round" stroke-miterlimit="10" fill="url(#fill4)"/><path d="M741 1632.85 1370.87 1632.85 1370.87 1635.15 741 1635.15ZM1366.29 1620.25 1393.79 1634 1366.29 1647.75Z" fill="#0F6FC6"/><text font-family="Meiryo UI,Meiryo UI_MSFontService,sans-serif" font-weight="400" font-size="46" transform="matrix(1 0 0 1 368.59 1604)">TIME_WAIT</text><text font-family="Meiryo UI,Meiryo UI_MSFontService,sans-serif" font-weight="400" font-size="46" transform="matrix(1 0 0 1 998.662 1362)">FIN</text><text font-family="Meiryo UI,Meiryo UI_MSFontService,sans-serif" font-weight="400" font-size="46" transform="matrix(1 0 0 1 1002.83 1619)">ACK</text><text font-family="Meiryo UI,Meiryo UI_MSFontService,sans-serif" font-weight="400" font-size="46" transform="matrix(1 0 0 1 1524.52 1499)">LAST_ACK</text><path d="M667.5 2031.5C667.5 2012.17 683.17 1996.5 702.5 1996.5 721.83 1996.5 737.5 2012.17 737.5 2031.5 737.5 2050.83 721.83 2066.5 702.5 2066.5 683.17 2066.5 667.5 2050.83 667.5 2031.5Z" stroke="#022B52" stroke-width="4.58333" stroke-linejoin="round" stroke-miterlimit="10" fill="#0F6FC6" fill-rule="evenodd"/><path d="M1404.5 1728.5C1404.5 1709.17 1420.17 1693.5 1439.5 1693.5 1458.83 1693.5 1474.5 1709.17 1474.5 1728.5 1474.5 1747.83 1458.83 1763.5 1439.5 1763.5 1420.17 1763.5 1404.5 1747.83 1404.5 1728.5Z" stroke="#022B52" stroke-width="4.58333" stroke-linejoin="round" stroke-miterlimit="10" fill="#0F6FC6" fill-rule="evenodd"/><text font-family="Meiryo UI,Meiryo UI_MSFontService,sans-serif" font-weight="400" font-size="46" transform="matrix(1 0 0 1 452.068 2050)">CLOSED</text><text font-family="Meiryo UI,Meiryo UI_MSFontService,sans-serif" font-weight="400" font-size="46" transform="matrix(1 0 0 1 1499.39 1745)">CLOSED</text><path d="M809 1737 1394 1737 1394 1940.33 1353.33 1981 809 1981Z" fill="#D9D9D9" fill-rule="evenodd"/><path d="M1353.33 1981 1361.47 1948.47 1394 1940.33Z" fill="#AEAEAE" fill-rule="evenodd"/><text font-family="Meiryo UI,Meiryo UI_MSFontService,sans-serif" font-weight="400" font-size="37" transform="matrix(1 0 0 1 834.755 1788)">ACK</text><text font-family="Meiryo UI,Meiryo UI_MSFontService,sans-serif" font-weight="400" font-size="37" transform="matrix(1 0 0 1 908.088 1788)">を送信しても、即時</text><text font-family="Meiryo UI,Meiryo UI_MSFontService,sans-serif" font-weight="400" font-size="37" transform="matrix(1 0 0 1 1202.57 1788)">CLOSED </text><text font-family="Meiryo UI,Meiryo UI_MSFontService,sans-serif" font-weight="400" font-size="37" transform="matrix(1 0 0 1 834.755 1832)">にならず、しばらく</text><text font-family="Meiryo UI,Meiryo UI_MSFontService,sans-serif" font-weight="400" font-size="37" transform="matrix(1 0 0 1 1077.1 1832)">TIME_WAIT_</text><text font-family="Meiryo UI,Meiryo UI_MSFontService,sans-serif" font-weight="400" font-size="37" transform="matrix(1 0 0 1 1314.29 1832)">状</text><text font-family="Meiryo UI,Meiryo UI_MSFontService,sans-serif" font-weight="400" font-size="37" transform="matrix(1 0 0 1 834.755 1876)">態を維持するため、万が一再送</text><text font-family="Meiryo UI,Meiryo UI_MSFontService,sans-serif" font-weight="400" font-size="37" transform="matrix(1 0 0 1 1303.4 1876)">FIN </text><text font-family="Meiryo UI,Meiryo UI_MSFontService,sans-serif" font-weight="400" font-size="37" transform="matrix(1 0 0 1 834.755 1920)">が届いても適切に処理できる</text><path d="M808.824 1859.6 711.617 1825.08 712.383 1822.92 809.591 1857.44ZM707.399 1836.96C700.243 1834.42 696.502 1826.56 699.042 1819.4 701.583 1812.24 709.445 1808.5 716.601 1811.04 723.757 1813.58 727.498 1821.44 724.957 1828.6 722.416 1835.76 714.555 1839.5 707.399 1836.96Z" fill="#7F7F7F"/><path d="M507 449.667C507 438.805 515.805 430 526.667 430L1614.33 430C1625.19 430 1634 438.805 1634 449.667L1634 528.333C1634 539.195 1625.19 548 1614.33 548L526.667 548C515.805 548 507 539.195 507 528.333Z" fill="#D9D9D9" fill-rule="evenodd"/><text font-family="Meiryo,Meiryo_MSFontService,sans-serif" font-weight="400" font-size="55" transform="matrix(1 0 0 1 850.359 503)">正しいシーケンス</text><rect x="2316.5" y="634.5" width="390" height="130" stroke="#00405B" stroke-width="4.58333" stroke-linejoin="round" stroke-miterlimit="10" fill="#009DD9"/><text fill="#FFFFFF" font-family="Meiryo UI,Meiryo UI_MSFontService,sans-serif" font-weight="400" font-size="55" transform="matrix(1 0 0 1 2435.69 721)">Client</text><rect x="3053.5" y="634.5" width="390" height="130" stroke="#00405B" stroke-width="4.58333" stroke-linejoin="round" stroke-miterlimit="10" fill="#009DD9"/><text fill="#FFFFFF" font-family="Meiryo UI,Meiryo UI_MSFontService,sans-serif" font-weight="400" font-size="55" transform="matrix(1 0 0 1 3160.13 721)">Server</text><path d="M0 0 0.000360892 815.618" stroke="#0F6FC6" stroke-width="2.29167" stroke-linejoin="round" stroke-miterlimit="10" fill="none" fill-rule="evenodd" transform="matrix(-1 0 0 1 2511 764)"/><path d="M0 0 0.000360892 1231.73" stroke="#0F6FC6" stroke-width="2.29167" stroke-linejoin="round" stroke-miterlimit="10" fill="none" fill-rule="evenodd" transform="matrix(-1 0 0 1 3248 764)"/><rect x="2469.5" y="854.5" width="83.9998" height="260" stroke="#009DD9" stroke-width="4.58333" stroke-linejoin="round" stroke-miterlimit="10" fill="url(#fill5)"/><rect x="3206.5" y="854.5" width="83.9998" height="520" stroke="#009DD9" stroke-width="4.58333" stroke-linejoin="round" stroke-miterlimit="10" fill="url(#fill6)"/><rect x="2469.5" y="1114.5" width="83.9998" height="260" stroke="#009DD9" stroke-width="4.58333" stroke-linejoin="round" stroke-miterlimit="10" fill="url(#fill7)"/><path d="M2553 852.854 3182.87 852.854 3182.87 855.146 2553 855.146ZM3178.29 840.25 3205.79 854 3178.29 867.75Z" fill="#0F6FC6"/><text font-family="Meiryo UI,Meiryo UI_MSFontService,sans-serif" font-weight="400" font-size="46" transform="matrix(1 0 0 1 2797.31 844)">FIN</text><path d="M6.36427e-07-1.14583 626.839-1.14549 626.839 1.14618-6.36427e-07 1.14583ZM622.256-13.7497 649.756 0.000360892 622.256 13.7503Z" fill="#0F6FC6" transform="matrix(-1 0 0 1 3205.76 1114)"/><text font-family="Meiryo UI,Meiryo UI_MSFontService,sans-serif" font-weight="400" font-size="46" transform="matrix(1 0 0 1 2797.31 1060)">ACK</text><path d="M6.36428e-07-1.14583 626.839-1.14549 626.839 1.14618-6.36428e-07 1.14583ZM622.256-13.7497 649.756 0.000360892 622.256 13.7503Z" fill="#0F6FC6" transform="matrix(-1 0 0 1 3205.76 1372)"/><rect x="2469.5" y="1372.5" width="83.9998" height="188" stroke="#009DD9" stroke-width="4.58333" stroke-linejoin="round" stroke-miterlimit="10" fill="url(#fill8)"/><rect x="3206.5" y="1374.5" width="83.9998" height="495" stroke="#009DD9" stroke-width="4.58333" stroke-linejoin="round" stroke-miterlimit="10" fill="url(#fill9)"/><path d="M2550 1556.85 2863.82 1556.85 2863.82 1559.15 2550 1559.15ZM2859.24 1544.25 2886.74 1558 2859.24 1571.75Z" fill="#0F6FC6"/><text font-family="Meiryo UI,Meiryo UI_MSFontService,sans-serif" font-weight="400" font-size="46" transform="matrix(1 0 0 1 2807.65 1362)">FIN</text><text font-family="Meiryo UI,Meiryo UI_MSFontService,sans-serif" font-weight="400" font-size="46" transform="matrix(1 0 0 1 2665.68 1548)">ACK</text><path d="M2476.5 1615.5C2476.5 1596.17 2492.17 1580.5 2511.5 1580.5 2530.83 1580.5 2546.5 1596.17 2546.5 1615.5 2546.5 1634.83 2530.83 1650.5 2511.5 1650.5 2492.17 1650.5 2476.5 1634.83 2476.5 1615.5Z" stroke="#022B52" stroke-width="4.58333" stroke-linejoin="round" stroke-miterlimit="10" fill="#0F6FC6" fill-rule="evenodd"/><path d="M3213.5 2031.5C3213.5 2012.17 3229.17 1996.5 3248.5 1996.5 3267.83 1996.5 3283.5 2012.17 3283.5 2031.5 3283.5 2050.83 3267.83 2066.5 3248.5 2066.5 3229.17 2066.5 3213.5 2050.83 3213.5 2031.5Z" stroke="#022B52" stroke-width="4.58333" stroke-linejoin="round" stroke-miterlimit="10" fill="#0F6FC6" fill-rule="evenodd"/><text font-family="Meiryo UI,Meiryo UI_MSFontService,sans-serif" font-weight="400" font-size="46" transform="matrix(1 0 0 1 2261.06 1631)">CLOSED</text><text font-family="Meiryo UI,Meiryo UI_MSFontService,sans-serif" font-weight="400" font-size="46" transform="matrix(1 0 0 1 3310.1 2049)">CLOSED</text><path d="M2316 449.667C2316 438.805 2324.8 430 2335.67 430L3423.33 430C3434.19 430 3443 438.805 3443 449.667L3443 528.333C3443 539.195 3434.19 548 3423.33 548L2335.67 548C2324.8 548 2316 539.195 2316 528.333Z" fill="#D9D9D9" fill-rule="evenodd"/><text font-family="Meiryo,Meiryo_MSFontService,sans-serif" font-weight="400" font-size="55" transform="matrix(1 0 0 1 2398.18 503)">もし</text><text font-family="Meiryo,Meiryo_MSFontService,sans-serif" font-weight="400" font-size="55" transform="matrix(1 0 0 1 2527.09 503)">TIME_WAIT </text><text font-family="Meiryo,Meiryo_MSFontService,sans-serif" font-weight="400" font-size="55" transform="matrix(1 0 0 1 2865.52 503)">期間がなかったら</text><text font-family="Meiryo,Meiryo_MSFontService,sans-serif" font-weight="400" font-size="55" transform="matrix(1 0 0 1 3305.52 503)">…</text><path d="M2890.5 1557.5C2890.5 1534.3 2909.3 1515.5 2932.5 1515.5 2955.7 1515.5 2974.5 1534.3 2974.5 1557.5 2974.5 1580.7 2955.7 1599.5 2932.5 1599.5 2909.3 1599.5 2890.5 1580.7 2890.5 1557.5ZM2958.16 1575.89C2968.32 1561.72 2965.07 1541.99 2950.89 1531.84 2939.9 1523.96 2925.1 1523.96 2914.11 1531.84ZM2906.84 1539.11C2896.68 1553.28 2899.93 1573.01 2914.11 1583.16 2925.1 1591.04 2939.9 1591.04 2950.89 1583.16Z" stroke="#022B52" stroke-width="4.58333" stroke-linejoin="round" stroke-miterlimit="10" fill="#0F6FC6" fill-rule="evenodd"/><text font-family="Meiryo UI,Meiryo UI_MSFontService,sans-serif" font-weight="400" font-size="46" transform="matrix(1 0 0 1 2811.75 1502)">遅延</text><text font-family="Meiryo UI,Meiryo UI_MSFontService,sans-serif" font-weight="400" font-size="46" transform="matrix(1 0 0 1 2903.41 1502)">or</text><text font-family="Meiryo UI,Meiryo UI_MSFontService,sans-serif" font-weight="400" font-size="46" transform="matrix(1 0 0 1 2949.82 1502)">未達</text><path d="M6.36428e-07-1.14583 626.839-1.14549 626.839 1.14618-6.36428e-07 1.14583ZM622.256-13.7497 649.756 0.000360892 622.256 13.7503Z" fill="#0F6FC6" transform="matrix(-1 0 0 1 3201.76 1768)"/><rect x="2466.5" y="1725.5" width="84.0002" height="244" stroke="#A5C249" stroke-width="4.58333" stroke-linejoin="round" stroke-miterlimit="10" fill="url(#fill10)"/><text font-family="Meiryo UI,Meiryo UI_MSFontService,sans-serif" font-weight="400" font-size="46" transform="matrix(1 0 0 1 2380.04 1716)">OPEN</text><path d="M2475.5 1849.17 2506.3 1829.56 2495.31 1805.11 2544.7 1805.11 2575.5 1785.5 2606.3 1805.11 2655.69 1805.11 2644.7 1829.56 2675.5 1849.17 2631 1860.05 2620 1884.5 2575.5 1873.62 2531 1884.5 2520 1860.05Z" stroke="#FF0000" stroke-width="4.58333" stroke-linejoin="round" stroke-miterlimit="10" fill="#C8E3FB" fill-rule="evenodd"/><text font-family="Meiryo UI,Meiryo UI_MSFontService,sans-serif" font-weight="400" font-size="46" transform="matrix(1 0 0 1 2541.24 1851)">NG</text><text font-family="Meiryo UI,Meiryo UI_MSFontService,sans-serif" font-weight="400" font-size="46" transform="matrix(1 0 0 1 2779.13 1752)">再送</text><text font-family="Meiryo UI,Meiryo UI_MSFontService,sans-serif" font-weight="400" font-size="46" transform="matrix(1 0 0 1 2886.26 1752)">FIN</text><path d="M2797 1824 3173 1824 3173 1973.17 3143.17 2003 2797 2003Z" fill="#D9D9D9" fill-rule="evenodd"/><path d="M3143.17 2003 3149.13 1979.13 3173 1973.17Z" fill="#AEAEAE" fill-rule="evenodd"/><text font-family="Meiryo UI,Meiryo UI_MSFontService,sans-serif" font-weight="400" font-size="37" transform="matrix(1 0 0 1 2823.29 1870)">ACK</text><text font-family="Meiryo UI,Meiryo UI_MSFontService,sans-serif" font-weight="400" font-size="37" transform="matrix(1 0 0 1 2896.63 1870)">が一定期間届か</text><text font-family="Meiryo UI,Meiryo UI_MSFontService,sans-serif" font-weight="400" font-size="37" transform="matrix(1 0 0 1 2823.29 1914)">ないと</text><text font-family="Meiryo UI,Meiryo UI_MSFontService,sans-serif" font-weight="400" font-size="37" transform="matrix(1 0 0 1 2920.12 1914)">FIN </text><text font-family="Meiryo UI,Meiryo UI_MSFontService,sans-serif" font-weight="400" font-size="37" transform="matrix(1 0 0 1 2995.74 1914)">が再送さ</text><text font-family="Meiryo UI,Meiryo UI_MSFontService,sans-serif" font-weight="400" font-size="37" transform="matrix(1 0 0 1 2823.29 1958)">れる</text><path d="M0.653891-0.940936 85.7689 58.2086 84.4611 60.0905-0.653891 0.940936ZM92.9617 47.8583C99.1977 52.1919 100.74 60.7603 96.4063 66.9962 92.0727 73.2322 83.5043 74.7744 77.2683 70.4408 71.0324 66.1072 69.4902 57.5388 73.8238 51.3029 78.1574 45.0669 86.7257 43.5247 92.9617 47.8583Z" fill="#7F7F7F" transform="matrix(1 0 0 -1 2985 1824.15)"/><path d="M1912 1785 2388 1785 2388 1980.83 2348.83 2020 1912 2020Z" fill="#D9D9D9" fill-rule="evenodd"/><path d="M2348.83 2020 2356.67 1988.67 2388 1980.83Z" fill="#AEAEAE" fill-rule="evenodd"/><text font-family="Meiryo UI,Meiryo UI_MSFontService,sans-serif" font-weight="400" font-size="37" transform="matrix(1 0 0 1 1938.36 1832)">もし新しい別の接続が同じ</text><text font-family="Meiryo UI,Meiryo UI_MSFontService,sans-serif" font-weight="400" font-size="37" transform="matrix(1 0 0 1 1938.36 1876)">ポートでオープンしていると、</text><text font-family="Meiryo UI,Meiryo UI_MSFontService,sans-serif" font-weight="400" font-size="37" transform="matrix(1 0 0 1 1938.36 1920)">前回のアプリの再送</text><text font-family="Meiryo UI,Meiryo UI_MSFontService,sans-serif" font-weight="400" font-size="37" transform="matrix(1 0 0 1 2233.99 1920)">FIN </text><text font-family="Meiryo UI,Meiryo UI_MSFontService,sans-serif" font-weight="400" font-size="37" transform="matrix(1 0 0 1 2309.61 1920)">を</text><text font-family="Meiryo UI,Meiryo UI_MSFontService,sans-serif" font-weight="400" font-size="37" transform="matrix(1 0 0 1 1938.36 1964)">別のアプリが受け取ってしまう</text><path d="M0.598995-0.976801 87.4838 52.3028 86.2858 54.2564-0.598995 0.976801ZM94.0728 41.558C100.546 45.5278 102.576 53.9939 98.6064 60.4676 94.6367 66.9412 86.1706 68.971 79.6969 65.0012 73.2232 61.0314 71.1935 52.5654 75.1632 46.0917 79.133 39.618 87.5991 37.5882 94.0728 41.558Z" fill="#7F7F7F" transform="matrix(1 0 0 -1 2388 1902.28)"/><path d="M0 0 396.63 1589.71" stroke="#7F7F7F" stroke-width="2.29167" stroke-linejoin="round" stroke-miterlimit="10" fill="none" fill-rule="evenodd" transform="matrix(-1 0 0 1 2199.63 430)"/><text font-family="Meiryo UI,Meiryo UI_MSFontService,sans-serif" font-weight="400" font-size="46" transform="matrix(1 0 0 1 427.57 833)">CLOSE </text><text font-family="Meiryo UI,Meiryo UI_MSFontService,sans-serif" font-weight="400" font-size="46" transform="matrix(1 0 0 1 591.998 833)">開始</text><text font-family="Meiryo UI,Meiryo UI_MSFontService,sans-serif" font-weight="400" font-size="46" transform="matrix(1 0 0 1 2248.16 841)">CLOSE </text><text font-family="Meiryo UI,Meiryo UI_MSFontService,sans-serif" font-weight="400" font-size="46" transform="matrix(1 0 0 1 2412.58 841)">開始</text></g></svg>