<svg width="1503" height="896" xmlns="http://www.w3.org/2000/svg" xmlns:xlink="http://www.w3.org/1999/xlink" xml:space="preserve" overflow="hidden"><defs><clipPath id="clip0"><rect x="2162" y="1367" width="155" height="177"/></clipPath><clipPath id="clip1"><rect x="2162" y="1367" width="155" height="177"/></clipPath><clipPath id="clip2"><rect x="2162" y="1367" width="155" height="177"/></clipPath></defs><g transform="translate(-986 -996)"><path d="M988.5 1155.53C988.5 1108.02 1027.02 1069.5 1074.53 1069.5L1709.47 1069.5C1756.98 1069.5 1795.5 1108.02 1795.5 1155.53L1795.5 1803.47C1795.5 1850.98 1756.98 1889.5 1709.47 1889.5L1074.53 1889.5C1027.02 1889.5 988.5 1850.98 988.5 1803.47Z" stroke="#022B52" stroke-width="4.58333" stroke-linejoin="round" stroke-miterlimit="10" fill="#FFFFFF" fill-rule="evenodd"/><g><g><g><path d="M1247.57 1768.4C1247.57 1773.22 1243.78 1777 1238.97 1777L1155.38 1777C1150.56 1777 1146.78 1773.22 1146.78 1768.4L1146.78 1613.6C1146.78 1608.78 1150.56 1605 1155.38 1605L1238.97 1605C1243.78 1605 1247.57 1608.78 1247.57 1613.6L1247.57 1768.4Z" fill="#3E3E3E"/><path d="M1161.22 1697.88C1161.22 1691.69 1166.04 1686.87 1172.23 1686.87L1222.46 1686.87C1228.65 1686.87 1233.46 1691.69 1233.46 1697.88L1233.46 1697.88C1233.46 1704.07 1228.65 1708.89 1222.46 1708.89L1172.23 1708.89C1166.38 1708.89 1161.22 1704.07 1161.22 1697.88L1161.22 1697.88Z" fill="#1E1E1E"/><path d="M1180.14 1697.88C1180.14 1701.87 1176.91 1705.1 1172.92 1705.1 1168.93 1705.1 1165.7 1701.87 1165.7 1697.88 1165.7 1693.89 1168.93 1690.66 1172.92 1690.66 1176.91 1690.66 1180.14 1693.89 1180.14 1697.88Z" fill="#B8D432"/><path d="M1161.22 1665.2C1161.22 1659.01 1166.04 1654.19 1172.23 1654.19L1222.46 1654.19C1228.65 1654.19 1233.46 1659.01 1233.46 1665.2L1233.46 1665.2C1233.46 1671.39 1228.65 1676.21 1222.46 1676.21L1172.23 1676.21C1166.38 1676.21 1161.22 1671.39 1161.22 1665.2L1161.22 1665.2Z" fill="#1E1E1E"/><path d="M1180.14 1665.2C1180.14 1669.19 1176.91 1672.42 1172.92 1672.42 1168.93 1672.42 1165.7 1669.19 1165.7 1665.2 1165.7 1661.21 1168.93 1657.98 1172.92 1657.98 1176.91 1657.98 1180.14 1661.21 1180.14 1665.2Z" fill="#B8D432"/><path d="M1161.22 1632.86C1161.22 1626.67 1166.04 1621.86 1172.23 1621.86L1222.46 1621.86C1228.65 1621.86 1233.46 1626.67 1233.46 1632.86L1233.46 1632.86C1233.46 1639.06 1228.65 1643.87 1222.46 1643.87L1172.23 1643.87C1166.38 1643.87 1161.22 1638.71 1161.22 1632.86L1161.22 1632.86Z" fill="#1E1E1E"/><path d="M1180.14 1632.86C1180.14 1636.85 1176.91 1640.09 1172.92 1640.09 1168.93 1640.09 1165.7 1636.85 1165.7 1632.86 1165.7 1628.87 1168.93 1625.64 1172.92 1625.64 1176.91 1625.64 1180.14 1628.87 1180.14 1632.86Z" fill="#B8D432"/></g></g></g><g><g><g><path d="M1247.57 1530.4C1247.57 1535.22 1243.78 1539 1238.97 1539L1155.38 1539C1150.56 1539 1146.78 1535.22 1146.78 1530.4L1146.78 1375.6C1146.78 1370.78 1150.56 1367 1155.38 1367L1238.97 1367C1243.78 1367 1247.57 1370.78 1247.57 1375.6L1247.57 1530.4Z" fill="#3E3E3E"/><path d="M1161.22 1459.88C1161.22 1453.69 1166.04 1448.87 1172.23 1448.87L1222.46 1448.87C1228.65 1448.87 1233.46 1453.69 1233.46 1459.88L1233.46 1459.88C1233.46 1466.07 1228.65 1470.89 1222.46 1470.89L1172.23 1470.89C1166.38 1470.89 1161.22 1466.07 1161.22 1459.88L1161.22 1459.88Z" fill="#1E1E1E"/><path d="M1180.14 1459.88C1180.14 1463.87 1176.91 1467.1 1172.92 1467.1 1168.93 1467.1 1165.7 1463.87 1165.7 1459.88 1165.7 1455.89 1168.93 1452.66 1172.92 1452.66 1176.91 1452.66 1180.14 1455.89 1180.14 1459.88Z" fill="#B8D432"/><path d="M1161.22 1427.2C1161.22 1421.01 1166.04 1416.19 1172.23 1416.19L1222.46 1416.19C1228.65 1416.19 1233.46 1421.01 1233.46 1427.2L1233.46 1427.2C1233.46 1433.39 1228.65 1438.21 1222.46 1438.21L1172.23 1438.21C1166.38 1438.21 1161.22 1433.39 1161.22 1427.2L1161.22 1427.2Z" fill="#1E1E1E"/><path d="M1180.14 1427.2C1180.14 1431.19 1176.91 1434.42 1172.92 1434.42 1168.93 1434.42 1165.7 1431.19 1165.7 1427.2 1165.7 1423.21 1168.93 1419.98 1172.92 1419.98 1176.91 1419.98 1180.14 1423.21 1180.14 1427.2Z" fill="#B8D432"/><path d="M1161.22 1394.86C1161.22 1388.67 1166.04 1383.86 1172.23 1383.86L1222.46 1383.86C1228.65 1383.86 1233.46 1388.67 1233.46 1394.86L1233.46 1394.86C1233.46 1401.06 1228.65 1405.87 1222.46 1405.87L1172.23 1405.87C1166.38 1405.87 1161.22 1400.71 1161.22 1394.86L1161.22 1394.86Z" fill="#1E1E1E"/><path d="M1180.14 1394.86C1180.14 1398.85 1176.91 1402.09 1172.92 1402.09 1168.93 1402.09 1165.7 1398.85 1165.7 1394.86 1165.7 1390.87 1168.93 1387.64 1172.92 1387.64 1176.91 1387.64 1180.14 1390.87 1180.14 1394.86Z" fill="#B8D432"/></g></g></g><g><g><g><path d="M136.568 163.4C136.568 168.216 132.784 172 127.968 172L44.376 172C39.56 172 35.776 168.216 35.776 163.4L35.776 8.59999C35.776 3.784 39.56 0 44.376 0L127.968 0C132.784 0 136.568 3.784 136.568 8.59999L136.568 163.4Z" fill="#3E3E3E" transform="matrix(1 0 0 1 1111 1128)"/><path d="M50.224 92.8799C50.224 86.6879 55.04 81.8719 61.232 81.8719L111.456 81.8719C117.648 81.8719 122.464 86.6879 122.464 92.8799L122.464 92.8799C122.464 99.0719 117.648 103.888 111.456 103.888L61.232 103.888C55.384 103.888 50.224 99.0719 50.224 92.8799L50.224 92.8799Z" fill="#1E1E1E" transform="matrix(1 0 0 1 1111 1128)"/><path d="M69.144 92.8799C69.144 96.8696 65.9097 100.104 61.92 100.104 57.9303 100.104 54.696 96.8696 54.696 92.8799 54.696 88.8902 57.9303 85.6559 61.92 85.6559 65.9097 85.6559 69.144 88.8902 69.144 92.8799Z" fill="#B8D432" transform="matrix(1 0 0 1 1111 1128)"/><path d="M50.224 60.2C50.224 54.008 55.04 49.192 61.232 49.192L111.456 49.192C117.648 49.192 122.464 54.008 122.464 60.2L122.464 60.2C122.464 66.3919 117.648 71.2079 111.456 71.2079L61.232 71.2079C55.384 71.2079 50.224 66.3919 50.224 60.2L50.224 60.2Z" fill="#1E1E1E" transform="matrix(1 0 0 1 1111 1128)"/><path d="M69.144 60.2C69.144 64.1897 65.9097 67.424 61.92 67.424 57.9303 67.424 54.696 64.1897 54.696 60.2 54.696 56.2103 57.9303 52.976 61.92 52.976 65.9097 52.976 69.144 56.2103 69.144 60.2Z" fill="#B8D432" transform="matrix(1 0 0 1 1111 1128)"/><path d="M50.224 27.864C50.224 21.672 55.04 16.856 61.232 16.856L111.456 16.856C117.648 16.856 122.464 21.672 122.464 27.864L122.464 27.864C122.464 34.056 117.648 38.872 111.456 38.872L61.232 38.872C55.384 38.872 50.224 33.712 50.224 27.864L50.224 27.864Z" fill="#1E1E1E" transform="matrix(1 0 0 1 1111 1128)"/><path d="M69.144 27.864C69.144 31.8537 65.9097 35.088 61.92 35.088 57.9303 35.088 54.696 31.8537 54.696 27.864 54.696 23.8743 57.9303 20.64 61.92 20.64 65.9097 20.64 69.144 23.8743 69.144 27.864Z" fill="#B8D432" transform="matrix(1 0 0 1 1111 1128)"/></g></g></g><g><g><g><path d="M412.44 238.389 152.379 238.389C146.284 238.389 141.544 243.13 141.544 249.225L141.544 314.918C141.544 321.013 146.284 325.753 152.379 325.753L412.44 325.753C418.536 325.753 423.276 321.013 423.276 314.918L423.276 249.225C423.276 243.13 418.536 238.389 412.44 238.389ZM165.247 314.918C159.829 314.918 155.088 310.177 155.088 304.759 155.088 299.341 159.829 294.6 165.247 294.6 170.665 294.6 175.406 299.341 175.406 304.759 175.406 310.854 170.665 314.918 165.247 314.918ZM402.282 311.531 345.394 311.531C343.362 311.531 342.007 310.177 342.007 308.145 342.007 306.113 343.362 304.759 345.394 304.759L402.282 304.759C404.314 304.759 405.668 306.113 405.668 308.145 405.668 309.5 404.314 311.531 402.282 311.531ZM402.282 300.018 345.394 300.018C343.362 300.018 342.007 298.664 342.007 296.632 342.007 294.6 343.362 293.246 345.394 293.246L402.282 293.246C404.314 293.246 405.668 294.6 405.668 296.632 405.668 298.664 404.314 300.018 402.282 300.018ZM402.282 289.182 345.394 289.182C343.362 289.182 342.007 287.828 342.007 285.796 342.007 283.764 343.362 282.41 345.394 282.41L402.282 282.41C404.314 282.41 405.668 283.764 405.668 285.796 405.668 287.828 404.314 289.182 402.282 289.182Z" fill="#2A3282" transform="matrix(1 0 0 1.0009 1412.59 1170.18)"/></g></g></g><text font-family="Meiryo UI,Meiryo UI_MSFontService,sans-serif" font-weight="400" font-size="46" transform="matrix(1 0 0 1 1560.39 1549)">SNAT </text><text font-family="Meiryo UI,Meiryo UI_MSFontService,sans-serif" font-weight="400" font-size="46" transform="matrix(1 0 0 1 1699.04 1549)">装置</text><text font-family="Meiryo UI,Meiryo UI_MSFontService,sans-serif" font-weight="400" font-size="50" transform="matrix(1 0 0 1 1075.69 1839)">アプリサーバー</text><g clip-path="url(#clip0)"><g clip-path="url(#clip1)"><g clip-path="url(#clip2)"><path d="M2169.18 1542.56 2257.35 1542.56C2261.84 1542.56 2263.09 1540.48 2263.09 1536L2263.09 1516.02C2228.06 1515.85 2199.81 1487.31 2199.98 1452.28 2200.05 1438.46 2204.62 1425.04 2213.02 1414.06 2225.55 1399.22 2243.69 1390.26 2263.09 1389.33L2263.09 1373.62C2263.09 1370.21 2260.33 1367.44 2256.91 1367.44L2169.35 1367.44C2165.97 1367.32 2163.12 1369.96 2163 1373.34 2163 1373.44 2163 1373.53 2163 1373.62L2163 1536.38C2162.97 1539.76 2165.69 1542.53 2169.07 1542.56 2169.11 1542.56 2169.15 1542.56 2169.18 1542.56ZM2200.54 1517.55 2225.55 1517.55 2225.55 1530.03 2200.54 1530.03Z" fill="#2F2F2F"/><path d="M2283.84 1475.69 2242.3 1475.69C2242.63 1477.22 2243.12 1479.08 2243.72 1481.16 2244.32 1483.24 2245.03 1485.48 2245.91 1487.78 2246.81 1490.08 2247.83 1492.33 2248.97 1494.51 2250.05 1496.65 2251.35 1498.67 2252.86 1500.53 2254.19 1502.19 2255.78 1503.64 2257.57 1504.8 2260.92 1506.89 2265.16 1506.89 2268.51 1504.8 2270.3 1503.64 2271.89 1502.19 2273.22 1500.53 2274.73 1498.67 2276.03 1496.65 2277.1 1494.51 2278.27 1492.35 2279.31 1490.12 2280.22 1487.84 2281.1 1485.54 2281.87 1483.29 2282.47 1481.21 2283.07 1479.13 2283.4 1477.22 2283.84 1475.69Z" fill="#C2C2C2"/><path d="M2292.92 1437.16C2293.25 1439.73 2293.47 1442.3 2293.63 1444.82 2293.8 1447.34 2293.63 1449.97 2293.63 1452.54 2293.63 1455.11 2293.63 1457.74 2293.63 1460.31 2293.63 1462.88 2293.25 1465.4 2292.92 1467.97L2314.81 1467.97C2317.8 1457.92 2317.8 1447.21 2314.81 1437.16Z" fill="#C2C2C2"/><path d="M2287.72 1414.94C2288.6 1417.28 2289.36 1419.68 2290.02 1422.16 2290.68 1424.63 2291.22 1427.03 2291.72 1429.44L2311.75 1429.44C2310.23 1426.22 2308.4 1423.16 2306.27 1420.3 2304.13 1417.45 2301.71 1414.81 2299.05 1412.42 2296.4 1410.05 2293.52 1407.94 2290.46 1406.13 2287.39 1404.29 2284.15 1402.76 2280.77 1401.59 2282.21 1403.63 2283.51 1405.77 2284.66 1407.99 2285.8 1410.25 2286.82 1412.57 2287.72 1414.94Z" fill="#C2C2C2"/><path d="M2240.98 1437.16C2240.66 1439.73 2240.44 1442.3 2240.22 1444.82 2240 1447.34 2240.22 1449.97 2240.22 1452.54 2240.22 1455.11 2240.22 1457.74 2240.22 1460.31 2240.22 1462.88 2240.66 1465.4 2240.98 1467.97L2285.15 1467.97C2285.48 1465.4 2285.7 1462.83 2285.92 1460.31 2286.13 1457.79 2286.19 1455.16 2286.19 1452.54 2286.19 1449.91 2286.19 1447.39 2285.92 1444.82 2285.64 1442.25 2285.48 1439.73 2285.15 1437.16Z" fill="#C2C2C2"/><path d="M2248.97 1410.51C2250.05 1408.38 2251.35 1406.38 2252.86 1404.54 2254.19 1402.88 2255.78 1401.44 2257.57 1400.27 2260.89 1398.1 2265.19 1398.1 2268.51 1400.27 2270.3 1401.44 2271.89 1402.88 2273.22 1404.54 2274.73 1406.38 2276.03 1408.38 2277.1 1410.51 2278.25 1412.71 2279.27 1414.98 2280.17 1417.29 2281.04 1419.59 2281.81 1421.78 2282.41 1423.92 2283.01 1426.05 2283.45 1427.91 2283.78 1429.39L2242.3 1429.39C2242.63 1427.86 2243.12 1426 2243.72 1423.92 2244.32 1421.84 2245.03 1419.59 2245.91 1417.29 2246.81 1414.98 2247.83 1412.71 2248.97 1410.51Z" fill="#C2C2C2"/><path d="M2219.92 1420.3C2222.06 1417.45 2224.48 1414.81 2227.14 1412.42 2229.8 1410.06 2232.68 1407.95 2235.73 1406.13 2238.79 1404.29 2242.04 1402.76 2245.42 1401.59 2243.98 1403.63 2242.68 1405.77 2241.53 1407.99 2240.37 1410.25 2239.33 1412.57 2238.41 1414.94 2237.54 1417.28 2236.77 1419.68 2236.11 1422.16 2235.46 1424.63 2234.91 1427.03 2234.42 1429.44L2214.39 1429.44C2215.92 1426.22 2217.77 1423.16 2219.92 1420.3Z" fill="#C2C2C2"/><path d="M2209.19 1452.54C2209.16 1447.33 2209.9 1442.15 2211.38 1437.16L2233.27 1437.16C2232.94 1439.73 2232.72 1442.3 2232.56 1444.82 2232.39 1447.34 2232.56 1449.97 2232.56 1452.54 2232.56 1455.11 2232.56 1457.74 2232.56 1460.31 2232.56 1462.88 2232.94 1465.4 2233.27 1467.97L2211.38 1467.97C2209.9 1462.96 2209.16 1457.76 2209.19 1452.54Z" fill="#C2C2C2"/><path d="M2235.73 1498.78C2232.69 1496.94 2229.81 1494.83 2227.14 1492.49 2224.49 1490.09 2222.08 1487.45 2219.92 1484.61 2217.79 1481.75 2215.96 1478.69 2214.44 1475.47L2234.47 1475.47C2234.96 1477.82 2235.51 1480.28 2236.17 1482.75 2236.83 1485.21 2237.59 1487.56 2238.47 1489.97 2239.38 1492.34 2240.43 1494.66 2241.59 1496.92 2242.73 1499.14 2244.03 1501.28 2245.47 1503.32 2242.09 1502.13 2238.82 1500.61 2235.73 1498.78Z" fill="#C2C2C2"/><path d="M2306.22 1484.83C2301.91 1490.47 2296.54 1495.21 2290.4 1498.78 2287.33 1500.6 2284.08 1502.12 2280.72 1503.32 2282.16 1501.28 2283.46 1499.14 2284.6 1496.92 2285.76 1494.66 2286.8 1492.34 2287.72 1489.97 2288.6 1487.56 2289.36 1485.15 2290.02 1482.75 2290.68 1480.28 2291.22 1477.82 2291.72 1475.47L2311.75 1475.47C2310.23 1478.77 2308.37 1481.9 2306.22 1484.83Z" fill="#C2C2C2"/></g></g></g><path d="M1283.77 1213.15 1530.67 1436.59 1529.13 1438.29 1282.23 1214.85ZM1535.73 1424.17 1546.89 1452.82 1517.28 1444.56Z" fill="#0F6FC6"/><path d="M1283 1451.85 1523.98 1451.85 1523.98 1454.15 1283 1454.15ZM1519.39 1439.25 1546.89 1453 1519.39 1466.75Z" fill="#0F6FC6"/><path d="M0.767552-0.850763 247.646 221.881 246.111 223.582-0.767552 0.850763ZM252.686 209.452 263.893 238.083 234.264 229.87Z" fill="#0F6FC6" transform="matrix(1 0 0 -1 1283 1691.08)"/><path d="M1843.01 1451.85 2140.93 1453.77 2140.91 1456.06 1842.99 1454.15ZM2136.42 1441.13 2163.83 1455.06 2136.25 1468.63Z" fill="#0F6FC6"/><path d="M1930 1139 2372 1139 2372 1264 2347 1289 1930 1289Z" fill="#D9D9D9" fill-rule="evenodd"/><path d="M2347 1289 2352 1269 2372 1264Z" fill="#AEAEAE" fill-rule="evenodd"/><text font-family="Meiryo UI,Meiryo UI_MSFontService,sans-serif" font-weight="400" font-size="37" transform="matrix(1 0 0 1 1956.34 1194)">SNAT </text><text font-family="Meiryo UI,Meiryo UI_MSFontService,sans-serif" font-weight="400" font-size="37" transform="matrix(1 0 0 1 2067.49 1194)">装置のエフェメラル</text><text font-family="Meiryo UI,Meiryo UI_MSFontService,sans-serif" font-weight="400" font-size="37" transform="matrix(1 0 0 1 1956.34 1238)">ポートも、当然ながら有限</text><path d="M0.536609-1.01242 309.197 162.587 308.124 164.611-0.536609 1.01242ZM315.1 151.45C321.81 155.006 324.366 163.329 320.81 170.038 317.253 176.748 308.931 179.304 302.221 175.748 295.512 172.192 292.955 163.869 296.512 157.16 300.068 150.45 308.39 147.894 315.1 151.45Z" fill="#7F7F7F" transform="matrix(-1 0 0 1 2151.66 1289)"/><text font-family="Meiryo UI,Meiryo UI_MSFontService,sans-serif" font-weight="400" font-size="46" transform="matrix(1 0 0 1 1288.49 1057)">閉域環境</text><text font-family="Meiryo UI,Meiryo UI_MSFontService,sans-serif" font-weight="400" font-size="50" transform="matrix(1 0 0 1 2026.65 1622)">外部の</text><text font-family="Meiryo UI,Meiryo UI_MSFontService,sans-serif" font-weight="400" font-size="50" transform="matrix(1 0 0 1 2185.92 1622)">API </text><text font-family="Meiryo UI,Meiryo UI_MSFontService,sans-serif" font-weight="400" font-size="50" transform="matrix(1 0 0 1 2287.33 1622)">サーバー</text></g></svg>